SplineFontDB: 3.0
FontName: VideoGlau
FullName: Video Glau
FamilyName: Video Glau
Weight: Regular
Copyright: Made by Sik in 2015,2016\nDo whatever you want with this font, no credit needed
UComments: "2015-5-25: Created." 
FontLog: "1.8 - UI elements+AAoA-1.7 - Greek+AAoA-1.6 - Lower Cyrillic+AAoA-1.5 - Tifinagh+AAoA-1.44 - Fixing glitches+AAoA-1.43 - Metadata update+AAoA-1.42 - Changed copyright+AAoA-1.41 - Line height fix+AAoA-1.4 - Arrows+AAoA-1.33 - Solid blocks+AAoA-1.32 - Minor : and ; fix+AAoA-1.31 - Bold version+AAoA-1.3 - Box drawing+AAoA-1.2 - Latin Extended A+AAoA-1.1 - Latin-1+AAoA-1.0 - ASCII" 
Version: 1.8
ItalicAngle: 0
UnderlinePosition: -6
UnderlineWidth: 4
Ascent: 24
Descent: 8
LayerCount: 2
Layer: 0 0 "Atr+AOEA-s"  1
Layer: 1 0 "Fore"  0
XUID: [1021 571 375086453 189816]
FSType: 8
OS2Version: 0
OS2_WeightWidthSlopeOnly: 1
OS2_UseTypoMetrics: 1
CreationTime: 1432590718
ModificationTime: 1473499427
PfmFamily: 49
TTFWeight: 500
TTFWidth: 5
LineGap: 0
VLineGap: 0
Panose: 2 13 6 9 2 8 3 8 2 3
OS2TypoAscent: 8
OS2TypoAOffset: 1
OS2TypoDescent: 0
OS2TypoDOffset: 1
OS2TypoLinegap: 0
OS2WinAscent: 8
OS2WinAOffset: 1
OS2WinDescent: 0
OS2WinDOffset: 1
HheadAscent: 32
HheadAOffset: 0
HheadDescent: -8
HheadDOffset: 0
OS2FamilyClass: 2058
OS2Vendor: 'Sik '
MarkAttachClasses: 1
DEI: 91125
LangName: 1033 
Encoding: UnicodeFull
UnicodeInterp: none
NameList: Adobe Glyph List
DisplaySize: -48
AntiAlias: 1
FitToEm: 1
WinInfo: 128250 27 9
BeginPrivate: 0
EndPrivate
Grid
0 12 m 25
 20 12 l 25
18 24 m 25
 18 0 l 25
14 0 m 25
 14 24 l 25
10 24 m 25
 10 0 l 25
6 0 m 25
 6 24 l 25
2 24 m 25
 2 0 l 25
0 4 m 25
 20 4 l 25
0 8 m 25
 20 8 l 25
0 16 m 25
 20 16 l 25
0 20 m 25
 20 20 l 25
-32 32.0667 m 0
 64 32.0667 l 0
EndSplineSet
BeginChars: 1114112 937

StartChar: O
Encoding: 79 79 0
Width: 20
VWidth: 0
Flags: HW
LayerCount: 2
Fore
SplineSet
8 4 m 9
 12 4 l 17
 14 6 l 1
 14 18 l 1
 12 20 l 9
 8 20 l 17
 6 18 l 1
 6 6 l 1
 8 4 l 9
2 4 m 25
 2 20 l 25
 6 24 l 25
 14 24 l 25
 18 20 l 25
 18 4 l 25
 14 0 l 25
 6 0 l 25
 2 4 l 25
EndSplineSet
EndChar

StartChar: P
Encoding: 80 80 1
Width: 20
VWidth: 0
Flags: HW
LayerCount: 2
Fore
SplineSet
6 14 m 29
 12 14 l 25
 14 16 l 25
 14 18 l 25
 12 20 l 25
 6 20 l 25
 6 14 l 29
2 0 m 25
 2 24 l 25
 14 24 l 25
 18 20 l 25
 18 14 l 25
 14 10 l 25
 6 10 l 25
 6 0 l 25
 2 0 l 25
EndSplineSet
EndChar

StartChar: o
Encoding: 111 111 2
Width: 20
VWidth: 0
Flags: HW
LayerCount: 2
Fore
SplineSet
8 4 m 9
 12 4 l 17
 14 6 l 1
 14 10 l 1
 12 12 l 9
 8 12 l 17
 6 10 l 1
 6 6 l 1
 8 4 l 9
2 4 m 25
 2 12 l 25
 6 16 l 25
 14 16 l 25
 18 12 l 25
 18 4 l 25
 14 0 l 25
 6 0 l 25
 2 4 l 25
EndSplineSet
EndChar

StartChar: m
Encoding: 109 109 3
Width: 20
VWidth: 0
Flags: HW
LayerCount: 2
Fore
SplineSet
2 0 m 25
 2 16 l 25
 15 16 l 25
 18 13 l 25
 18 0 l 25
 14 0 l 25
 14 12 l 25
 12 12 l 25
 12 4 l 25
 8 4 l 25
 8 12 l 25
 6 12 l 25
 6 0 l 25
 2 0 l 25
EndSplineSet
EndChar

StartChar: n
Encoding: 110 110 4
Width: 20
VWidth: 0
Flags: HW
LayerCount: 2
Fore
SplineSet
2 0 m 25
 2 16 l 25
 14 16 l 25
 18 12 l 25
 18 0 l 25
 14 0 l 17
 14 10 l 1
 12 12 l 9
 6 12 l 25
 6 0 l 25
 2 0 l 25
EndSplineSet
EndChar

StartChar: L
Encoding: 76 76 5
Width: 20
VWidth: 0
Flags: HW
LayerCount: 2
Fore
SplineSet
2 0 m 29
 2 24 l 25
 6 24 l 25
 6 4 l 25
 18 4 l 25
 18 0 l 25
 2 0 l 29
EndSplineSet
EndChar

StartChar: E
Encoding: 69 69 6
Width: 20
VWidth: 0
Flags: HW
LayerCount: 2
Fore
SplineSet
2 0 m 25
 2 24 l 25
 18 24 l 25
 18 20 l 25
 6 20 l 25
 6 14 l 25
 14 14 l 25
 14 10 l 25
 6 10 l 25
 6 4 l 25
 18 4 l 25
 18 0 l 25
 2 0 l 25
EndSplineSet
EndChar

StartChar: F
Encoding: 70 70 7
Width: 20
VWidth: 0
Flags: HW
LayerCount: 2
Fore
SplineSet
2 0 m 25
 2 24 l 25
 18 24 l 25
 18 20 l 25
 6 20 l 25
 6 14 l 25
 14 14 l 25
 14 10 l 25
 6 10 l 25
 6 0 l 25
 2 0 l 25
EndSplineSet
EndChar

StartChar: C
Encoding: 67 67 8
Width: 20
VWidth: 0
Flags: HW
LayerCount: 2
Fore
SplineSet
2 4 m 29
 2 20 l 25
 6 24 l 25
 14 24 l 25
 18 20 l 25
 18 16 l 25
 14 16 l 25
 14 18 l 25
 12 20 l 25
 8 20 l 25
 6 18 l 25
 6 6 l 25
 8 4 l 25
 12 4 l 25
 14 6 l 25
 14 8 l 25
 18 8 l 25
 18 4 l 25
 14 0 l 25
 6 0 l 25
 2 4 l 29
EndSplineSet
EndChar

StartChar: H
Encoding: 72 72 9
Width: 20
VWidth: 0
Flags: HW
LayerCount: 2
Fore
SplineSet
2 0 m 29
 2 24 l 25
 6 24 l 25
 6 14 l 25
 14 14 l 25
 14 24 l 25
 18 24 l 25
 18 0 l 25
 14 0 l 25
 14 10 l 25
 6 10 l 25
 6 0 l 25
 2 0 l 29
EndSplineSet
EndChar

StartChar: I
Encoding: 73 73 10
Width: 20
VWidth: 0
Flags: HW
LayerCount: 2
Fore
SplineSet
4 24 m 25
 16 24 l 25
 16 20 l 25
 12 20 l 25
 12 4 l 25
 16 4 l 25
 16 0 l 25
 4 0 l 25
 4 4 l 25
 8 4 l 25
 8 20 l 25
 4 20 l 25
 4 24 l 25
EndSplineSet
EndChar

StartChar: J
Encoding: 74 74 11
Width: 20
VWidth: 0
Flags: HW
LayerCount: 2
Fore
SplineSet
18 24 m 29
 18 4 l 25
 14 0 l 25
 6 0 l 25
 2 4 l 25
 2 8 l 25
 6 8 l 25
 6 6 l 25
 8 4 l 25
 12 4 l 25
 14 6 l 25
 14 24 l 25
 18 24 l 29
EndSplineSet
EndChar

StartChar: s
Encoding: 115 115 12
Width: 20
VWidth: 0
Flags: HW
LayerCount: 2
Fore
SplineSet
2 0 m 25
 2 4 l 25
 14 4 l 25
 14 6 l 25
 5 6 l 25
 2 9 l 25
 2 13 l 25
 5 16 l 25
 18 16 l 25
 18 12 l 25
 6 12 l 25
 6 10 l 25
 15 10 l 25
 18 7 l 25
 18 3 l 25
 15 0 l 25
 2 0 l 25
EndSplineSet
EndChar

StartChar: w
Encoding: 119 119 13
Width: 20
VWidth: 0
Flags: HW
LayerCount: 2
Fore
SplineSet
2 3 m 25
 2 16 l 25
 6 16 l 25
 6 4 l 25
 8 4 l 25
 8 12 l 29
 12 12 l 29
 12 4 l 25
 14 4 l 25
 14 16 l 25
 18 16 l 25
 18 3 l 25
 15 0 l 25
 12 0 l 25
 10 2 l 25
 8 0 l 25
 5 0 l 25
 2 3 l 25
EndSplineSet
EndChar

StartChar: e
Encoding: 101 101 14
Width: 20
VWidth: 0
Flags: HW
LayerCount: 2
Fore
SplineSet
6 10 m 25
 14 10 l 25
 12 12 l 25
 8 12 l 25
 6 10 l 25
6 0 m 25
 2 4 l 25
 2 12 l 25
 6 16 l 25
 14 16 l 25
 18 12 l 25
 18 6 l 25
 6 6 l 25
 8 4 l 25
 16 4 l 29
 16 0 l 29
 6 0 l 25
EndSplineSet
EndChar

StartChar: a
Encoding: 97 97 15
Width: 20
VWidth: 0
Flags: HW
LayerCount: 2
Fore
SplineSet
14 4 m 25
 14 6 l 25
 6 6 l 25
 6 4 l 25
 14 4 l 25
18 0 m 25
 5 0 l 25
 2 3 l 25
 2 7 l 25
 5 10 l 25
 14 10 l 25
 12 12 l 25
 4 12 l 29
 4 16 l 29
 14 16 l 25
 18 12 l 25
 18 0 l 25
EndSplineSet
EndChar

StartChar: D
Encoding: 68 68 16
Width: 20
VWidth: 0
Flags: HW
LayerCount: 2
Fore
SplineSet
6 20 m 25
 6 4 l 25
 10 4 l 25
 14 8 l 25
 14 16 l 25
 10 20 l 25
 6 20 l 25
2 0 m 25
 2 24 l 25
 12 24 l 25
 18 18 l 25
 18 6 l 25
 12 0 l 25
 2 0 l 25
EndSplineSet
EndChar

StartChar: G
Encoding: 71 71 17
Width: 20
VWidth: 0
Flags: HW
LayerCount: 2
Fore
SplineSet
18 20 m 29
 18 18 l 29
 14 18 l 29
 12 20 l 29
 8 20 l 29
 6 18 l 29
 6 6 l 29
 8 4 l 29
 14 4 l 29
 14 10 l 29
 10 10 l 29
 10 14 l 29
 18 14 l 29
 18 0 l 29
 6 0 l 29
 2 4 l 29
 2 20 l 29
 6 24 l 29
 14 24 l 29
 18 20 l 29
EndSplineSet
EndChar

StartChar: c
Encoding: 99 99 18
Width: 20
VWidth: 0
Flags: HW
LayerCount: 2
Fore
SplineSet
6 0 m 29
 2 4 l 25
 2 12 l 25
 6 16 l 25
 14 16 l 25
 18 12 l 25
 18 10 l 25
 14 10 l 25
 12 12 l 25
 8 12 l 25
 6 10 l 25
 6 6 l 25
 8 4 l 25
 12 4 l 25
 14 6 l 25
 18 6 l 25
 18 4 l 25
 14 0 l 25
 6 0 l 29
EndSplineSet
EndChar

StartChar: T
Encoding: 84 84 19
Width: 20
VWidth: 0
Flags: HW
LayerCount: 2
Fore
SplineSet
2 24 m 29
 18 24 l 25
 18 20 l 25
 12 20 l 25
 12 0 l 25
 8 0 l 25
 8 20 l 25
 2 20 l 25
 2 24 l 29
EndSplineSet
EndChar

StartChar: U
Encoding: 85 85 20
Width: 20
VWidth: 0
Flags: HW
LayerCount: 2
Fore
SplineSet
2 24 m 29
 6 24 l 25
 6 6 l 25
 8 4 l 25
 12 4 l 25
 14 6 l 25
 14 24 l 25
 18 24 l 25
 18 4 l 25
 14 0 l 25
 6 0 l 25
 2 4 l 25
 2 24 l 29
EndSplineSet
EndChar

StartChar: S
Encoding: 83 83 21
Width: 20
VWidth: 0
Flags: HW
LayerCount: 2
Fore
SplineSet
6 10 m 29
 2 14 l 25
 2 20 l 25
 6 24 l 25
 14 24 l 25
 18 20 l 25
 18 18 l 25
 14 18 l 25
 12 20 l 25
 8 20 l 25
 6 18 l 25
 6 16 l 25
 8 14 l 25
 14 14 l 25
 18 10 l 25
 18 4 l 25
 14 0 l 25
 6 0 l 25
 2 4 l 25
 2 6 l 25
 6 6 l 25
 8 4 l 25
 12 4 l 25
 14 6 l 25
 14 8 l 25
 12 10 l 25
 6 10 l 29
EndSplineSet
EndChar

StartChar: B
Encoding: 66 66 22
Width: 20
VWidth: 0
Flags: HW
LayerCount: 2
Fore
SplineSet
6 10 m 29
 6 4 l 25
 12 4 l 25
 14 6 l 25
 14 8 l 25
 12 10 l 25
 6 10 l 29
6 20 m 25
 6 14 l 25
 12 14 l 25
 14 16 l 25
 14 18 l 25
 12 20 l 25
 6 20 l 25
2 0 m 25
 2 24 l 25
 14 24 l 25
 18 20 l 25
 18 14 l 25
 16 12 l 25
 18 10 l 25
 18 4 l 25
 14 0 l 25
 2 0 l 25
EndSplineSet
EndChar

StartChar: X
Encoding: 88 88 23
Width: 20
VWidth: 0
Flags: HW
LayerCount: 2
Fore
SplineSet
2 0 m 9
 2 7 l 17
 7 12 l 1
 2 17 l 1
 2 24 l 1
 6 24 l 1
 6 19 l 1
 10 15 l 1
 14 19 l 1
 14 24 l 1
 18 24 l 9
 18 17 l 17
 13 12 l 1
 18 7 l 1
 18 0 l 1
 14 0 l 1
 14 5 l 1
 10 9 l 1
 6 5 l 1
 6 0 l 1
 2 0 l 9
EndSplineSet
EndChar

StartChar: one
Encoding: 49 49 24
Width: 20
VWidth: 0
Flags: HW
LayerCount: 2
Fore
SplineSet
4 0 m 29
 4 4 l 25
 8 4 l 25
 8 16 l 25
 4 16 l 25
 4 20 l 25
 6 20 l 25
 8 22 l 25
 8 24 l 25
 12 24 l 25
 12 4 l 25
 16 4 l 25
 16 0 l 25
 4 0 l 29
EndSplineSet
EndChar

StartChar: three
Encoding: 51 51 25
Width: 20
VWidth: 0
Flags: HW
LayerCount: 2
Fore
SplineSet
2 20 m 25
 6 24 l 25
 14 24 l 25
 18 20 l 25
 18 14 l 25
 16 12 l 25
 18 10 l 25
 18 4 l 25
 14 0 l 25
 6 0 l 25
 2 4 l 25
 2 6 l 25
 6 6 l 25
 8 4 l 25
 12 4 l 25
 14 6 l 25
 14 8 l 25
 12 10 l 25
 8 10 l 25
 8 14 l 25
 12 14 l 25
 14 16 l 25
 14 18 l 25
 12 20 l 25
 8 20 l 25
 6 18 l 25
 2 18 l 25
 2 20 l 25
EndSplineSet
EndChar

StartChar: six
Encoding: 54 54 26
Width: 20
VWidth: 0
Flags: HW
LayerCount: 2
Fore
SplineSet
6 10 m 25
 6 6 l 25
 8 4 l 25
 12 4 l 25
 14 6 l 25
 14 8 l 25
 12 10 l 25
 6 10 l 25
6 0 m 25
 2 4 l 25
 2 20 l 25
 6 24 l 25
 14 24 l 25
 18 20 l 25
 18 18 l 25
 14 18 l 25
 12 20 l 25
 8 20 l 25
 6 18 l 25
 6 14 l 25
 14 14 l 25
 18 10 l 25
 18 4 l 25
 14 0 l 25
 6 0 l 25
EndSplineSet
EndChar

StartChar: i
Encoding: 105 105 27
Width: 20
VWidth: 0
Flags: HW
LayerCount: 2
Fore
SplineSet
12 18 m 29
 8 18 l 29
 8 22 l 29
 12 22 l 29
 12 18 l 29
EndSplineSet
Refer: 177 305 N 1 0 0 1 0 0 2
EndChar

StartChar: Z
Encoding: 90 90 28
Width: 20
VWidth: 0
Flags: HW
LayerCount: 2
Fore
SplineSet
2 0 m 9
 2 7 l 25
 14 19 l 17
 14 20 l 1
 2 20 l 1
 2 24 l 1
 18 24 l 9
 18 17 l 25
 6 5 l 17
 6 4 l 1
 18 4 l 1
 18 0 l 1
 2 0 l 9
EndSplineSet
EndChar

StartChar: slash
Encoding: 47 47 29
Width: 20
VWidth: 0
Flags: HW
LayerCount: 2
Fore
SplineSet
2 0 m 29
 2 2 l 29
 14 24 l 25
 18 24 l 25
 18 22 l 25
 6 0 l 29
 2 0 l 29
EndSplineSet
EndChar

StartChar: N
Encoding: 78 78 30
Width: 20
VWidth: 0
Flags: HW
LayerCount: 2
Fore
SplineSet
18 0 m 17
 14 0 l 1
 14 5 l 1
 6 13 l 1
 6 0 l 1
 2 0 l 9
 2 24 l 17
 6 24 l 1
 6 19 l 1
 14 11 l 1
 14 24 l 1
 18 24 l 9
 18 0 l 17
EndSplineSet
EndChar

StartChar: W
Encoding: 87 87 31
Width: 20
VWidth: 0
Flags: HW
LayerCount: 2
Fore
SplineSet
2 3 m 25
 2 24 l 25
 6 24 l 25
 6 4 l 25
 8 4 l 25
 8 16 l 25
 12 16 l 25
 12 4 l 25
 14 4 l 25
 14 24 l 25
 18 24 l 25
 18 3 l 25
 15 0 l 25
 12 0 l 25
 10 2 l 25
 8 0 l 25
 5 0 l 25
 2 3 l 25
EndSplineSet
EndChar

StartChar: A
Encoding: 65 65 32
Width: 20
VWidth: 0
Flags: HW
LayerCount: 2
Fore
SplineSet
6 12 m 29
 14 12 l 29
 14 16 l 25
 10 20 l 25
 6 16 l 25
 6 12 l 29
8 24 m 25
 12 24 l 25
 18 18 l 25
 18 0 l 25
 14 0 l 25
 14 8 l 29
 6 8 l 29
 6 0 l 25
 2 0 l 25
 2 18 l 25
 8 24 l 25
EndSplineSet
EndChar

StartChar: eight
Encoding: 56 56 34
Width: 20
VWidth: 0
Flags: HW
LayerCount: 2
Fore
SplineSet
12 14 m 29
 14 16 l 25
 14 18 l 25
 12 20 l 25
 8 20 l 25
 6 18 l 25
 6 16 l 25
 8 14 l 25
 12 14 l 29
12 10 m 25
 8 10 l 25
 6 8 l 25
 6 6 l 25
 8 4 l 25
 12 4 l 25
 14 6 l 25
 14 8 l 25
 12 10 l 25
6 0 m 25
 2 4 l 25
 2 10 l 25
 4 12 l 25
 2 14 l 25
 2 20 l 25
 6 24 l 25
 14 24 l 25
 18 20 l 25
 18 14 l 25
 16 12 l 25
 18 10 l 25
 18 4 l 25
 14 0 l 25
 6 0 l 25
EndSplineSet
EndChar

StartChar: x
Encoding: 120 120 35
Width: 20
VWidth: 0
Flags: HW
LayerCount: 2
Fore
SplineSet
2 0 m 9
 2 4 l 17
 6 8 l 1
 2 12 l 1
 2 16 l 1
 6 16 l 1
 6 14 l 1
 10 10 l 1
 14 14 l 1
 14 16 l 1
 18 16 l 9
 18 12 l 17
 14 8 l 1
 18 4 l 1
 18 0 l 1
 14 0 l 1
 14 2 l 1
 10 6 l 1
 6 2 l 1
 6 0 l 1
 2 0 l 9
EndSplineSet
EndChar

StartChar: z
Encoding: 122 122 36
Width: 20
VWidth: 0
Flags: HW
LayerCount: 2
Fore
SplineSet
2 0 m 9
 2 3 l 25
 11 12 l 17
 2 12 l 1
 2 16 l 1
 18 16 l 9
 18 13 l 25
 9 4 l 17
 18 4 l 5
 18 0 l 1
 2 0 l 9
EndSplineSet
EndChar

StartChar: two
Encoding: 50 50 37
Width: 20
VWidth: 0
Flags: HW
LayerCount: 2
Fore
SplineSet
18 4 m 29
 18 0 l 25
 2 0 l 25
 2 10 l 25
 6 14 l 25
 12 14 l 25
 14 16 l 25
 14 18 l 25
 12 20 l 25
 8 20 l 25
 6 18 l 25
 2 18 l 25
 2 20 l 25
 6 24 l 25
 14 24 l 25
 18 20 l 25
 18 14 l 25
 14 10 l 25
 8 10 l 25
 6 8 l 25
 6 4 l 25
 18 4 l 29
EndSplineSet
EndChar

StartChar: Y
Encoding: 89 89 38
Width: 20
VWidth: 0
Flags: HW
LayerCount: 2
Fore
SplineSet
8 9 m 25
 2 15 l 25
 2 24 l 25
 6 24 l 25
 6 17 l 25
 10 13 l 25
 14 17 l 25
 14 24 l 25
 18 24 l 25
 18 15 l 25
 12 9 l 25
 12 0 l 25
 8 0 l 25
 8 9 l 25
EndSplineSet
EndChar

StartChar: R
Encoding: 82 82 39
Width: 20
VWidth: 0
Flags: HW
LayerCount: 2
Fore
SplineSet
6 14 m 25
 12 14 l 25
 14 16 l 25
 14 18 l 25
 12 20 l 25
 6 20 l 25
 6 14 l 25
2 0 m 25
 2 24 l 25
 14 24 l 25
 18 20 l 25
 18 14 l 25
 14 10 l 17
 11 10 l 1
 18 2 l 1
 18 0 l 1
 14 0 l 1
 6 9 l 9
 6 0 l 25
 2 0 l 25
EndSplineSet
EndChar

StartChar: nine
Encoding: 57 57 40
Width: 20
VWidth: 0
Flags: HW
LayerCount: 2
Fore
SplineSet
14 14 m 25
 14 18 l 25
 12 20 l 25
 8 20 l 25
 6 18 l 25
 6 16 l 25
 8 14 l 25
 14 14 l 25
2 20 m 25
 6 24 l 25
 14 24 l 25
 18 20 l 25
 18 6 l 25
 12 0 l 25
 4 0 l 25
 4 4 l 25
 10 4 l 25
 14 8 l 25
 14 10 l 25
 6 10 l 25
 2 14 l 25
 2 20 l 25
EndSplineSet
EndChar

StartChar: seven
Encoding: 55 55 41
Width: 20
VWidth: 0
Flags: HW
LayerCount: 2
Fore
SplineSet
14 16 m 25
 14 20 l 17
 6 20 l 1
 6 16 l 1
 2 16 l 9
 2 24 l 25
 18 24 l 25
 18 14 l 25
 12 8 l 25
 12 0 l 25
 8 0 l 25
 8 10 l 25
 14 16 l 25
EndSplineSet
EndChar

StartChar: r
Encoding: 114 114 42
Width: 20
VWidth: 0
Flags: HW
LayerCount: 2
Fore
SplineSet
2 0 m 29
 2 16 l 25
 6 16 l 25
 6 14 l 25
 8 16 l 25
 14 16 l 25
 18 12 l 25
 18 8 l 25
 14 8 l 25
 14 10 l 25
 12 12 l 25
 10 12 l 25
 6 8 l 25
 6 0 l 25
 2 0 l 29
EndSplineSet
EndChar

StartChar: u
Encoding: 117 117 43
Width: 20
VWidth: 0
Flags: HW
LayerCount: 2
Fore
SplineSet
18 16 m 29
 18 0 l 25
 14 0 l 25
 14 2 l 25
 12 0 l 25
 6 0 l 25
 2 4 l 25
 2 16 l 25
 6 16 l 25
 6 6 l 25
 8 4 l 25
 10 4 l 25
 14 8 l 25
 14 16 l 25
 18 16 l 29
EndSplineSet
EndChar

StartChar: d
Encoding: 100 100 44
Width: 20
VWidth: 0
Flags: HW
LayerCount: 2
Fore
SplineSet
14 12 m 29
 8 12 l 25
 6 10 l 25
 6 6 l 25
 8 4 l 25
 10 4 l 25
 14 8 l 25
 14 12 l 29
18 24 m 25
 18 0 l 25
 14 0 l 25
 14 2 l 25
 12 0 l 25
 6 0 l 25
 2 4 l 25
 2 12 l 25
 6 16 l 25
 14 16 l 25
 14 24 l 25
 18 24 l 25
EndSplineSet
EndChar

StartChar: b
Encoding: 98 98 45
Width: 20
VWidth: 0
Flags: HW
LayerCount: 2
Fore
SplineSet
6 4 m 29
 12 4 l 25
 14 6 l 25
 14 10 l 25
 12 12 l 25
 10 12 l 25
 6 8 l 25
 6 4 l 29
2 24 m 25
 6 24 l 25
 6 14 l 25
 8 16 l 25
 14 16 l 25
 18 12 l 25
 18 4 l 25
 14 0 l 25
 2 0 l 25
 2 24 l 25
EndSplineSet
EndChar

StartChar: f
Encoding: 102 102 46
Width: 20
VWidth: 0
Flags: HW
LayerCount: 2
Fore
SplineSet
18 24 m 25
 18 20 l 25
 14 20 l 25
 12 18 l 25
 12 14 l 25
 16 14 l 25
 16 10 l 25
 12 10 l 25
 12 0 l 25
 8 0 l 25
 8 10 l 25
 4 10 l 25
 4 14 l 25
 8 14 l 25
 8 20 l 25
 12 24 l 25
 18 24 l 25
EndSplineSet
EndChar

StartChar: h
Encoding: 104 104 47
Width: 20
VWidth: 0
Flags: HW
LayerCount: 2
Fore
SplineSet
2 0 m 29
 2 24 l 25
 6 24 l 25
 6 14 l 25
 8 16 l 25
 14 16 l 25
 18 12 l 25
 18 0 l 25
 14 0 l 25
 14 10 l 25
 12 12 l 25
 10 12 l 25
 6 8 l 25
 6 0 l 25
 2 0 l 29
EndSplineSet
EndChar

StartChar: g
Encoding: 103 103 48
Width: 20
VWidth: 0
Flags: HW
LayerCount: 2
Fore
SplineSet
14 4 m 29
 14 12 l 25
 8 12 l 25
 6 10 l 25
 6 6 l 25
 8 4 l 25
 14 4 l 29
4 -8 m 25
 4 -4 l 25
 12 -4 l 25
 14 -2 l 25
 14 0 l 25
 6 0 l 25
 2 4 l 25
 2 12 l 25
 6 16 l 25
 18 16 l 25
 18 -4 l 25
 14 -8 l 25
 4 -8 l 25
EndSplineSet
EndChar

StartChar: y
Encoding: 121 121 49
Width: 20
VWidth: 0
Flags: HW
LayerCount: 2
Fore
SplineSet
18 16 m 29
 18 -4 l 25
 14 -8 l 25
 4 -8 l 25
 4 -4 l 25
 12 -4 l 25
 14 -2 l 25
 14 2 l 25
 12 0 l 25
 6 0 l 25
 2 4 l 25
 2 16 l 25
 6 16 l 25
 6 6 l 25
 8 4 l 25
 10 4 l 25
 14 8 l 25
 14 16 l 25
 18 16 l 29
EndSplineSet
EndChar

StartChar: M
Encoding: 77 77 50
Width: 20
VWidth: 0
Flags: HW
LayerCount: 2
Fore
SplineSet
6 0 m 25
 2 0 l 25
 2 24 l 25
 6 24 l 25
 10 20 l 25
 14 24 l 25
 18 24 l 25
 18 0 l 25
 14 0 l 25
 14 18 l 25
 12 16 l 25
 12 8 l 25
 8 8 l 25
 8 16 l 25
 6 18 l 25
 6 0 l 25
EndSplineSet
EndChar

StartChar: K
Encoding: 75 75 51
Width: 20
VWidth: 0
Flags: HW
LayerCount: 2
Fore
SplineSet
6 0 m 9
 2 0 l 25
 2 24 l 25
 6 24 l 17
 6 14 l 1
 8 14 l 1
 14 20 l 1
 14 24 l 1
 18 24 l 1
 18 18 l 1
 12 12 l 1
 18 6 l 1
 18 0 l 1
 14 0 l 1
 14 4 l 1
 8 10 l 1
 6 10 l 1
 6 0 l 9
EndSplineSet
EndChar

StartChar: five
Encoding: 53 53 52
Width: 20
VWidth: 0
Flags: HW
LayerCount: 2
Fore
SplineSet
6 0 m 25
 2 4 l 25
 2 6 l 25
 6 6 l 25
 8 4 l 25
 12 4 l 25
 14 6 l 25
 14 10 l 25
 12 12 l 25
 8 12 l 25
 6 10 l 25
 2 10 l 25
 2 24 l 25
 18 24 l 25
 18 20 l 25
 6 20 l 25
 6 16 l 25
 14 16 l 25
 18 12 l 25
 18 4 l 25
 14 0 l 25
 6 0 l 25
EndSplineSet
EndChar

StartChar: zero
Encoding: 48 48 53
Width: 20
VWidth: 0
Flags: HW
LayerCount: 2
Fore
SplineSet
2 5 m 29
 2 7 l 29
 14 19 l 29
 18 19 l 29
 18 17 l 29
 6 5 l 29
 2 5 l 29
8 4 m 9
 12 4 l 17
 14 6 l 1
 14 18 l 1
 12 20 l 9
 8 20 l 17
 6 18 l 1
 6 6 l 1
 8 4 l 9
2 4 m 25
 2 20 l 25
 6 24 l 25
 14 24 l 25
 18 20 l 25
 18 4 l 25
 14 0 l 25
 6 0 l 25
 2 4 l 25
EndSplineSet
EndChar

StartChar: Q
Encoding: 81 81 54
Width: 20
VWidth: 0
Flags: HW
LayerCount: 2
Fore
SplineSet
18 2 m 25
 18 0 l 25
 14 0 l 25
 8 6 l 25
 8 8 l 25
 12 8 l 25
 18 2 l 25
8 4 m 9
 10 4 l 17
 14 8 l 1
 14 18 l 1
 12 20 l 9
 8 20 l 17
 6 18 l 1
 6 6 l 1
 8 4 l 9
2 4 m 25
 2 20 l 25
 6 24 l 25
 14 24 l 25
 18 20 l 25
 18 6 l 25
 12 0 l 25
 6 0 l 25
 2 4 l 25
EndSplineSet
EndChar

StartChar: l
Encoding: 108 108 55
Width: 20
VWidth: 0
Flags: HW
LayerCount: 2
Fore
SplineSet
8 24 m 25
 12 24 l 25
 12 4 l 25
 16 4 l 25
 16 0 l 25
 11 0 l 25
 8 3 l 25
 8 24 l 25
EndSplineSet
EndChar

StartChar: four
Encoding: 52 52 56
Width: 20
VWidth: 0
Flags: HW
LayerCount: 2
Fore
SplineSet
12 10 m 29
 12 18 l 25
 6 12 l 25
 6 10 l 25
 12 10 l 29
16 24 m 25
 16 10 l 25
 18 10 l 25
 18 6 l 25
 16 6 l 25
 16 0 l 25
 12 0 l 25
 12 6 l 25
 2 6 l 25
 2 14 l 25
 12 24 l 25
 16 24 l 25
EndSplineSet
EndChar

StartChar: V
Encoding: 86 86 57
Width: 20
VWidth: 0
Flags: HW
LayerCount: 2
Fore
SplineSet
12 0 m 29
 8 0 l 25
 2 12 l 25
 2 24 l 25
 6 24 l 25
 6 13 l 25
 10 5 l 25
 14 13 l 25
 14 24 l 25
 18 24 l 25
 18 12 l 25
 12 0 l 29
EndSplineSet
EndChar

StartChar: v
Encoding: 118 118 58
Width: 20
VWidth: 0
Flags: HW
LayerCount: 2
Fore
SplineSet
9 0 m 25
 2 7 l 25
 2 16 l 25
 6 16 l 25
 6 9 l 25
 10 5 l 25
 14 9 l 25
 14 16 l 25
 18 16 l 25
 18 7 l 25
 11 0 l 25
 9 0 l 25
EndSplineSet
EndChar

StartChar: k
Encoding: 107 107 59
Width: 20
VWidth: 0
Flags: HW
LayerCount: 2
Fore
SplineSet
18 16 m 29
 18 14 l 25
 12 8 l 25
 18 2 l 25
 18 0 l 25
 14 0 l 25
 8 6 l 25
 6 6 l 25
 6 0 l 25
 2 0 l 25
 2 24 l 25
 6 24 l 25
 6 10 l 25
 8 10 l 25
 14 16 l 25
 18 16 l 29
EndSplineSet
EndChar

StartChar: underscore
Encoding: 95 95 60
Width: 20
VWidth: 0
Flags: HW
LayerCount: 2
Fore
SplineSet
2 0 m 29
 18 0 l 25
 18 -4 l 25
 2 -4 l 25
 2 0 l 29
EndSplineSet
EndChar

StartChar: p
Encoding: 112 112 61
Width: 20
VWidth: 0
Flags: HW
LayerCount: 2
Fore
SplineSet
6 12 m 25
 6 4 l 25
 12 4 l 25
 14 6 l 25
 14 10 l 25
 12 12 l 25
 6 12 l 25
2 -6 m 25
 2 16 l 25
 14 16 l 25
 18 12 l 25
 18 4 l 25
 14 0 l 25
 6 0 l 25
 6 -6 l 25
 2 -6 l 25
EndSplineSet
EndChar

StartChar: q
Encoding: 113 113 62
Width: 20
VWidth: 0
Flags: HW
LayerCount: 2
Fore
SplineSet
6 6 m 29
 8 4 l 25
 10 4 l 25
 14 8 l 25
 10 12 l 25
 8 12 l 25
 6 10 l 25
 6 6 l 29
18 -6 m 25
 14 -6 l 25
 14 2 l 25
 12 0 l 25
 6 0 l 25
 2 4 l 25
 2 12 l 25
 6 16 l 25
 12 16 l 25
 14 14 l 25
 14 16 l 25
 18 16 l 25
 18 -6 l 25
EndSplineSet
EndChar

StartChar: t
Encoding: 116 116 63
Width: 20
VWidth: 0
Flags: HW
LayerCount: 2
Fore
SplineSet
18 0 m 25
 10 0 l 25
 6 4 l 25
 6 12 l 25
 2 12 l 25
 2 16 l 25
 6 16 l 25
 6 24 l 25
 10 24 l 25
 10 16 l 25
 16 16 l 25
 16 12 l 25
 10 12 l 25
 10 6 l 25
 12 4 l 25
 18 4 l 25
 18 0 l 25
EndSplineSet
EndChar

StartChar: j
Encoding: 106 106 64
Width: 20
VWidth: 0
Flags: HW
LayerCount: 2
Fore
SplineSet
12 18 m 25
 8 18 l 25
 8 22 l 25
 12 22 l 25
 12 18 l 25
6 16 m 25
 14 16 l 25
 14 0 l 25
 10 -4 l 25
 4 -4 l 25
 4 0 l 25
 8 0 l 25
 10 2 l 25
 10 12 l 25
 6 12 l 25
 6 16 l 25
EndSplineSet
EndChar

StartChar: hyphen
Encoding: 45 45 65
Width: 20
VWidth: 0
Flags: HW
LayerCount: 2
Fore
SplineSet
2 12 m 25
 18 12 l 25
 18 8 l 25
 2 8 l 25
 2 12 l 25
EndSplineSet
EndChar

StartChar: plus
Encoding: 43 43 66
Width: 20
VWidth: 0
Flags: HW
LayerCount: 2
Fore
SplineSet
2 10 m 25
 2 14 l 25
 8 14 l 25
 8 20 l 25
 12 20 l 25
 12 14 l 25
 18 14 l 25
 18 10 l 25
 12 10 l 25
 12 4 l 25
 8 4 l 25
 8 10 l 25
 2 10 l 25
EndSplineSet
EndChar

StartChar: asterisk
Encoding: 42 42 67
Width: 20
VWidth: 0
Flags: HW
LayerCount: 2
Fore
SplineSet
6 12 m 25
 2 16 l 25
 2 18 l 25
 6 18 l 25
 8 16 l 25
 8 20 l 29
 12 20 l 29
 12 16 l 25
 14 18 l 25
 18 18 l 25
 18 16 l 25
 14 12 l 25
 18 8 l 25
 18 6 l 25
 14 6 l 25
 12 8 l 25
 12 4 l 25
 8 4 l 25
 8 8 l 25
 6 6 l 25
 2 6 l 25
 2 8 l 25
 6 12 l 25
EndSplineSet
EndChar

StartChar: period
Encoding: 46 46 68
Width: 20
VWidth: 0
Flags: HW
LayerCount: 2
Fore
SplineSet
13 0 m 25
 7 0 l 25
 7 6 l 25
 13 6 l 25
 13 0 l 25
EndSplineSet
EndChar

StartChar: comma
Encoding: 44 44 69
Width: 20
VWidth: 0
Flags: HW
LayerCount: 2
Fore
SplineSet
9 0 m 9
 7 0 l 25
 7 6 l 25
 13 6 l 25
 13 -3 l 25
 10 -6 l 25
 7 -6 l 25
 7 -4 l 17
 9 -2 l 1
 9 0 l 9
EndSplineSet
EndChar

StartChar: colon
Encoding: 58 58 70
Width: 20
VWidth: 0
Flags: HW
LayerCount: 2
Fore
SplineSet
13 20 m 25
 13 14 l 25
 7 14 l 25
 7 20 l 25
 13 20 l 25
13 2 m 29
 7 2 l 29
 7 8 l 29
 13 8 l 29
 13 2 l 29
EndSplineSet
EndChar

StartChar: equal
Encoding: 61 61 71
Width: 20
VWidth: 0
Flags: HW
LayerCount: 2
Fore
SplineSet
2 14 m 25
 2 18 l 25
 18 18 l 25
 18 14 l 29
 2 14 l 25
2 10 m 25
 18 10 l 25
 18 6 l 25
 2 6 l 25
 2 10 l 25
EndSplineSet
EndChar

StartChar: parenleft
Encoding: 40 40 72
Width: 20
VWidth: 0
Flags: HW
LayerCount: 2
Fore
SplineSet
16 24 m 29
 16 22 l 29
 10 16 l 29
 10 8 l 29
 16 2 l 29
 16 0 l 29
 12 0 l 29
 6 6 l 29
 6 18 l 29
 12 24 l 29
 16 24 l 29
EndSplineSet
EndChar

StartChar: bracketleft
Encoding: 91 91 73
Width: 20
VWidth: 0
Flags: HW
LayerCount: 2
Fore
SplineSet
6 0 m 25
 6 24 l 25
 14 24 l 25
 14 20 l 25
 10 20 l 25
 10 4 l 25
 14 4 l 25
 14 0 l 25
 6 0 l 25
EndSplineSet
EndChar

StartChar: bracketright
Encoding: 93 93 74
Width: 20
VWidth: 0
Flags: HW
LayerCount: 2
Fore
SplineSet
14 24 m 29
 14 0 l 25
 6 0 l 25
 6 4 l 25
 10 4 l 25
 10 20 l 25
 6 20 l 25
 6 24 l 25
 14 24 l 29
EndSplineSet
EndChar

StartChar: parenright
Encoding: 41 41 75
Width: 20
VWidth: 0
Flags: HW
LayerCount: 2
Fore
SplineSet
8 24 m 29
 14 18 l 29
 14 6 l 29
 8 0 l 29
 4 0 l 29
 4 2 l 29
 10 8 l 29
 10 16 l 29
 4 22 l 29
 4 24 l 29
 8 24 l 29
EndSplineSet
EndChar

StartChar: bar
Encoding: 124 124 76
Width: 20
VWidth: 0
Flags: HW
LayerCount: 2
Fore
SplineSet
8 24 m 29
 12 24 l 25
 12 0 l 25
 8 0 l 25
 8 24 l 29
EndSplineSet
EndChar

StartChar: braceleft
Encoding: 123 123 77
Width: 20
VWidth: 0
Flags: HW
LayerCount: 2
Fore
SplineSet
16 24 m 29
 16 20 l 25
 12 20 l 25
 12 14 l 25
 10 12 l 25
 12 10 l 25
 12 4 l 25
 16 4 l 25
 16 0 l 25
 11 0 l 25
 8 3 l 25
 8 10 l 25
 4 10 l 25
 4 14 l 25
 8 14 l 25
 8 21 l 25
 11 24 l 25
 16 24 l 29
EndSplineSet
EndChar

StartChar: braceright
Encoding: 125 125 78
Width: 20
VWidth: 0
Flags: HW
LayerCount: 2
Fore
SplineSet
4 0 m 29
 4 4 l 25
 8 4 l 25
 8 10 l 25
 10 12 l 25
 8 14 l 25
 8 20 l 25
 4 20 l 25
 4 24 l 25
 9 24 l 25
 12 21 l 25
 12 14 l 25
 16 14 l 25
 16 10 l 25
 12 10 l 25
 12 3 l 25
 9 0 l 25
 4 0 l 29
EndSplineSet
EndChar

StartChar: less
Encoding: 60 60 79
Width: 20
VWidth: 0
Flags: HW
LayerCount: 2
Fore
SplineSet
18 0 m 25
 14 0 l 25
 4 10 l 25
 4 14 l 25
 14 24 l 25
 18 24 l 25
 18 22 l 25
 8 12 l 25
 18 2 l 25
 18 0 l 25
EndSplineSet
EndChar

StartChar: greater
Encoding: 62 62 80
Width: 20
VWidth: 0
Flags: HW
LayerCount: 2
Fore
SplineSet
6 0 m 29
 2 0 l 25
 2 2 l 25
 12 12 l 25
 2 22 l 25
 2 24 l 25
 6 24 l 25
 16 14 l 25
 16 10 l 25
 6 0 l 29
EndSplineSet
EndChar

StartChar: numbersign
Encoding: 35 35 81
Width: 20
VWidth: 0
Flags: HW
LayerCount: 2
Fore
SplineSet
8 16 m 25
 8 8 l 25
 12 8 l 25
 12 16 l 25
 8 16 l 25
8 0 m 25
 4 0 l 25
 4 4 l 25
 2 4 l 25
 2 8 l 25
 4 8 l 25
 4 16 l 25
 2 16 l 25
 2 20 l 25
 4 20 l 25
 4 24 l 25
 8 24 l 25
 8 20 l 25
 12 20 l 25
 12 24 l 25
 16 24 l 25
 16 20 l 25
 18 20 l 25
 18 16 l 25
 16 16 l 25
 16 8 l 25
 18 8 l 25
 18 4 l 25
 16 4 l 25
 16 0 l 25
 12 0 l 25
 12 4 l 25
 8 4 l 25
 8 0 l 25
EndSplineSet
EndChar

StartChar: percent
Encoding: 37 37 82
Width: 20
VWidth: 0
Flags: HW
LayerCount: 2
Fore
SplineSet
18 2 m 25
 12 2 l 25
 12 8 l 25
 18 8 l 25
 18 2 l 25
2 22 m 25
 8 22 l 25
 8 16 l 25
 2 16 l 25
 2 22 l 25
2 5 m 25
 2 7 l 25
 14 19 l 25
 18 19 l 25
 18 17 l 25
 6 5 l 25
 2 5 l 25
EndSplineSet
EndChar

StartChar: ampersand
Encoding: 38 38 83
Width: 20
VWidth: 0
Flags: HW
LayerCount: 2
Fore
SplineSet
8 14 m 25
 11 11 l 25
 6 6 l 25
 6 4 l 25
 8 4 l 25
 14 10 l 25
 18 10 l 25
 18 8 l 25
 10 0 l 25
 5 0 l 25
 2 3 l 25
 2 8 l 25
 8 14 l 25
10 16 m 25
 10 18 l 25
 8 20 l 25
 6 18 l 25
 6 14 l 25
 7 13 l 25
 10 16 l 25
18 0 m 25
 14 0 l 25
 2 12 l 25
 2 20 l 25
 6 24 l 25
 10 24 l 25
 14 20 l 25
 14 14 l 25
 10 10 l 25
 18 2 l 25
 18 0 l 25
EndSplineSet
EndChar

StartChar: asciicircum
Encoding: 94 94 84
Width: 20
VWidth: 0
Flags: HW
LayerCount: 2
Fore
SplineSet
8 24 m 29
 12 24 l 25
 18 18 l 25
 18 16 l 25
 14 16 l 25
 10 20 l 25
 6 16 l 25
 2 16 l 25
 2 18 l 25
 8 24 l 29
EndSplineSet
EndChar

StartChar: dollar
Encoding: 36 36 85
Width: 20
VWidth: 0
Flags: HW
LayerCount: 2
Fore
SplineSet
8 24 m 29
 12 24 l 25
 12 0 l 25
 8 0 l 25
 8 24 l 29
2 4 m 25
 2 8 l 25
 14 8 l 25
 14 10 l 25
 5 10 l 25
 2 13 l 25
 2 17 l 25
 5 20 l 25
 18 20 l 25
 18 16 l 25
 6 16 l 25
 6 14 l 25
 15 14 l 25
 18 11 l 25
 18 7 l 25
 15 4 l 25
 2 4 l 25
EndSplineSet
EndChar

StartChar: at
Encoding: 64 64 86
Width: 20
VWidth: 0
Flags: HW
LayerCount: 2
Fore
SplineSet
14 14 m 29
 12 14 l 25
 12 10 l 25
 14 10 l 25
 14 14 l 29
16 4 m 25
 16 0 l 25
 6 0 l 25
 2 4 l 25
 2 20 l 25
 6 24 l 25
 14 24 l 25
 18 20 l 25
 18 9 l 17
 15 6 l 1
 11 6 l 9
 8 9 l 25
 8 15 l 25
 11 18 l 25
 14 18 l 25
 12 20 l 25
 8 20 l 25
 6 18 l 25
 6 6 l 25
 8 4 l 25
 16 4 l 25
EndSplineSet
EndChar

StartChar: asciitilde
Encoding: 126 126 87
Width: 20
VWidth: 0
Flags: HW
LayerCount: 2
Fore
SplineSet
2 9 m 25
 2 14 l 25
 5 17 l 25
 9 17 l 25
 12 14 l 25
 12 11 l 25
 14 11 l 25
 14 15 l 25
 18 15 l 25
 18 10 l 25
 15 7 l 25
 11 7 l 25
 8 10 l 25
 8 13 l 25
 6 13 l 25
 6 9 l 25
 2 9 l 25
EndSplineSet
EndChar

StartChar: quotesingle
Encoding: 39 39 88
Width: 20
VWidth: 0
Flags: HW
LayerCount: 2
Fore
SplineSet
9 18 m 9
 7 18 l 25
 7 24 l 25
 13 24 l 25
 13 15 l 25
 10 12 l 25
 7 12 l 25
 7 14 l 17
 9 16 l 1
 9 18 l 9
EndSplineSet
EndChar

StartChar: quotedbl
Encoding: 34 34 89
Width: 20
VWidth: 0
Flags: HW
LayerCount: 2
Fore
SplineSet
14 18 m 9
 12 18 l 25
 12 24 l 25
 18 24 l 25
 18 15 l 25
 15 12 l 25
 12 12 l 25
 12 14 l 17
 14 16 l 1
 14 18 l 9
4 18 m 9
 2 18 l 25
 2 24 l 25
 8 24 l 25
 8 15 l 25
 5 12 l 25
 2 12 l 25
 2 14 l 17
 4 16 l 1
 4 18 l 9
EndSplineSet
EndChar

StartChar: grave
Encoding: 96 96 90
Width: 20
VWidth: 0
Flags: HW
LayerCount: 2
Fore
SplineSet
11 18 m 13
 13 18 l 29
 13 12 l 29
 7 12 l 29
 7 21 l 29
 10 24 l 29
 13 24 l 29
 13 22 l 21
 11 20 l 5
 11 18 l 13
EndSplineSet
EndChar

StartChar: exclam
Encoding: 33 33 91
Width: 20
VWidth: 0
Flags: HW
LayerCount: 2
Fore
SplineSet
12 8 m 25
 8 8 l 25
 8 24 l 25
 12 24 l 25
 12 8 l 25
8 0 m 25
 8 4 l 25
 12 4 l 25
 12 0 l 25
 8 0 l 25
EndSplineSet
EndChar

StartChar: question
Encoding: 63 63 92
Width: 20
VWidth: 0
Flags: HW
LayerCount: 2
Fore
SplineSet
2 20 m 29
 6 24 l 25
 14 24 l 25
 18 20 l 25
 18 14 l 25
 12 8 l 25
 8 8 l 25
 8 10 l 25
 14 16 l 25
 14 18 l 25
 12 20 l 25
 8 20 l 25
 6 18 l 25
 6 16 l 25
 2 16 l 25
 2 20 l 29
8 0 m 25
 8 4 l 25
 12 4 l 25
 12 0 l 25
 8 0 l 25
EndSplineSet
EndChar

StartChar: backslash
Encoding: 92 92 93
Width: 20
VWidth: 0
Flags: HW
LayerCount: 2
Fore
SplineSet
18 0 m 29
 14 0 l 29
 2 22 l 25
 2 24 l 25
 6 24 l 25
 18 2 l 29
 18 0 l 29
EndSplineSet
EndChar

StartChar: semicolon
Encoding: 59 59 94
Width: 20
VWidth: 0
Flags: HW
LayerCount: 2
Fore
SplineSet
9 2 m 13
 7 2 l 29
 7 8 l 29
 13 8 l 29
 13 -1 l 29
 10 -4 l 29
 7 -4 l 29
 7 -2 l 21
 9 0 l 5
 9 2 l 13
13 20 m 25
 13 14 l 25
 7 14 l 25
 7 20 l 25
 13 20 l 25
EndSplineSet
EndChar

StartChar: uni0000
Encoding: 0 0 95
Width: 20
VWidth: 0
Flags: HW
LayerCount: 2
Fore
SplineSet
0 -4 m 29
 0 28 l 25
 20 28 l 25
 20 -4 l 25
 0 -4 l 29
2 20 m 25
 2 16 l 25
 6 16 l 25
 6 18 l 25
 8 20 l 25
 12 20 l 25
 14 18 l 25
 14 16 l 25
 8 10 l 25
 8 8 l 25
 12 8 l 25
 18 14 l 25
 18 20 l 25
 14 24 l 25
 6 24 l 25
 2 20 l 25
8 0 m 25
 12 0 l 25
 12 4 l 25
 8 4 l 25
 8 0 l 25
EndSplineSet
EndChar

StartChar: exclamdown
Encoding: 161 161 97
Width: 20
VWidth: 0
Flags: HW
LayerCount: 2
Fore
SplineSet
8 8 m 29
 12 8 l 29
 12 -8 l 29
 8 -8 l 29
 8 8 l 29
12 16 m 29
 12 12 l 29
 8 12 l 29
 8 16 l 29
 12 16 l 29
EndSplineSet
EndChar

StartChar: questiondown
Encoding: 191 191 98
Width: 20
VWidth: 0
Flags: HW
LayerCount: 2
Fore
SplineSet
18 -4 m 25
 14 -8 l 25
 6 -8 l 25
 2 -4 l 25
 2 2 l 25
 8 8 l 25
 12 8 l 25
 12 6 l 25
 6 0 l 25
 6 -2 l 25
 8 -4 l 25
 12 -4 l 25
 14 -2 l 25
 14 0 l 25
 18 0 l 25
 18 -4 l 25
12 16 m 25
 12 12 l 25
 8 12 l 25
 8 16 l 25
 12 16 l 25
EndSplineSet
EndChar

StartChar: brokenbar
Encoding: 166 166 99
Width: 20
VWidth: 0
Flags: HW
LayerCount: 2
Fore
SplineSet
8 10 m 25
 12 10 l 25
 12 0 l 25
 8 0 l 25
 8 10 l 25
8 24 m 25
 12 24 l 25
 12 14 l 25
 8 14 l 25
 8 24 l 25
EndSplineSet
EndChar

StartChar: cent
Encoding: 162 162 100
Width: 20
VWidth: 0
Flags: HW
LayerCount: 2
Fore
SplineSet
8 24 m 29
 12 24 l 25
 12 0 l 25
 8 0 l 25
 8 24 l 29
6 4 m 25
 2 8 l 25
 2 16 l 25
 6 20 l 25
 14 20 l 25
 18 16 l 25
 18 14 l 25
 14 14 l 25
 12 16 l 25
 8 16 l 25
 6 14 l 25
 6 10 l 25
 8 8 l 25
 12 8 l 25
 14 10 l 25
 18 10 l 25
 18 8 l 25
 14 4 l 25
 6 4 l 25
EndSplineSet
EndChar

StartChar: plusminus
Encoding: 177 177 101
Width: 20
VWidth: 0
Flags: HW
LayerCount: 2
Fore
SplineSet
2 4 m 25
 18 4 l 25
 18 0 l 25
 2 0 l 25
 2 4 l 25
2 14 m 25
 2 18 l 25
 8 18 l 25
 8 24 l 25
 12 24 l 25
 12 18 l 25
 18 18 l 25
 18 14 l 25
 12 14 l 25
 12 8 l 25
 8 8 l 25
 8 14 l 25
 2 14 l 25
EndSplineSet
EndChar

StartChar: macron
Encoding: 175 175 102
Width: 20
VWidth: 0
Flags: H
LayerCount: 2
Fore
SplineSet
2 24 m 29
 2 28 l 25
 18 28 l 25
 18 24 l 25
 2 24 l 29
EndSplineSet
EndChar

StartChar: paragraph
Encoding: 182 182 103
Width: 20
VWidth: 0
Flags: H
LayerCount: 2
Fore
SplineSet
18 24 m 29
 18 0 l 25
 14 0 l 25
 14 20 l 25
 12 20 l 25
 12 0 l 25
 8 0 l 25
 8 10 l 25
 6 10 l 25
 2 14 l 25
 2 20 l 25
 6 24 l 25
 18 24 l 29
EndSplineSet
EndChar

StartChar: yacute
Encoding: 253 253 104
Width: 20
VWidth: 0
Flags: HW
LayerCount: 2
Fore
SplineSet
12 18 m 29
 8 18 l 29
 8 20 l 29
 12 24 l 29
 16 24 l 29
 16 22 l 29
 12 18 l 29
EndSplineSet
Refer: 49 121 N 1 0 0 1 0 0 2
EndChar

StartChar: ydieresis
Encoding: 255 255 105
Width: 20
VWidth: 0
Flags: HW
LayerCount: 2
Fore
SplineSet
8 22 m 29
 8 18 l 29
 4 18 l 29
 4 22 l 29
 8 22 l 29
12 18 m 29
 12 22 l 29
 16 22 l 29
 16 18 l 29
 12 18 l 29
EndSplineSet
Refer: 49 121 N 1 0 0 1 0 0 2
EndChar

StartChar: egrave
Encoding: 232 232 106
Width: 20
VWidth: 0
Flags: HW
LayerCount: 2
Fore
SplineSet
12 18 m 29
 8 18 l 29
 4 22 l 29
 4 24 l 29
 8 24 l 29
 12 20 l 29
 12 18 l 29
EndSplineSet
Refer: 14 101 N 1 0 0 1 0 0 2
EndChar

StartChar: eacute
Encoding: 233 233 107
Width: 20
VWidth: 0
Flags: HW
LayerCount: 2
Fore
SplineSet
12 18 m 29
 8 18 l 29
 8 20 l 29
 12 24 l 29
 16 24 l 29
 16 22 l 29
 12 18 l 29
EndSplineSet
Refer: 14 101 N 1 0 0 1 0 0 2
EndChar

StartChar: ecircumflex
Encoding: 234 234 108
Width: 20
VWidth: 0
Flags: HW
LayerCount: 2
Fore
SplineSet
10 20 m 29
 8 18 l 29
 4 18 l 29
 4 20 l 29
 8 24 l 29
 12 24 l 29
 16 20 l 29
 16 18 l 29
 12 18 l 29
 10 20 l 29
EndSplineSet
Refer: 14 101 N 1 0 0 1 0 0 2
EndChar

StartChar: edieresis
Encoding: 235 235 109
Width: 20
VWidth: 0
Flags: HW
LayerCount: 2
Fore
SplineSet
8 22 m 29
 8 18 l 29
 4 18 l 29
 4 22 l 29
 8 22 l 29
12 18 m 29
 12 22 l 29
 16 22 l 29
 16 18 l 29
 12 18 l 29
EndSplineSet
Refer: 14 101 N 1 0 0 1 0 0 2
EndChar

StartChar: thorn
Encoding: 254 254 110
Width: 20
VWidth: 0
Flags: HW
LayerCount: 2
Fore
SplineSet
6 4 m 25
 12 4 l 25
 14 6 l 25
 14 10 l 25
 12 12 l 25
 10 12 l 25
 6 8 l 25
 6 4 l 25
2 24 m 25
 6 24 l 25
 6 14 l 25
 8 16 l 25
 14 16 l 25
 18 12 l 25
 18 4 l 25
 14 0 l 17
 6 0 l 1
 6 -6 l 1
 2 -6 l 13
 2 24 l 25
EndSplineSet
EndChar

StartChar: agrave
Encoding: 224 224 111
Width: 20
VWidth: 0
Flags: HW
LayerCount: 2
Fore
SplineSet
12 18 m 29
 8 18 l 29
 4 22 l 29
 4 24 l 29
 8 24 l 29
 12 20 l 29
 12 18 l 29
EndSplineSet
Refer: 15 97 N 1 0 0 1 0 0 2
EndChar

StartChar: aacute
Encoding: 225 225 112
Width: 20
VWidth: 0
Flags: HW
LayerCount: 2
Fore
SplineSet
12 18 m 29
 8 18 l 29
 8 20 l 29
 12 24 l 29
 16 24 l 29
 16 22 l 29
 12 18 l 29
EndSplineSet
Refer: 15 97 N 1 0 0 1 0 0 2
EndChar

StartChar: acircumflex
Encoding: 226 226 113
Width: 20
VWidth: 0
Flags: HW
LayerCount: 2
Fore
SplineSet
10 20 m 29
 8 18 l 29
 4 18 l 29
 4 20 l 29
 8 24 l 29
 12 24 l 29
 16 20 l 29
 16 18 l 29
 12 18 l 29
 10 20 l 29
EndSplineSet
Refer: 15 97 N 1 0 0 1 0 0 2
EndChar

StartChar: atilde
Encoding: 227 227 114
Width: 20
VWidth: 0
Flags: HW
LayerCount: 2
Fore
SplineSet
10 24 m 29
 12 22 l 29
 14 22 l 29
 14 24 l 29
 18 24 l 29
 18 21 l 29
 15 18 l 29
 10 18 l 29
 8 20 l 29
 6 20 l 29
 6 18 l 29
 2 18 l 29
 2 21 l 29
 5 24 l 29
 10 24 l 29
EndSplineSet
Refer: 15 97 N 1 0 0 1 0 0 2
EndChar

StartChar: adieresis
Encoding: 228 228 115
Width: 20
VWidth: 0
Flags: HW
LayerCount: 2
Fore
SplineSet
8 22 m 29
 8 18 l 29
 4 18 l 29
 4 22 l 29
 8 22 l 29
12 18 m 29
 12 22 l 29
 16 22 l 29
 16 18 l 29
 12 18 l 29
EndSplineSet
Refer: 15 97 N 1 0 0 1 0 0 2
EndChar

StartChar: aring
Encoding: 229 229 116
Width: 20
VWidth: 0
Flags: HW
LayerCount: 2
Fore
SplineSet
8 24 m 29
 12 24 l 29
 14 22 l 29
 14 20 l 29
 12 18 l 29
 8 18 l 29
 6 20 l 29
 6 22 l 29
 8 24 l 29
EndSplineSet
Refer: 15 97 N 1 0 0 1 0 0 2
EndChar

StartChar: ntilde
Encoding: 241 241 117
Width: 20
VWidth: 0
Flags: HW
LayerCount: 2
Fore
SplineSet
10 24 m 29
 12 22 l 29
 14 22 l 29
 14 24 l 29
 18 24 l 29
 18 21 l 29
 15 18 l 29
 10 18 l 29
 8 20 l 29
 6 20 l 29
 6 18 l 29
 2 18 l 29
 2 21 l 29
 5 24 l 29
 10 24 l 29
EndSplineSet
Refer: 4 110 N 1 0 0 1 0 0 2
EndChar

StartChar: ograve
Encoding: 242 242 118
Width: 20
VWidth: 0
Flags: HW
LayerCount: 2
Fore
SplineSet
12 18 m 29
 8 18 l 29
 4 22 l 29
 4 24 l 29
 8 24 l 29
 12 20 l 29
 12 18 l 29
EndSplineSet
Refer: 2 111 N 1 0 0 1 0 0 2
EndChar

StartChar: oacute
Encoding: 243 243 119
Width: 20
VWidth: 0
Flags: HW
LayerCount: 2
Fore
SplineSet
12 18 m 29
 8 18 l 29
 8 20 l 29
 12 24 l 29
 16 24 l 29
 16 22 l 29
 12 18 l 29
EndSplineSet
Refer: 2 111 N 1 0 0 1 0 0 2
EndChar

StartChar: ocircumflex
Encoding: 244 244 120
Width: 20
VWidth: 0
Flags: HW
LayerCount: 2
Fore
SplineSet
10 20 m 29
 8 18 l 29
 4 18 l 29
 4 20 l 29
 8 24 l 29
 12 24 l 29
 16 20 l 29
 16 18 l 29
 12 18 l 29
 10 20 l 29
EndSplineSet
Refer: 2 111 N 1 0 0 1 0 0 2
EndChar

StartChar: otilde
Encoding: 245 245 121
Width: 20
VWidth: 0
Flags: HW
LayerCount: 2
Fore
SplineSet
10 24 m 29
 12 22 l 29
 14 22 l 29
 14 24 l 29
 18 24 l 29
 18 21 l 29
 15 18 l 29
 10 18 l 29
 8 20 l 29
 6 20 l 29
 6 18 l 29
 2 18 l 29
 2 21 l 29
 5 24 l 29
 10 24 l 29
EndSplineSet
Refer: 2 111 N 1 0 0 1 0 0 2
EndChar

StartChar: odieresis
Encoding: 246 246 122
Width: 20
VWidth: 0
Flags: HW
LayerCount: 2
Fore
SplineSet
8 22 m 29
 8 18 l 29
 4 18 l 29
 4 22 l 29
 8 22 l 29
12 18 m 29
 12 22 l 29
 16 22 l 29
 16 18 l 29
 12 18 l 29
EndSplineSet
Refer: 2 111 N 1 0 0 1 0 0 2
EndChar

StartChar: ugrave
Encoding: 249 249 123
Width: 20
VWidth: 0
Flags: HW
LayerCount: 2
Fore
SplineSet
12 18 m 29
 8 18 l 29
 4 22 l 29
 4 24 l 29
 8 24 l 29
 12 20 l 29
 12 18 l 29
EndSplineSet
Refer: 43 117 N 1 0 0 1 0 0 2
EndChar

StartChar: uacute
Encoding: 250 250 124
Width: 20
VWidth: 0
Flags: HW
LayerCount: 2
Fore
SplineSet
12 18 m 29
 8 18 l 29
 8 20 l 29
 12 24 l 29
 16 24 l 29
 16 22 l 29
 12 18 l 29
EndSplineSet
Refer: 43 117 N 1 0 0 1 0 0 2
EndChar

StartChar: ucircumflex
Encoding: 251 251 125
Width: 20
VWidth: 0
Flags: HW
LayerCount: 2
Fore
SplineSet
10 20 m 29
 8 18 l 29
 4 18 l 29
 4 20 l 29
 8 24 l 29
 12 24 l 29
 16 20 l 29
 16 18 l 29
 12 18 l 29
 10 20 l 29
EndSplineSet
Refer: 43 117 N 1 0 0 1 0 0 2
EndChar

StartChar: udieresis
Encoding: 252 252 126
Width: 20
VWidth: 0
Flags: HW
LayerCount: 2
Fore
SplineSet
8 22 m 29
 8 18 l 29
 4 18 l 29
 4 22 l 29
 8 22 l 29
12 18 m 29
 12 22 l 29
 16 22 l 29
 16 18 l 29
 12 18 l 29
EndSplineSet
Refer: 43 117 N 1 0 0 1 0 0 2
EndChar

StartChar: divide
Encoding: 247 247 127
Width: 20
VWidth: 0
Flags: HW
LayerCount: 2
Fore
SplineSet
8 8 m 29
 12 8 l 25
 12 4 l 25
 8 4 l 25
 8 8 l 29
8 16 m 25
 8 20 l 25
 12 20 l 25
 12 16 l 25
 8 16 l 25
2 14 m 25
 18 14 l 25
 18 10 l 25
 2 10 l 25
 2 14 l 25
EndSplineSet
EndChar

StartChar: AE
Encoding: 198 198 128
Width: 20
VWidth: 0
Flags: H
LayerCount: 2
Fore
SplineSet
6 14 m 29
 8 14 l 25
 8 20 l 25
 6 20 l 25
 6 14 l 29
2 0 m 25
 2 21 l 25
 5 24 l 25
 18 24 l 25
 18 20 l 25
 12 20 l 25
 12 14 l 25
 16 14 l 25
 16 10 l 25
 12 10 l 25
 12 4 l 25
 18 4 l 25
 18 0 l 25
 8 0 l 25
 8 10 l 25
 6 10 l 25
 6 0 l 25
 2 0 l 25
EndSplineSet
EndChar

StartChar: ae
Encoding: 230 230 129
Width: 20
VWidth: 0
Flags: H
LayerCount: 2
Fore
SplineSet
12 12 m 29
 12 10 l 25
 14 10 l 25
 14 12 l 25
 12 12 l 29
8 6 m 25
 6 6 l 25
 6 4 l 25
 8 4 l 25
 8 6 l 25
5 0 m 25
 2 3 l 25
 2 7 l 25
 5 10 l 25
 8 10 l 25
 8 12 l 25
 4 12 l 25
 4 16 l 25
 15 16 l 25
 18 13 l 25
 18 6 l 25
 12 6 l 25
 12 4 l 25
 16 4 l 25
 16 0 l 25
 5 0 l 25
EndSplineSet
EndChar

StartChar: Egrave
Encoding: 200 200 130
Width: 20
VWidth: 0
Flags: HW
LayerCount: 2
Fore
SplineSet
12 26 m 29
 8 26 l 29
 4 30 l 29
 4 32 l 29
 8 32 l 29
 12 28 l 29
 12 26 l 29
EndSplineSet
Refer: 6 69 N 1 0 0 1 0 0 2
EndChar

StartChar: Eacute
Encoding: 201 201 131
Width: 20
VWidth: 0
Flags: HW
LayerCount: 2
Fore
SplineSet
12 26 m 29
 8 26 l 29
 8 28 l 29
 12 32 l 29
 16 32 l 29
 16 30 l 29
 12 26 l 29
EndSplineSet
Refer: 6 69 N 1 0 0 1 0 0 2
EndChar

StartChar: Ecircumflex
Encoding: 202 202 132
Width: 20
VWidth: 0
Flags: HW
LayerCount: 2
Fore
SplineSet
10 28 m 29
 8 26 l 29
 4 26 l 29
 4 28 l 29
 8 32 l 29
 12 32 l 29
 16 28 l 29
 16 26 l 29
 12 26 l 29
 10 28 l 29
EndSplineSet
Refer: 6 69 N 1 0 0 1 0 0 2
EndChar

StartChar: Edieresis
Encoding: 203 203 133
Width: 20
VWidth: 0
Flags: HW
LayerCount: 2
Fore
SplineSet
8 30 m 29
 8 26 l 29
 4 26 l 29
 4 30 l 29
 8 30 l 29
12 26 m 29
 12 30 l 29
 16 30 l 29
 16 26 l 29
 12 26 l 29
EndSplineSet
Refer: 6 69 N 1 0 0 1 0 0 2
EndChar

StartChar: Igrave
Encoding: 204 204 134
Width: 20
VWidth: 0
Flags: HW
LayerCount: 2
Fore
SplineSet
12 26 m 29
 8 26 l 29
 4 30 l 29
 4 32 l 29
 8 32 l 29
 12 28 l 29
 12 26 l 29
EndSplineSet
Refer: 10 73 N 1 0 0 1 0 0 2
EndChar

StartChar: Iacute
Encoding: 205 205 135
Width: 20
VWidth: 0
Flags: HW
LayerCount: 2
Fore
SplineSet
12 26 m 29
 8 26 l 29
 8 28 l 29
 12 32 l 29
 16 32 l 29
 16 30 l 29
 12 26 l 29
EndSplineSet
Refer: 10 73 N 1 0 0 1 0 0 2
EndChar

StartChar: Icircumflex
Encoding: 206 206 136
Width: 20
VWidth: 0
Flags: HW
LayerCount: 2
Fore
SplineSet
10 28 m 25
 8 26 l 25
 4 26 l 25
 4 28 l 25
 8 32 l 25
 12 32 l 25
 16 28 l 25
 16 26 l 25
 12 26 l 25
 10 28 l 25
EndSplineSet
Refer: 10 73 N 1 0 0 1 0 0 2
EndChar

StartChar: Idieresis
Encoding: 207 207 137
Width: 20
VWidth: 0
Flags: HW
LayerCount: 2
Fore
SplineSet
8 30 m 29
 8 26 l 29
 4 26 l 29
 4 30 l 29
 8 30 l 29
12 26 m 29
 12 30 l 29
 16 30 l 29
 16 26 l 29
 12 26 l 29
EndSplineSet
Refer: 10 73 N 1 0 0 1 0 0 2
EndChar

StartChar: Agrave
Encoding: 192 192 138
Width: 20
VWidth: 0
Flags: HW
LayerCount: 2
Fore
SplineSet
12 26 m 29
 8 26 l 29
 4 30 l 29
 4 32 l 29
 8 32 l 29
 12 28 l 29
 12 26 l 29
EndSplineSet
Refer: 32 65 N 1 0 0 1 0 0 2
EndChar

StartChar: Aacute
Encoding: 193 193 139
Width: 20
VWidth: 0
Flags: HW
LayerCount: 2
Fore
SplineSet
12 26 m 29
 8 26 l 29
 8 28 l 29
 12 32 l 29
 16 32 l 29
 16 30 l 29
 12 26 l 29
EndSplineSet
Refer: 32 65 N 1 0 0 1 0 0 2
EndChar

StartChar: Acircumflex
Encoding: 194 194 140
Width: 20
VWidth: 0
Flags: HW
LayerCount: 2
Fore
SplineSet
10 28 m 29
 8 26 l 29
 4 26 l 29
 4 28 l 29
 8 32 l 29
 12 32 l 29
 16 28 l 29
 16 26 l 29
 12 26 l 29
 10 28 l 29
EndSplineSet
Refer: 32 65 N 1 0 0 1 0 0 2
EndChar

StartChar: Atilde
Encoding: 195 195 141
Width: 20
VWidth: 0
Flags: HW
LayerCount: 2
Fore
SplineSet
10 32 m 29
 12 30 l 29
 14 30 l 29
 14 32 l 29
 18 32 l 29
 18 29 l 29
 15 26 l 29
 10 26 l 29
 8 28 l 29
 6 28 l 29
 6 26 l 29
 2 26 l 29
 2 29 l 29
 5 32 l 29
 10 32 l 29
EndSplineSet
Refer: 32 65 N 1 0 0 1 0 0 2
EndChar

StartChar: Adieresis
Encoding: 196 196 142
Width: 20
VWidth: 0
Flags: HW
LayerCount: 2
Fore
SplineSet
8 30 m 29
 8 26 l 29
 4 26 l 29
 4 30 l 29
 8 30 l 29
12 26 m 29
 12 30 l 29
 16 30 l 29
 16 26 l 29
 12 26 l 29
EndSplineSet
Refer: 32 65 N 1 0 0 1 0 0 2
EndChar

StartChar: Aring
Encoding: 197 197 143
Width: 20
VWidth: 0
Flags: HW
LayerCount: 2
Fore
SplineSet
8 32 m 29
 12 32 l 29
 14 30 l 29
 14 28 l 29
 12 26 l 29
 8 26 l 29
 6 28 l 29
 6 30 l 29
 8 32 l 29
EndSplineSet
Refer: 32 65 N 1 0 0 1 0 0 2
EndChar

StartChar: Ograve
Encoding: 210 210 144
Width: 20
VWidth: 0
Flags: HW
LayerCount: 2
Fore
SplineSet
12 26 m 29
 8 26 l 29
 4 30 l 29
 4 32 l 29
 8 32 l 29
 12 28 l 29
 12 26 l 29
EndSplineSet
Refer: 0 79 N 1 0 0 1 0 0 2
EndChar

StartChar: Oacute
Encoding: 211 211 145
Width: 20
VWidth: 0
Flags: HW
LayerCount: 2
Fore
SplineSet
12 26 m 29
 8 26 l 29
 8 28 l 29
 12 32 l 29
 16 32 l 29
 16 30 l 29
 12 26 l 29
EndSplineSet
Refer: 0 79 N 1 0 0 1 0 0 2
EndChar

StartChar: Ocircumflex
Encoding: 212 212 146
Width: 20
VWidth: 0
Flags: HW
LayerCount: 2
Fore
SplineSet
10 28 m 29
 8 26 l 29
 4 26 l 29
 4 28 l 29
 8 32 l 29
 12 32 l 29
 16 28 l 29
 16 26 l 29
 12 26 l 29
 10 28 l 29
EndSplineSet
Refer: 0 79 N 1 0 0 1 0 0 2
EndChar

StartChar: Otilde
Encoding: 213 213 147
Width: 20
VWidth: 0
Flags: HW
LayerCount: 2
Fore
SplineSet
10 32 m 29
 12 30 l 29
 14 30 l 29
 14 32 l 29
 18 32 l 29
 18 29 l 29
 15 26 l 29
 10 26 l 29
 8 28 l 29
 6 28 l 29
 6 26 l 29
 2 26 l 29
 2 29 l 29
 5 32 l 29
 10 32 l 29
EndSplineSet
Refer: 0 79 N 1 0 0 1 0 0 2
EndChar

StartChar: Odieresis
Encoding: 214 214 148
Width: 20
VWidth: 0
Flags: HW
LayerCount: 2
Fore
SplineSet
8 30 m 29
 8 26 l 29
 4 26 l 29
 4 30 l 29
 8 30 l 29
12 26 m 29
 12 30 l 29
 16 30 l 29
 16 26 l 29
 12 26 l 29
EndSplineSet
Refer: 0 79 N 1 0 0 1 0 0 2
EndChar

StartChar: Ntilde
Encoding: 209 209 149
Width: 20
VWidth: 0
Flags: HW
LayerCount: 2
Fore
SplineSet
10 32 m 29
 12 30 l 29
 14 30 l 29
 14 32 l 29
 18 32 l 29
 18 29 l 29
 15 26 l 29
 10 26 l 29
 8 28 l 29
 6 28 l 29
 6 26 l 29
 2 26 l 29
 2 29 l 29
 5 32 l 29
 10 32 l 29
EndSplineSet
Refer: 30 78 N 1 0 0 1 0 0 2
EndChar

StartChar: Ugrave
Encoding: 217 217 150
Width: 20
VWidth: 0
Flags: HW
LayerCount: 2
Fore
SplineSet
12 26 m 29
 8 26 l 29
 4 30 l 29
 4 32 l 29
 8 32 l 29
 12 28 l 29
 12 26 l 29
EndSplineSet
Refer: 20 85 N 1 0 0 1 0 0 2
EndChar

StartChar: Uacute
Encoding: 218 218 151
Width: 20
VWidth: 0
Flags: HW
LayerCount: 2
Fore
SplineSet
12 26 m 29
 8 26 l 29
 8 28 l 29
 12 32 l 29
 16 32 l 29
 16 30 l 29
 12 26 l 29
EndSplineSet
Refer: 20 85 N 1 0 0 1 0 0 2
EndChar

StartChar: Ucircumflex
Encoding: 219 219 152
Width: 20
VWidth: 0
Flags: HW
LayerCount: 2
Fore
SplineSet
10 28 m 29
 8 26 l 29
 4 26 l 29
 4 28 l 29
 8 32 l 29
 12 32 l 29
 16 28 l 29
 16 26 l 29
 12 26 l 29
 10 28 l 29
EndSplineSet
Refer: 20 85 N 1 0 0 1 0 0 2
EndChar

StartChar: Udieresis
Encoding: 220 220 153
Width: 20
VWidth: 0
Flags: HW
LayerCount: 2
Fore
SplineSet
8 30 m 29
 8 26 l 29
 4 26 l 29
 4 30 l 29
 8 30 l 29
12 26 m 29
 12 30 l 29
 16 30 l 29
 16 26 l 29
 12 26 l 29
EndSplineSet
Refer: 20 85 N 1 0 0 1 0 0 2
EndChar

StartChar: Yacute
Encoding: 221 221 154
Width: 20
VWidth: 0
Flags: HW
LayerCount: 2
Fore
SplineSet
12 26 m 29
 8 26 l 29
 8 28 l 29
 12 32 l 29
 16 32 l 29
 16 30 l 29
 12 26 l 29
EndSplineSet
Refer: 38 89 N 1 0 0 1 0 0 2
EndChar

StartChar: degree
Encoding: 176 176 155
Width: 20
VWidth: 0
Flags: H
LayerCount: 2
Fore
SplineSet
9 20 m 25
 9 18 l 25
 11 18 l 25
 11 20 l 25
 9 20 l 25
5 21 m 25
 8 24 l 25
 12 24 l 25
 15 21 l 25
 15 17 l 25
 12 14 l 25
 8 14 l 25
 5 17 l 25
 5 21 l 25
EndSplineSet
EndChar

StartChar: guillemotleft
Encoding: 171 171 156
Width: 20
VWidth: 0
Flags: HW
LayerCount: 2
Fore
SplineSet
18 6 m 25
 14 6 l 25
 10 10 l 25
 10 14 l 25
 14 18 l 25
 18 18 l 25
 18 16 l 25
 14 12 l 25
 18 8 l 25
 18 6 l 25
10 6 m 25
 6 6 l 25
 2 10 l 25
 2 14 l 25
 6 18 l 25
 10 18 l 25
 10 16 l 25
 6 12 l 25
 10 8 l 25
 10 6 l 25
EndSplineSet
EndChar

StartChar: guillemotright
Encoding: 187 187 157
Width: 20
VWidth: 0
Flags: HW
LayerCount: 2
Fore
SplineSet
6 6 m 25
 2 6 l 25
 2 8 l 25
 6 12 l 25
 2 16 l 25
 2 18 l 25
 6 18 l 25
 10 14 l 25
 10 10 l 25
 6 6 l 25
14 6 m 25
 10 6 l 25
 10 8 l 25
 14 12 l 25
 10 16 l 25
 10 18 l 25
 14 18 l 25
 18 14 l 25
 18 10 l 25
 14 6 l 25
EndSplineSet
EndChar

StartChar: periodcentered
Encoding: 183 183 158
Width: 20
VWidth: 0
Flags: H
LayerCount: 2
Fore
SplineSet
7 15 m 29
 13 15 l 25
 13 9 l 25
 7 9 l 25
 7 15 l 29
EndSplineSet
EndChar

StartChar: multiply
Encoding: 215 215 159
Width: 20
VWidth: 0
Flags: H
LayerCount: 2
Fore
SplineSet
7 12 m 25
 2 17 l 25
 2 19 l 25
 6 19 l 25
 10 15 l 25
 14 19 l 25
 18 19 l 25
 18 17 l 25
 13 12 l 25
 18 7 l 25
 18 5 l 25
 14 5 l 25
 10 9 l 25
 6 5 l 25
 2 5 l 25
 2 7 l 25
 7 12 l 25
EndSplineSet
EndChar

StartChar: copyright
Encoding: 169 169 161
Width: 20
VWidth: 0
Flags: H
LayerCount: 2
Fore
SplineSet
14 10 m 29
 14 14 l 25
 10 14 l 25
 10 10 l 25
 14 10 l 29
6 6 m 25
 8 4 l 25
 12 4 l 25
 14 6 l 25
 8 6 l 25
 6 8 l 25
 6 6 l 25
12 20 m 25
 8 20 l 25
 6 18 l 25
 6 16 l 25
 8 18 l 25
 14 18 l 25
 12 20 l 25
6 0 m 25
 2 4 l 25
 2 20 l 25
 6 24 l 25
 14 24 l 25
 18 20 l 25
 18 4 l 25
 14 0 l 25
 6 0 l 25
EndSplineSet
EndChar

StartChar: registered
Encoding: 174 174 162
Width: 20
VWidth: 0
Flags: H
LayerCount: 2
Fore
SplineSet
14 12 m 29
 12 12 l 25
 14 10 l 25
 14 12 l 29
6 6 m 25
 8 4 l 25
 12 4 l 25
 14 6 l 25
 6 6 l 25
6 18 m 25
 12 18 l 25
 14 16 l 25
 14 18 l 25
 12 20 l 25
 8 20 l 25
 6 18 l 25
6 24 m 25
 14 24 l 25
 18 20 l 25
 18 4 l 25
 14 0 l 25
 6 0 l 25
 2 4 l 25
 2 20 l 25
 6 24 l 25
EndSplineSet
EndChar

StartChar: sterling
Encoding: 163 163 163
Width: 20
VWidth: 0
Flags: HW
LayerCount: 2
Fore
SplineSet
18 24 m 25
 18 20 l 25
 12 20 l 25
 10 18 l 25
 10 14 l 25
 14 14 l 25
 14 10 l 25
 10 10 l 17
 10 4 l 1
 18 4 l 5
 18 0 l 9
 2 0 l 17
 2 4 l 1
 6 4 l 1
 6 10 l 9
 2 10 l 25
 2 14 l 25
 6 14 l 25
 6 20 l 25
 10 24 l 25
 18 24 l 25
EndSplineSet
EndChar

StartChar: germandbls
Encoding: 223 223 165
Width: 20
VWidth: 0
Flags: H
LayerCount: 2
Fore
SplineSet
2 0 m 29
 2 20 l 25
 6 24 l 25
 14 24 l 25
 18 20 l 25
 18 14 l 25
 16 12 l 25
 18 10 l 25
 18 4 l 25
 14 0 l 25
 8 0 l 25
 8 4 l 25
 12 4 l 25
 14 6 l 25
 14 8 l 25
 12 10 l 25
 8 10 l 25
 8 14 l 25
 12 14 l 25
 14 16 l 25
 14 18 l 25
 12 20 l 25
 8 20 l 25
 6 18 l 25
 6 0 l 25
 2 0 l 29
EndSplineSet
EndChar

StartChar: Thorn
Encoding: 222 222 166
Width: 20
VWidth: 0
Flags: H
LayerCount: 2
Fore
SplineSet
6 8 m 29
 12 8 l 25
 14 10 l 25
 14 14 l 25
 12 16 l 25
 6 16 l 25
 6 8 l 29
2 0 m 25
 2 24 l 25
 6 24 l 25
 6 20 l 25
 14 20 l 25
 18 16 l 25
 18 8 l 25
 14 4 l 25
 6 4 l 25
 6 0 l 25
 2 0 l 25
EndSplineSet
EndChar

StartChar: logicalnot
Encoding: 172 172 167
Width: 20
VWidth: 0
Flags: H
LayerCount: 2
Fore
SplineSet
2 14 m 29
 2 18 l 29
 18 18 l 29
 18 6 l 25
 14 6 l 25
 14 14 l 29
 2 14 l 29
EndSplineSet
EndChar

StartChar: dieresis
Encoding: 168 168 168
Width: 20
VWidth: 0
Flags: HW
LayerCount: 2
Fore
SplineSet
8 24 m 29
 8 20 l 29
 4 20 l 29
 4 24 l 29
 8 24 l 29
12 20 m 29
 12 24 l 29
 16 24 l 29
 16 20 l 29
 12 20 l 29
EndSplineSet
EndChar

StartChar: yen
Encoding: 165 165 169
Width: 20
VWidth: 0
Flags: HW
LayerCount: 2
Fore
SplineSet
2 24 m 25
 6 24 l 25
 6 22 l 25
 10 18 l 25
 14 22 l 25
 14 24 l 25
 18 24 l 25
 18 20 l 25
 12 14 l 25
 18 14 l 25
 18 10 l 25
 12 10 l 25
 12 8 l 25
 18 8 l 25
 18 4 l 25
 12 4 l 25
 12 0 l 25
 8 0 l 25
 8 4 l 25
 2 4 l 25
 2 8 l 25
 8 8 l 25
 8 10 l 25
 2 10 l 25
 2 14 l 25
 8 14 l 25
 2 20 l 25
 2 24 l 25
EndSplineSet
EndChar

StartChar: ordfeminine
Encoding: 170 170 170
Width: 20
VWidth: 0
Flags: HW
LayerCount: 2
Fore
SplineSet
2 6 m 29
 18 6 l 25
 18 2 l 25
 2 2 l 25
 2 6 l 29
14 12 m 25
 14 14 l 25
 6 14 l 25
 6 12 l 25
 14 12 l 25
18 8 m 25
 5 8 l 25
 2 11 l 25
 2 15 l 25
 5 18 l 25
 14 18 l 25
 12 20 l 25
 4 20 l 25
 4 24 l 25
 14 24 l 25
 18 20 l 25
 18 8 l 25
EndSplineSet
EndChar

StartChar: ordmasculine
Encoding: 186 186 171
Width: 20
VWidth: 0
Flags: HW
LayerCount: 2
Fore
SplineSet
2 6 m 29
 18 6 l 25
 18 2 l 25
 2 2 l 25
 2 6 l 29
8 12 m 9
 12 12 l 17
 14 14 l 1
 14 18 l 1
 12 20 l 9
 8 20 l 17
 6 18 l 1
 6 14 l 1
 8 12 l 9
2 12 m 25
 2 20 l 25
 6 24 l 25
 14 24 l 25
 18 20 l 25
 18 12 l 25
 14 8 l 25
 6 8 l 25
 2 12 l 25
EndSplineSet
EndChar

StartChar: onehalf
Encoding: 189 189 172
Width: 20
VWidth: 0
Flags: HW
LayerCount: 2
Fore
SplineSet
18 -8 m 25
 8 -8 l 25
 8 -1 l 25
 11 2 l 25
 14 2 l 25
 14 4 l 25
 8 4 l 25
 8 8 l 25
 15 8 l 25
 18 5 l 25
 18 1 l 25
 15 -2 l 25
 12 -2 l 25
 12 -4 l 25
 18 -4 l 29
 18 -8 l 25
6 32 m 25
 10 32 l 25
 10 16 l 25
 6 16 l 25
 6 26 l 25
 4 26 l 25
 4 30 l 25
 6 30 l 25
 6 32 l 25
2 5 m 25
 2 7 l 25
 14 19 l 25
 18 19 l 25
 18 17 l 25
 6 5 l 25
 2 5 l 25
EndSplineSet
EndChar

StartChar: uni00B3
Encoding: 179 179 173
Width: 20
VWidth: 0
Flags: H
LayerCount: 2
Fore
SplineSet
2 24 m 29
 15 24 l 25
 18 21 l 25
 18 18 l 25
 16 16 l 25
 18 14 l 25
 18 11 l 25
 15 8 l 25
 2 8 l 25
 2 12 l 25
 14 12 l 25
 14 14 l 25
 4 14 l 25
 4 18 l 25
 14 18 l 25
 14 20 l 25
 2 20 l 25
 2 24 l 29
EndSplineSet
EndChar

StartChar: uni00B2
Encoding: 178 178 174
Width: 20
VWidth: 0
Flags: H
LayerCount: 2
Fore
SplineSet
2 24 m 25
 15 24 l 25
 18 21 l 25
 18 17 l 25
 15 14 l 25
 6 14 l 25
 6 12 l 25
 18 12 l 25
 18 8 l 25
 2 8 l 25
 2 15 l 25
 5 18 l 25
 14 18 l 25
 14 20 l 25
 2 20 l 25
 2 24 l 25
EndSplineSet
EndChar

StartChar: Eth
Encoding: 208 208 175
Width: 20
VWidth: 0
Flags: HW
LayerCount: 2
Fore
SplineSet
6 20 m 17
 6 14 l 1
 12 14 l 1
 12 10 l 5
 6 10 l 1
 6 4 l 9
 10 4 l 25
 14 8 l 25
 14 16 l 25
 10 20 l 25
 6 20 l 17
2 0 m 25
 2 24 l 25
 12 24 l 25
 18 18 l 25
 18 6 l 25
 12 0 l 25
 2 0 l 25
EndSplineSet
EndChar

StartChar: currency
Encoding: 164 164 176
Width: 20
VWidth: 0
Flags: H
LayerCount: 2
Fore
SplineSet
8 14 m 25
 8 10 l 25
 12 10 l 25
 12 14 l 25
 8 14 l 25
2 20 m 25
 6 20 l 25
 8 18 l 25
 12 18 l 25
 14 20 l 25
 18 20 l 25
 18 18 l 25
 16 16 l 25
 16 8 l 25
 18 6 l 25
 18 4 l 25
 14 4 l 25
 12 6 l 25
 8 6 l 25
 6 4 l 25
 2 4 l 25
 2 6 l 25
 4 8 l 25
 4 16 l 25
 2 18 l 25
 2 20 l 25
EndSplineSet
EndChar

StartChar: dotlessi
Encoding: 305 305 177
Width: 20
VWidth: 0
Flags: HW
LayerCount: 2
Fore
SplineSet
4 0 m 25
 4 4 l 25
 8 4 l 25
 8 12 l 25
 4 12 l 25
 4 16 l 25
 12 16 l 25
 12 4 l 25
 16 4 l 25
 16 0 l 25
 4 0 l 25
EndSplineSet
EndChar

StartChar: igrave
Encoding: 236 236 178
Width: 20
VWidth: 0
Flags: HW
LayerCount: 2
Fore
SplineSet
12 18 m 29
 8 18 l 29
 4 22 l 29
 4 24 l 29
 8 24 l 29
 12 20 l 29
 12 18 l 29
EndSplineSet
Refer: 177 305 N 1 0 0 1 0 0 2
EndChar

StartChar: iacute
Encoding: 237 237 179
Width: 20
VWidth: 0
Flags: HW
LayerCount: 2
Fore
SplineSet
12 18 m 29
 8 18 l 29
 8 20 l 29
 12 24 l 29
 16 24 l 29
 16 22 l 29
 12 18 l 29
EndSplineSet
Refer: 177 305 N 1 0 0 1 0 0 2
EndChar

StartChar: icircumflex
Encoding: 238 238 180
Width: 20
VWidth: 0
Flags: HW
LayerCount: 2
Fore
SplineSet
10 20 m 29
 8 18 l 29
 4 18 l 29
 4 20 l 29
 8 24 l 29
 12 24 l 29
 16 20 l 29
 16 18 l 29
 12 18 l 29
 10 20 l 29
EndSplineSet
Refer: 177 305 N 1 0 0 1 0 0 2
EndChar

StartChar: idieresis
Encoding: 239 239 181
Width: 20
VWidth: 0
Flags: HW
LayerCount: 2
Fore
SplineSet
8 22 m 29
 8 18 l 29
 4 18 l 29
 4 22 l 29
 8 22 l 29
12 18 m 29
 12 22 l 29
 16 22 l 29
 16 18 l 29
 12 18 l 29
EndSplineSet
Refer: 177 305 N 1 0 0 1 0 0 2
EndChar

StartChar: Idotaccent
Encoding: 304 304 182
Width: 20
VWidth: 0
Flags: HW
LayerCount: 2
Fore
SplineSet
12 26 m 29
 8 26 l 29
 8 30 l 29
 12 30 l 29
 12 26 l 29
EndSplineSet
Refer: 10 73 N 1 0 0 1 0 0 2
EndChar

StartChar: uni00B9
Encoding: 185 185 183
Width: 20
VWidth: 0
Flags: H
LayerCount: 2
Fore
SplineSet
8 24 m 25
 12 24 l 25
 12 8 l 25
 8 8 l 25
 8 18 l 25
 4 18 l 25
 4 22 l 25
 8 22 l 25
 8 24 l 25
EndSplineSet
EndChar

StartChar: eth
Encoding: 240 240 184
Width: 20
VWidth: 0
Flags: H
LayerCount: 2
Fore
SplineSet
14 6 m 29
 6 6 l 25
 6 4 l 25
 14 4 l 25
 14 6 l 29
2 20 m 25
 6 20 l 25
 6 24 l 25
 10 24 l 25
 10 20 l 25
 14 20 l 25
 18 16 l 25
 18 3 l 25
 15 0 l 25
 5 0 l 25
 2 3 l 25
 2 7 l 25
 5 10 l 25
 14 10 l 25
 14 14 l 25
 12 16 l 25
 10 16 l 25
 10 12 l 25
 6 12 l 25
 6 16 l 25
 2 16 l 25
 2 20 l 25
EndSplineSet
EndChar

StartChar: uni00B5
Encoding: 181 181 185
Width: 20
VWidth: 0
Flags: HW
LayerCount: 2
Fore
SplineSet
2 -6 m 25
 2 16 l 25
 6 16 l 25
 6 6 l 25
 8 4 l 25
 10 4 l 25
 12 6 l 25
 12 16 l 25
 16 16 l 25
 16 6 l 25
 18 4 l 25
 18 0 l 25
 16 0 l 25
 14 2 l 25
 12 0 l 25
 8 0 l 25
 6 2 l 25
 6 -6 l 25
 2 -6 l 25
EndSplineSet
EndChar

StartChar: ccedilla
Encoding: 231 231 186
Width: 20
VWidth: 0
Flags: HW
LayerCount: 2
Fore
SplineSet
4 -6 m 29
 4 -2 l 29
 8 -2 l 29
 8 2 l 29
 12 2 l 29
 12 -3 l 29
 9 -6 l 29
 4 -6 l 29
EndSplineSet
Refer: 18 99 N 1 0 0 1 0 0 2
EndChar

StartChar: Ccedilla
Encoding: 199 199 187
Width: 20
VWidth: 0
Flags: HW
LayerCount: 2
Fore
SplineSet
4 -6 m 29
 4 -2 l 29
 8 -2 l 29
 8 2 l 29
 12 2 l 29
 12 -3 l 29
 9 -6 l 29
 4 -6 l 29
EndSplineSet
Refer: 8 67 N 1 0 0 1 0 0 2
EndChar

StartChar: cedilla
Encoding: 184 184 188
Width: 20
VWidth: 0
Flags: HW
LayerCount: 2
Fore
SplineSet
6 0 m 29
 6 4 l 29
 10 4 l 29
 10 8 l 29
 14 8 l 29
 14 3 l 29
 11 0 l 29
 6 0 l 29
EndSplineSet
EndChar

StartChar: threequarters
Encoding: 190 190 189
Width: 20
VWidth: 0
Flags: HW
LayerCount: 2
Fore
SplineSet
18 -8 m 25
 14 -8 l 25
 14 -2 l 25
 8 -2 l 25
 8 8 l 25
 12 8 l 25
 12 2 l 25
 14 2 l 25
 14 8 l 25
 18 8 l 25
 18 -8 l 25
2 32 m 25
 9 32 l 25
 12 29 l 25
 12 26 l 25
 10 24 l 25
 12 22 l 25
 12 19 l 25
 9 16 l 25
 2 16 l 25
 2 20 l 25
 8 20 l 25
 8 22 l 25
 4 22 l 25
 4 26 l 25
 8 26 l 25
 8 28 l 25
 2 28 l 25
 2 32 l 25
2 5 m 25
 2 7 l 25
 14 19 l 25
 18 19 l 25
 18 17 l 25
 6 5 l 25
 2 5 l 25
EndSplineSet
EndChar

StartChar: onequarter
Encoding: 188 188 190
Width: 20
VWidth: 0
Flags: HW
LayerCount: 2
Fore
SplineSet
6 32 m 25
 10 32 l 25
 10 16 l 25
 6 16 l 25
 6 26 l 25
 4 26 l 25
 4 30 l 25
 6 30 l 25
 6 32 l 25
18 -8 m 25
 14 -8 l 25
 14 -2 l 25
 8 -2 l 25
 8 8 l 25
 12 8 l 25
 12 2 l 25
 14 2 l 25
 14 8 l 25
 18 8 l 25
 18 -8 l 25
2 5 m 25
 2 7 l 25
 14 19 l 25
 18 19 l 25
 18 17 l 25
 6 5 l 25
 2 5 l 25
EndSplineSet
EndChar

StartChar: section
Encoding: 167 167 191
Width: 20
VWidth: 0
Flags: H
LayerCount: 2
Fore
SplineSet
6 14 m 25
 6 10 l 25
 14 10 l 25
 14 14 l 25
 6 14 l 25
14 24 m 25
 14 20 l 25
 6 20 l 25
 6 18 l 25
 15 18 l 25
 18 15 l 25
 18 10 l 25
 16 8 l 25
 18 6 l 25
 18 3 l 25
 15 0 l 25
 6 0 l 25
 6 4 l 25
 14 4 l 25
 14 6 l 25
 5 6 l 25
 2 9 l 25
 2 14 l 25
 4 16 l 25
 2 18 l 25
 2 21 l 25
 5 24 l 25
 14 24 l 25
EndSplineSet
EndChar

StartChar: Oslash
Encoding: 216 216 192
Width: 20
VWidth: 0
Flags: H
LayerCount: 2
Fore
SplineSet
10 4 m 9
 12 4 l 17
 14 6 l 1
 14 16 l 1
 10 20 l 9
 8 20 l 17
 6 18 l 1
 6 8 l 1
 10 4 l 9
2 6 m 25
 2 20 l 25
 6 24 l 25
 12 24 l 25
 18 18 l 25
 18 4 l 25
 14 0 l 25
 8 0 l 25
 2 6 l 25
2 -1 m 25
 2 1 l 25
 14 25 l 25
 18 25 l 25
 18 23 l 25
 6 -1 l 25
 2 -1 l 25
EndSplineSet
EndChar

StartChar: oslash
Encoding: 248 248 193
Width: 20
VWidth: 0
Flags: HW
LayerCount: 2
Fore
SplineSet
2 1 m 25
 2 3 l 25
 14 15 l 25
 18 15 l 25
 18 13 l 25
 6 1 l 25
 2 1 l 25
10 4 m 9
 12 4 l 17
 14 6 l 1
 14 8 l 1
 10 12 l 9
 8 12 l 17
 6 10 l 1
 6 8 l 1
 10 4 l 9
2 6 m 25
 2 12 l 25
 6 16 l 25
 12 16 l 25
 18 10 l 25
 18 4 l 25
 14 0 l 25
 8 0 l 25
 2 6 l 25
EndSplineSet
EndChar

StartChar: cacute
Encoding: 263 263 194
Width: 20
VWidth: 0
Flags: HW
LayerCount: 2
Fore
SplineSet
12 18 m 29
 8 18 l 29
 8 20 l 29
 12 24 l 29
 16 24 l 29
 16 22 l 29
 12 18 l 29
EndSplineSet
Refer: 18 99 N 1 0 0 1 0 0 2
EndChar

StartChar: ccircumflex
Encoding: 265 265 195
Width: 20
VWidth: 0
Flags: HW
LayerCount: 2
Fore
SplineSet
10 20 m 29
 8 18 l 29
 4 18 l 29
 4 20 l 29
 8 24 l 29
 12 24 l 29
 16 20 l 29
 16 18 l 29
 12 18 l 29
 10 20 l 29
EndSplineSet
Refer: 18 99 N 1 0 0 1 0 0 2
EndChar

StartChar: cdotaccent
Encoding: 267 267 196
Width: 20
VWidth: 0
Flags: HW
LayerCount: 2
Fore
SplineSet
12 18 m 29
 8 18 l 29
 8 22 l 29
 12 22 l 29
 12 18 l 29
EndSplineSet
Refer: 18 99 N 1 0 0 1 0 0 2
EndChar

StartChar: ccaron
Encoding: 269 269 197
Width: 20
VWidth: 0
Flags: HW
LayerCount: 2
Fore
SplineSet
10 22 m 29
 12 24 l 29
 16 24 l 29
 16 22 l 29
 12 18 l 29
 8 18 l 29
 4 22 l 29
 4 24 l 29
 8 24 l 29
 10 22 l 29
EndSplineSet
Refer: 18 99 N 1 0 0 1 0 0 2
EndChar

StartChar: Cacute
Encoding: 262 262 198
Width: 20
VWidth: 0
Flags: HW
LayerCount: 2
Fore
SplineSet
12 26 m 29
 8 26 l 29
 8 28 l 29
 12 32 l 29
 16 32 l 29
 16 30 l 29
 12 26 l 29
EndSplineSet
Refer: 8 67 N 1 0 0 1 0 0 2
EndChar

StartChar: Ccircumflex
Encoding: 264 264 199
Width: 20
VWidth: 0
Flags: HW
LayerCount: 2
Fore
SplineSet
10 28 m 29
 8 26 l 29
 4 26 l 29
 4 28 l 29
 8 32 l 29
 12 32 l 29
 16 28 l 29
 16 26 l 29
 12 26 l 29
 10 28 l 29
EndSplineSet
Refer: 8 67 N 1 0 0 1 0 0 2
EndChar

StartChar: Cdotaccent
Encoding: 266 266 200
Width: 20
VWidth: 0
Flags: HW
LayerCount: 2
Fore
SplineSet
12 26 m 29
 8 26 l 29
 8 30 l 29
 12 30 l 29
 12 26 l 29
EndSplineSet
Refer: 8 67 N 1 0 0 1 0 0 2
EndChar

StartChar: Ccaron
Encoding: 268 268 201
Width: 20
VWidth: 0
Flags: HW
LayerCount: 2
Fore
SplineSet
10 30 m 29
 12 32 l 29
 16 32 l 29
 16 30 l 29
 12 26 l 29
 8 26 l 29
 4 30 l 29
 4 32 l 29
 8 32 l 29
 10 30 l 29
EndSplineSet
Refer: 8 67 N 1 0 0 1 0 0 2
EndChar

StartChar: Itilde
Encoding: 296 296 202
Width: 20
VWidth: 0
Flags: HW
LayerCount: 2
Fore
SplineSet
10 32 m 29
 12 30 l 29
 14 30 l 29
 14 32 l 29
 18 32 l 29
 18 29 l 29
 15 26 l 29
 10 26 l 29
 8 28 l 29
 6 28 l 29
 6 26 l 29
 2 26 l 29
 2 29 l 29
 5 32 l 29
 10 32 l 29
EndSplineSet
Refer: 10 73 N 1 0 0 1 0 0 2
EndChar

StartChar: Imacron
Encoding: 298 298 203
Width: 20
VWidth: 0
Flags: HW
LayerCount: 2
Fore
SplineSet
18 26 m 29
 2 26 l 29
 2 30 l 29
 18 30 l 29
 18 26 l 29
EndSplineSet
Refer: 10 73 N 1 0 0 1 0 0 2
EndChar

StartChar: Ibreve
Encoding: 300 300 204
Width: 20
VWidth: 0
Flags: HW
LayerCount: 2
Fore
SplineSet
12 32 m 29
 16 32 l 29
 16 29 l 29
 13 26 l 29
 7 26 l 29
 4 29 l 29
 4 32 l 29
 8 32 l 29
 8 30 l 29
 12 30 l 29
 12 32 l 29
EndSplineSet
Refer: 10 73 N 1 0 0 1 0 0 2
EndChar

StartChar: Iogonek
Encoding: 302 302 205
Width: 20
VWidth: 0
Flags: HW
LayerCount: 2
Fore
SplineSet
8 -2 m 29
 8 -6 l 29
 4 -6 l 29
 2 -4 l 29
 2 2 l 29
 4 4 l 29
 8 4 l 29
 8 0 l 29
 6 0 l 29
 6 -2 l 29
 8 -2 l 29
EndSplineSet
Refer: 10 73 N 1 0 0 1 0 0 2
EndChar

StartChar: itilde
Encoding: 297 297 206
Width: 20
VWidth: 0
Flags: HW
LayerCount: 2
Fore
SplineSet
10 24 m 29
 12 22 l 29
 14 22 l 29
 14 24 l 29
 18 24 l 29
 18 21 l 29
 15 18 l 29
 10 18 l 29
 8 20 l 29
 6 20 l 29
 6 18 l 29
 2 18 l 29
 2 21 l 29
 5 24 l 29
 10 24 l 29
EndSplineSet
Refer: 177 305 N 1 0 0 1 0 0 2
EndChar

StartChar: imacron
Encoding: 299 299 207
Width: 20
VWidth: 0
Flags: HW
LayerCount: 2
Fore
SplineSet
18 18 m 29
 2 18 l 29
 2 22 l 29
 18 22 l 29
 18 18 l 29
EndSplineSet
Refer: 177 305 N 1 0 0 1 0 0 2
EndChar

StartChar: ibreve
Encoding: 301 301 208
Width: 20
VWidth: 0
Flags: HW
LayerCount: 2
Fore
SplineSet
12 24 m 29
 16 24 l 29
 16 21 l 29
 13 18 l 29
 7 18 l 29
 4 21 l 29
 4 24 l 29
 8 24 l 29
 8 22 l 29
 12 22 l 29
 12 24 l 29
EndSplineSet
Refer: 177 305 N 1 0 0 1 0 0 2
EndChar

StartChar: iogonek
Encoding: 303 303 209
Width: 20
VWidth: 0
Flags: HW
LayerCount: 2
Fore
SplineSet
8 -2 m 25
 8 -6 l 25
 4 -6 l 25
 2 -4 l 25
 2 2 l 25
 4 4 l 25
 8 4 l 25
 8 0 l 25
 6 0 l 25
 6 -2 l 25
 8 -2 l 25
EndSplineSet
Refer: 27 105 N 1 0 0 1 0 0 2
EndChar

StartChar: amacron
Encoding: 257 257 210
Width: 20
VWidth: 0
Flags: HW
LayerCount: 2
Fore
SplineSet
18 18 m 29
 2 18 l 29
 2 22 l 29
 18 22 l 29
 18 18 l 29
EndSplineSet
Refer: 15 97 N 1 0 0 1 0 0 2
EndChar

StartChar: abreve
Encoding: 259 259 211
Width: 20
VWidth: 0
Flags: HW
LayerCount: 2
Fore
SplineSet
12 24 m 29
 16 24 l 29
 16 21 l 29
 13 18 l 29
 7 18 l 29
 4 21 l 29
 4 24 l 29
 8 24 l 29
 8 22 l 29
 12 22 l 29
 12 24 l 29
EndSplineSet
Refer: 15 97 N 1 0 0 1 0 0 2
EndChar

StartChar: aogonek
Encoding: 261 261 212
Width: 20
VWidth: 0
Flags: HW
LayerCount: 2
Fore
SplineSet
18 -2 m 29
 18 -6 l 29
 14 -6 l 29
 12 -4 l 29
 12 2 l 29
 14 4 l 29
 18 4 l 29
 18 0 l 29
 16 0 l 29
 16 -2 l 29
 18 -2 l 29
EndSplineSet
Refer: 15 97 N 1 0 0 1 0 0 2
EndChar

StartChar: Amacron
Encoding: 256 256 213
Width: 20
VWidth: 0
Flags: HW
LayerCount: 2
Fore
SplineSet
18 26 m 29
 2 26 l 29
 2 30 l 29
 18 30 l 29
 18 26 l 29
EndSplineSet
Refer: 32 65 N 1 0 0 1 0 0 2
EndChar

StartChar: Abreve
Encoding: 258 258 214
Width: 20
VWidth: 0
Flags: HW
LayerCount: 2
Fore
SplineSet
12 32 m 29
 16 32 l 29
 16 29 l 29
 13 26 l 29
 7 26 l 29
 4 29 l 29
 4 32 l 29
 8 32 l 29
 8 30 l 29
 12 30 l 29
 12 32 l 29
EndSplineSet
Refer: 32 65 N 1 0 0 1 0 0 2
EndChar

StartChar: Aogonek
Encoding: 260 260 215
Width: 20
VWidth: 0
Flags: HW
LayerCount: 2
Fore
SplineSet
16 -2 m 29
 16 -6 l 29
 12 -6 l 29
 10 -4 l 29
 10 2 l 29
 12 4 l 29
 16 4 l 29
 16 0 l 29
 14 0 l 29
 14 -2 l 29
 16 -2 l 29
EndSplineSet
Refer: 32 65 N 1 0 0 1 0 0 2
EndChar

StartChar: emacron
Encoding: 275 275 216
Width: 20
VWidth: 0
Flags: HW
LayerCount: 2
Fore
SplineSet
18 18 m 29
 2 18 l 29
 2 22 l 29
 18 22 l 29
 18 18 l 29
EndSplineSet
Refer: 14 101 N 1 0 0 1 0 0 2
EndChar

StartChar: ebreve
Encoding: 277 277 217
Width: 20
VWidth: 0
Flags: HW
LayerCount: 2
Fore
SplineSet
12 24 m 29
 16 24 l 29
 16 21 l 29
 13 18 l 29
 7 18 l 29
 4 21 l 29
 4 24 l 29
 8 24 l 29
 8 22 l 29
 12 22 l 29
 12 24 l 29
EndSplineSet
Refer: 14 101 N 1 0 0 1 0 0 2
EndChar

StartChar: edotaccent
Encoding: 279 279 218
Width: 20
VWidth: 0
Flags: HW
LayerCount: 2
Fore
SplineSet
12 18 m 29
 8 18 l 29
 8 22 l 29
 12 22 l 29
 12 18 l 29
EndSplineSet
Refer: 14 101 N 1 0 0 1 0 0 2
EndChar

StartChar: eogonek
Encoding: 281 281 219
Width: 20
VWidth: 0
Flags: HW
LayerCount: 2
Fore
SplineSet
16 -2 m 29
 16 -6 l 29
 12 -6 l 29
 10 -4 l 29
 10 2 l 29
 12 4 l 29
 16 4 l 29
 16 0 l 29
 14 0 l 29
 14 -2 l 29
 16 -2 l 29
EndSplineSet
Refer: 14 101 N 1 0 0 1 0 0 2
EndChar

StartChar: ecaron
Encoding: 283 283 220
Width: 20
VWidth: 0
Flags: HW
LayerCount: 2
Fore
SplineSet
10 22 m 29
 12 24 l 29
 16 24 l 29
 16 22 l 29
 12 18 l 29
 8 18 l 29
 4 22 l 29
 4 24 l 29
 8 24 l 29
 10 22 l 29
EndSplineSet
Refer: 14 101 N 1 0 0 1 0 0 2
EndChar

StartChar: Emacron
Encoding: 274 274 221
Width: 20
VWidth: 0
Flags: HW
LayerCount: 2
Fore
SplineSet
18 26 m 29
 2 26 l 29
 2 30 l 29
 18 30 l 29
 18 26 l 29
EndSplineSet
Refer: 6 69 N 1 0 0 1 0 0 2
EndChar

StartChar: Ebreve
Encoding: 276 276 222
Width: 20
VWidth: 0
Flags: HW
LayerCount: 2
Fore
SplineSet
12 32 m 29
 16 32 l 29
 16 29 l 29
 13 26 l 29
 7 26 l 29
 4 29 l 29
 4 32 l 29
 8 32 l 29
 8 30 l 29
 12 30 l 29
 12 32 l 29
EndSplineSet
Refer: 6 69 N 1 0 0 1 0 0 2
EndChar

StartChar: Edotaccent
Encoding: 278 278 223
Width: 20
VWidth: 0
Flags: HW
LayerCount: 2
Fore
SplineSet
12 26 m 29
 8 26 l 29
 8 30 l 29
 12 30 l 29
 12 26 l 29
EndSplineSet
Refer: 6 69 N 1 0 0 1 0 0 2
EndChar

StartChar: Eogonek
Encoding: 280 280 224
Width: 20
VWidth: 0
Flags: HW
LayerCount: 2
Fore
SplineSet
18 -2 m 29
 18 -6 l 29
 14 -6 l 29
 12 -4 l 29
 12 2 l 29
 14 4 l 29
 18 4 l 29
 18 0 l 29
 16 0 l 29
 16 -2 l 29
 18 -2 l 29
EndSplineSet
Refer: 6 69 N 1 0 0 1 0 0 2
EndChar

StartChar: Ecaron
Encoding: 282 282 225
Width: 20
VWidth: 0
Flags: HW
LayerCount: 2
Fore
SplineSet
10 30 m 29
 12 32 l 29
 16 32 l 29
 16 30 l 29
 12 26 l 29
 8 26 l 29
 4 30 l 29
 4 32 l 29
 8 32 l 29
 10 30 l 29
EndSplineSet
Refer: 6 69 N 1 0 0 1 0 0 2
EndChar

StartChar: gcircumflex
Encoding: 285 285 226
Width: 20
VWidth: 0
Flags: HW
LayerCount: 2
Fore
SplineSet
10 20 m 29
 8 18 l 29
 4 18 l 29
 4 20 l 29
 8 24 l 29
 12 24 l 29
 16 20 l 29
 16 18 l 29
 12 18 l 29
 10 20 l 29
EndSplineSet
Refer: 48 103 N 1 0 0 1 0 0 2
EndChar

StartChar: gbreve
Encoding: 287 287 227
Width: 20
VWidth: 0
Flags: HW
LayerCount: 2
Fore
SplineSet
12 24 m 29
 16 24 l 29
 16 21 l 29
 13 18 l 29
 7 18 l 29
 4 21 l 29
 4 24 l 29
 8 24 l 29
 8 22 l 29
 12 22 l 29
 12 24 l 29
EndSplineSet
Refer: 48 103 N 1 0 0 1 0 0 2
EndChar

StartChar: gdotaccent
Encoding: 289 289 228
Width: 20
VWidth: 0
Flags: HW
LayerCount: 2
Fore
SplineSet
12 18 m 29
 8 18 l 29
 8 22 l 29
 12 22 l 29
 12 18 l 29
EndSplineSet
Refer: 48 103 N 1 0 0 1 0 0 2
EndChar

StartChar: gcommaaccent
Encoding: 291 291 229
Width: 20
VWidth: 0
Flags: HW
LayerCount: 2
Fore
SplineSet
18 22 m 29
 18 18 l 29
 14 18 l 29
 14 14 l 29
 10 14 l 29
 10 19 l 29
 13 22 l 29
 18 22 l 29
EndSplineSet
Refer: 48 103 N 1 0 0 1 0 0 2
EndChar

StartChar: Gcircumflex
Encoding: 284 284 230
Width: 20
VWidth: 0
Flags: HW
LayerCount: 2
Fore
SplineSet
10 28 m 29
 8 26 l 29
 4 26 l 29
 4 28 l 29
 8 32 l 29
 12 32 l 29
 16 28 l 29
 16 26 l 29
 12 26 l 29
 10 28 l 29
EndSplineSet
Refer: 17 71 N 1 0 0 1 0 0 2
EndChar

StartChar: Gbreve
Encoding: 286 286 231
Width: 20
VWidth: 0
Flags: HW
LayerCount: 2
Fore
SplineSet
12 32 m 29
 16 32 l 29
 16 29 l 29
 13 26 l 29
 7 26 l 29
 4 29 l 29
 4 32 l 29
 8 32 l 29
 8 30 l 29
 12 30 l 29
 12 32 l 29
EndSplineSet
Refer: 17 71 N 1 0 0 1 0 0 2
EndChar

StartChar: Gdotaccent
Encoding: 288 288 232
Width: 20
VWidth: 0
Flags: HW
LayerCount: 2
Fore
SplineSet
12 26 m 29
 8 26 l 29
 8 30 l 29
 12 30 l 29
 12 26 l 29
EndSplineSet
Refer: 17 71 N 1 0 0 1 0 0 2
EndChar

StartChar: Gcommaaccent
Encoding: 290 290 233
Width: 20
VWidth: 0
Flags: HW
LayerCount: 2
Fore
SplineSet
4 -6 m 29
 4 -2 l 29
 8 -2 l 29
 8 2 l 29
 12 2 l 29
 12 -3 l 29
 9 -6 l 29
 4 -6 l 29
EndSplineSet
Refer: 17 71 N 1 0 0 1 0 0 2
EndChar

StartChar: Sacute
Encoding: 346 346 234
Width: 20
VWidth: 0
Flags: HW
LayerCount: 2
Fore
SplineSet
12 26 m 29
 8 26 l 29
 8 28 l 29
 12 32 l 29
 16 32 l 29
 16 30 l 29
 12 26 l 29
EndSplineSet
Refer: 21 83 N 1 0 0 1 0 0 2
EndChar

StartChar: Scircumflex
Encoding: 348 348 235
Width: 20
VWidth: 0
Flags: HW
LayerCount: 2
Fore
SplineSet
10 28 m 29
 8 26 l 29
 4 26 l 29
 4 28 l 29
 8 32 l 29
 12 32 l 29
 16 28 l 29
 16 26 l 29
 12 26 l 29
 10 28 l 29
EndSplineSet
Refer: 21 83 N 1 0 0 1 0 0 2
EndChar

StartChar: Scedilla
Encoding: 350 350 236
Width: 20
VWidth: 0
Flags: HW
LayerCount: 2
Fore
SplineSet
4 -6 m 29
 4 -2 l 29
 8 -2 l 29
 8 2 l 29
 12 2 l 29
 12 -3 l 29
 9 -6 l 29
 4 -6 l 29
EndSplineSet
Refer: 21 83 N 1 0 0 1 0 0 2
EndChar

StartChar: Scaron
Encoding: 352 352 237
Width: 20
VWidth: 0
Flags: HW
LayerCount: 2
Fore
SplineSet
10 30 m 29
 12 32 l 29
 16 32 l 29
 16 30 l 29
 12 26 l 29
 8 26 l 29
 4 30 l 29
 4 32 l 29
 8 32 l 29
 10 30 l 29
EndSplineSet
Refer: 21 83 N 1 0 0 1 0 0 2
EndChar

StartChar: sacute
Encoding: 347 347 238
Width: 20
VWidth: 0
Flags: HW
LayerCount: 2
Fore
SplineSet
12 18 m 29
 8 18 l 29
 8 20 l 29
 12 24 l 29
 16 24 l 29
 16 22 l 29
 12 18 l 29
EndSplineSet
Refer: 12 115 N 1 0 0 1 0 0 2
EndChar

StartChar: scircumflex
Encoding: 349 349 239
Width: 20
VWidth: 0
Flags: HW
LayerCount: 2
Fore
SplineSet
10 20 m 29
 8 18 l 29
 4 18 l 29
 4 20 l 29
 8 24 l 29
 12 24 l 29
 16 20 l 29
 16 18 l 29
 12 18 l 29
 10 20 l 29
EndSplineSet
Refer: 12 115 N 1 0 0 1 0 0 2
EndChar

StartChar: scedilla
Encoding: 351 351 240
Width: 20
VWidth: 0
Flags: HW
LayerCount: 2
Fore
SplineSet
4 -6 m 29
 4 -2 l 29
 8 -2 l 29
 8 2 l 29
 12 2 l 29
 12 -3 l 29
 9 -6 l 29
 4 -6 l 29
EndSplineSet
Refer: 12 115 N 1 0 0 1 0 0 2
EndChar

StartChar: scaron
Encoding: 353 353 241
Width: 20
VWidth: 0
Flags: HW
LayerCount: 2
Fore
SplineSet
10 22 m 29
 12 24 l 29
 16 24 l 29
 16 22 l 29
 12 18 l 29
 8 18 l 29
 4 22 l 29
 4 24 l 29
 8 24 l 29
 10 22 l 29
EndSplineSet
Refer: 12 115 N 1 0 0 1 0 0 2
EndChar

StartChar: racute
Encoding: 341 341 242
Width: 20
VWidth: 0
Flags: HW
LayerCount: 2
Fore
SplineSet
12 18 m 29
 8 18 l 29
 8 20 l 29
 12 24 l 29
 16 24 l 29
 16 22 l 29
 12 18 l 29
EndSplineSet
Refer: 42 114 N 1 0 0 1 0 0 2
EndChar

StartChar: rcommaaccent
Encoding: 343 343 243
Width: 20
VWidth: 0
Flags: HW
LayerCount: 2
Fore
SplineSet
2 -6 m 25
 2 -2 l 25
 6 -2 l 17
 6 0 l 1
 2 0 l 1
 2 4 l 1
 7 4 l 9
 10 1 l 25
 10 -3 l 25
 7 -6 l 25
 2 -6 l 25
EndSplineSet
Refer: 42 114 N 1 0 0 1 0 0 2
EndChar

StartChar: rcaron
Encoding: 345 345 244
Width: 20
VWidth: 0
Flags: HW
LayerCount: 2
Fore
SplineSet
10 22 m 29
 12 24 l 29
 16 24 l 29
 16 22 l 29
 12 18 l 29
 8 18 l 29
 4 22 l 29
 4 24 l 29
 8 24 l 29
 10 22 l 29
EndSplineSet
Refer: 42 114 N 1 0 0 1 0 0 2
EndChar

StartChar: Racute
Encoding: 340 340 245
Width: 20
VWidth: 0
Flags: HW
LayerCount: 2
Fore
SplineSet
12 26 m 29
 8 26 l 29
 8 28 l 29
 12 32 l 29
 16 32 l 29
 16 30 l 29
 12 26 l 29
EndSplineSet
Refer: 39 82 N 1 0 0 1 0 0 2
EndChar

StartChar: Rcommaaccent
Encoding: 342 342 246
Width: 20
VWidth: 0
Flags: HW
LayerCount: 2
Fore
SplineSet
2 -6 m 29
 2 -2 l 29
 6 -2 l 21
 6 0 l 5
 2 0 l 5
 2 4 l 5
 7 4 l 13
 10 1 l 29
 10 -3 l 29
 7 -6 l 29
 2 -6 l 29
EndSplineSet
Refer: 39 82 N 1 0 0 1 0 0 2
EndChar

StartChar: Rcaron
Encoding: 344 344 247
Width: 20
VWidth: 0
Flags: HW
LayerCount: 2
Fore
SplineSet
10 30 m 29
 12 32 l 29
 16 32 l 29
 16 30 l 29
 12 26 l 29
 8 26 l 29
 4 30 l 29
 4 32 l 29
 8 32 l 29
 10 30 l 29
EndSplineSet
Refer: 39 82 N 1 0 0 1 0 0 2
EndChar

StartChar: Omacron
Encoding: 332 332 248
Width: 20
VWidth: 0
Flags: HW
LayerCount: 2
Fore
SplineSet
18 26 m 29
 2 26 l 29
 2 30 l 29
 18 30 l 29
 18 26 l 29
EndSplineSet
Refer: 0 79 N 1 0 0 1 0 0 2
EndChar

StartChar: Obreve
Encoding: 334 334 249
Width: 20
VWidth: 0
Flags: HW
LayerCount: 2
Fore
SplineSet
12 32 m 29
 16 32 l 29
 16 29 l 29
 13 26 l 29
 7 26 l 29
 4 29 l 29
 4 32 l 29
 8 32 l 29
 8 30 l 29
 12 30 l 29
 12 32 l 29
EndSplineSet
Refer: 0 79 N 1 0 0 1 0 0 2
EndChar

StartChar: Ohungarumlaut
Encoding: 336 336 250
Width: 20
VWidth: 0
Flags: HW
LayerCount: 2
Fore
SplineSet
14 26 m 29
 10 26 l 29
 10 28 l 29
 14 32 l 29
 18 32 l 29
 18 30 l 29
 14 26 l 29
6 26 m 29
 2 26 l 29
 2 28 l 29
 6 32 l 29
 10 32 l 29
 10 30 l 29
 6 26 l 29
EndSplineSet
Refer: 0 79 N 1 0 0 1 0 0 2
EndChar

StartChar: omacron
Encoding: 333 333 251
Width: 20
VWidth: 0
Flags: HW
LayerCount: 2
Fore
SplineSet
18 18 m 29
 2 18 l 29
 2 22 l 29
 18 22 l 29
 18 18 l 29
EndSplineSet
Refer: 2 111 N 1 0 0 1 0 0 2
EndChar

StartChar: obreve
Encoding: 335 335 252
Width: 20
VWidth: 0
Flags: HW
LayerCount: 2
Fore
SplineSet
12 24 m 29
 16 24 l 29
 16 21 l 29
 13 18 l 29
 7 18 l 29
 4 21 l 29
 4 24 l 29
 8 24 l 29
 8 22 l 29
 12 22 l 29
 12 24 l 29
EndSplineSet
Refer: 2 111 N 1 0 0 1 0 0 2
EndChar

StartChar: ohungarumlaut
Encoding: 337 337 253
Width: 20
VWidth: 0
Flags: HW
LayerCount: 2
Fore
SplineSet
14 18 m 29
 10 18 l 29
 10 20 l 29
 14 24 l 29
 18 24 l 29
 18 22 l 29
 14 18 l 29
6 18 m 29
 2 18 l 29
 2 20 l 29
 6 24 l 29
 10 24 l 29
 10 22 l 29
 6 18 l 29
EndSplineSet
Refer: 2 111 N 1 0 0 1 0 0 2
EndChar

StartChar: utilde
Encoding: 361 361 254
Width: 20
VWidth: 0
Flags: HW
LayerCount: 2
Fore
SplineSet
10 24 m 29
 12 22 l 29
 14 22 l 29
 14 24 l 29
 18 24 l 29
 18 21 l 29
 15 18 l 29
 10 18 l 29
 8 20 l 29
 6 20 l 29
 6 18 l 29
 2 18 l 29
 2 21 l 29
 5 24 l 29
 10 24 l 29
EndSplineSet
Refer: 43 117 N 1 0 0 1 0 0 2
EndChar

StartChar: umacron
Encoding: 363 363 255
Width: 20
VWidth: 0
Flags: HW
LayerCount: 2
Fore
SplineSet
18 18 m 29
 2 18 l 29
 2 22 l 29
 18 22 l 29
 18 18 l 29
EndSplineSet
Refer: 43 117 N 1 0 0 1 0 0 2
EndChar

StartChar: ubreve
Encoding: 365 365 256
Width: 20
VWidth: 0
Flags: HW
LayerCount: 2
Fore
SplineSet
12 24 m 29
 16 24 l 29
 16 21 l 29
 13 18 l 29
 7 18 l 29
 4 21 l 29
 4 24 l 29
 8 24 l 29
 8 22 l 29
 12 22 l 29
 12 24 l 29
EndSplineSet
Refer: 43 117 N 1 0 0 1 0 0 2
EndChar

StartChar: uring
Encoding: 367 367 257
Width: 20
VWidth: 0
Flags: HW
LayerCount: 2
Fore
SplineSet
8 24 m 29
 12 24 l 29
 14 22 l 29
 14 20 l 29
 12 18 l 29
 8 18 l 29
 6 20 l 29
 6 22 l 29
 8 24 l 29
EndSplineSet
Refer: 43 117 N 1 0 0 1 0 0 2
EndChar

StartChar: uhungarumlaut
Encoding: 369 369 258
Width: 20
VWidth: 0
Flags: HW
LayerCount: 2
Fore
SplineSet
14 18 m 29
 10 18 l 29
 10 20 l 29
 14 24 l 29
 18 24 l 29
 18 22 l 29
 14 18 l 29
6 18 m 29
 2 18 l 29
 2 20 l 29
 6 24 l 29
 10 24 l 29
 10 22 l 29
 6 18 l 29
EndSplineSet
Refer: 43 117 N 1 0 0 1 0 0 2
EndChar

StartChar: uogonek
Encoding: 371 371 259
Width: 20
VWidth: 0
Flags: HW
LayerCount: 2
Fore
SplineSet
12 -2 m 29
 12 -6 l 29
 8 -6 l 29
 6 -4 l 29
 6 2 l 29
 8 4 l 29
 12 4 l 29
 12 0 l 29
 10 0 l 29
 10 -2 l 29
 12 -2 l 29
EndSplineSet
Refer: 43 117 N 1 0 0 1 0 0 2
EndChar

StartChar: Utilde
Encoding: 360 360 260
Width: 20
VWidth: 0
Flags: HW
LayerCount: 2
Fore
SplineSet
10 32 m 29
 12 30 l 29
 14 30 l 29
 14 32 l 29
 18 32 l 29
 18 29 l 29
 15 26 l 29
 10 26 l 29
 8 28 l 29
 6 28 l 29
 6 26 l 29
 2 26 l 29
 2 29 l 29
 5 32 l 29
 10 32 l 29
EndSplineSet
Refer: 20 85 N 1 0 0 1 0 0 2
EndChar

StartChar: Umacron
Encoding: 362 362 261
Width: 20
VWidth: 0
Flags: HW
LayerCount: 2
Fore
SplineSet
18 26 m 29
 2 26 l 29
 2 30 l 29
 18 30 l 29
 18 26 l 29
EndSplineSet
Refer: 20 85 N 1 0 0 1 0 0 2
EndChar

StartChar: Ubreve
Encoding: 364 364 262
Width: 20
VWidth: 0
Flags: HW
LayerCount: 2
Fore
SplineSet
12 32 m 29
 16 32 l 29
 16 29 l 29
 13 26 l 29
 7 26 l 29
 4 29 l 29
 4 32 l 29
 8 32 l 29
 8 30 l 29
 12 30 l 29
 12 32 l 29
EndSplineSet
Refer: 20 85 N 1 0 0 1 0 0 2
EndChar

StartChar: Uring
Encoding: 366 366 263
Width: 20
VWidth: 0
Flags: HW
LayerCount: 2
Fore
SplineSet
8 32 m 29
 12 32 l 29
 14 30 l 29
 14 28 l 29
 12 26 l 29
 8 26 l 29
 6 28 l 29
 6 30 l 29
 8 32 l 29
EndSplineSet
Refer: 20 85 N 1 0 0 1 0 0 2
EndChar

StartChar: Uhungarumlaut
Encoding: 368 368 264
Width: 20
VWidth: 0
Flags: HW
LayerCount: 2
Fore
SplineSet
14 26 m 29
 10 26 l 29
 10 28 l 29
 14 32 l 29
 18 32 l 29
 18 30 l 29
 14 26 l 29
6 26 m 29
 2 26 l 29
 2 28 l 29
 6 32 l 29
 10 32 l 29
 10 30 l 29
 6 26 l 29
EndSplineSet
Refer: 20 85 N 1 0 0 1 0 0 2
EndChar

StartChar: Uogonek
Encoding: 370 370 265
Width: 20
VWidth: 0
Flags: HW
LayerCount: 2
Fore
SplineSet
12 -2 m 29
 12 -6 l 29
 8 -6 l 29
 6 -4 l 29
 6 2 l 29
 8 4 l 29
 12 4 l 29
 12 0 l 29
 10 0 l 29
 10 -2 l 29
 12 -2 l 29
EndSplineSet
Refer: 20 85 N 1 0 0 1 0 0 2
EndChar

StartChar: OE
Encoding: 338 338 266
Width: 20
VWidth: 0
Flags: H
LayerCount: 2
Fore
SplineSet
8 20 m 29
 6 18 l 25
 6 6 l 25
 8 4 l 25
 8 20 l 29
2 20 m 25
 6 24 l 25
 18 24 l 25
 18 20 l 25
 12 20 l 25
 12 14 l 25
 16 14 l 25
 16 10 l 25
 12 10 l 25
 12 4 l 25
 18 4 l 25
 18 0 l 25
 6 0 l 25
 2 4 l 25
 2 20 l 25
EndSplineSet
EndChar

StartChar: oe
Encoding: 339 339 267
Width: 20
VWidth: 0
Flags: H
LayerCount: 2
Fore
SplineSet
12 10 m 25
 14 10 l 25
 14 12 l 25
 12 12 l 25
 12 10 l 25
8 4 m 25
 8 12 l 25
 6 10 l 25
 6 6 l 25
 8 4 l 25
6 0 m 25
 2 4 l 25
 2 12 l 25
 6 16 l 25
 15 16 l 25
 18 13 l 29
 18 6 l 25
 12 6 l 25
 12 4 l 25
 16 4 l 25
 16 0 l 25
 6 0 l 25
EndSplineSet
EndChar

StartChar: wcircumflex
Encoding: 373 373 268
Width: 20
VWidth: 0
Flags: HW
LayerCount: 2
Fore
SplineSet
10 20 m 29
 8 18 l 29
 4 18 l 29
 4 20 l 29
 8 24 l 29
 12 24 l 29
 16 20 l 29
 16 18 l 29
 12 18 l 29
 10 20 l 29
EndSplineSet
Refer: 13 119 N 1 0 0 1 0 0 2
EndChar

StartChar: Wcircumflex
Encoding: 372 372 269
Width: 20
VWidth: 0
Flags: HW
LayerCount: 2
Fore
SplineSet
10 28 m 29
 8 26 l 29
 4 26 l 29
 4 28 l 29
 8 32 l 29
 12 32 l 29
 16 28 l 29
 16 26 l 29
 12 26 l 29
 10 28 l 29
EndSplineSet
Refer: 31 87 N 1 0 0 1 0 0 2
EndChar

StartChar: zacute
Encoding: 378 378 270
Width: 20
VWidth: 0
Flags: HW
LayerCount: 2
Fore
SplineSet
12 18 m 29
 8 18 l 29
 8 20 l 29
 12 24 l 29
 16 24 l 29
 16 22 l 29
 12 18 l 29
EndSplineSet
Refer: 36 122 N 1 0 0 1 0 0 2
EndChar

StartChar: zdotaccent
Encoding: 380 380 271
Width: 20
VWidth: 0
Flags: HW
LayerCount: 2
Fore
SplineSet
12 18 m 29
 8 18 l 29
 8 22 l 29
 12 22 l 29
 12 18 l 29
EndSplineSet
Refer: 36 122 N 1 0 0 1 0 0 2
EndChar

StartChar: zcaron
Encoding: 382 382 272
Width: 20
VWidth: 0
Flags: HW
LayerCount: 2
Fore
SplineSet
10 22 m 29
 12 24 l 29
 16 24 l 29
 16 22 l 29
 12 18 l 29
 8 18 l 29
 4 22 l 29
 4 24 l 29
 8 24 l 29
 10 22 l 29
EndSplineSet
Refer: 36 122 N 1 0 0 1 0 0 2
EndChar

StartChar: Zacute
Encoding: 377 377 273
Width: 20
VWidth: 0
Flags: HW
LayerCount: 2
Fore
SplineSet
12 26 m 29
 8 26 l 29
 8 28 l 29
 12 32 l 29
 16 32 l 29
 16 30 l 29
 12 26 l 29
EndSplineSet
Refer: 28 90 N 1 0 0 1 0 0 2
EndChar

StartChar: Zdotaccent
Encoding: 379 379 274
Width: 20
VWidth: 0
Flags: HW
LayerCount: 2
Fore
SplineSet
12 26 m 29
 8 26 l 29
 8 30 l 29
 12 30 l 29
 12 26 l 29
EndSplineSet
Refer: 28 90 N 1 0 0 1 0 0 2
EndChar

StartChar: Zcaron
Encoding: 381 381 275
Width: 20
VWidth: 0
Flags: HW
LayerCount: 2
Fore
SplineSet
10 30 m 29
 12 32 l 29
 16 32 l 29
 16 30 l 29
 12 26 l 29
 8 26 l 29
 4 30 l 29
 4 32 l 29
 8 32 l 29
 10 30 l 29
EndSplineSet
Refer: 28 90 N 1 0 0 1 0 0 2
EndChar

StartChar: ycircumflex
Encoding: 375 375 276
Width: 20
VWidth: 0
Flags: HW
LayerCount: 2
Fore
SplineSet
12 18 m 29
 8 18 l 29
 8 20 l 29
 12 24 l 29
 16 24 l 29
 16 22 l 29
 12 18 l 29
EndSplineSet
Refer: 49 121 N 1 0 0 1 0 0 2
EndChar

StartChar: Ycircumflex
Encoding: 374 374 277
Width: 20
VWidth: 0
Flags: HW
LayerCount: 2
Fore
SplineSet
12 26 m 29
 8 26 l 29
 8 28 l 29
 12 32 l 29
 16 32 l 29
 16 30 l 29
 12 26 l 29
EndSplineSet
Refer: 38 89 N 1 0 0 1 0 0 2
EndChar

StartChar: Ydieresis
Encoding: 376 376 278
Width: 20
VWidth: 0
Flags: HW
LayerCount: 2
Fore
SplineSet
8 30 m 29
 8 26 l 29
 4 26 l 29
 4 30 l 29
 8 30 l 29
12 26 m 29
 12 30 l 29
 16 30 l 29
 16 26 l 29
 12 26 l 29
EndSplineSet
Refer: 38 89 N 1 0 0 1 0 0 2
EndChar

StartChar: Tcommaaccent
Encoding: 354 354 279
Width: 20
VWidth: 0
Flags: HW
LayerCount: 2
Fore
SplineSet
4 -6 m 29
 4 -2 l 29
 8 -2 l 29
 8 2 l 29
 12 2 l 29
 12 -3 l 29
 9 -6 l 29
 4 -6 l 29
EndSplineSet
Refer: 19 84 N 1 0 0 1 0 0 2
EndChar

StartChar: Tcaron
Encoding: 356 356 280
Width: 20
VWidth: 0
Flags: HW
LayerCount: 2
Fore
SplineSet
10 30 m 29
 12 32 l 29
 16 32 l 29
 16 30 l 29
 12 26 l 29
 8 26 l 29
 4 30 l 29
 4 32 l 29
 8 32 l 29
 10 30 l 29
EndSplineSet
Refer: 19 84 N 1 0 0 1 0 0 2
EndChar

StartChar: tcommaaccent
Encoding: 355 355 282
Width: 20
VWidth: 0
Flags: HW
LayerCount: 2
Fore
SplineSet
6 -6 m 29
 6 -2 l 29
 10 -2 l 29
 10 2 l 29
 14 2 l 29
 14 -3 l 29
 11 -6 l 29
 6 -6 l 29
EndSplineSet
Refer: 63 116 N 1 0 0 1 0 0 2
EndChar

StartChar: tcaron
Encoding: 357 357 283
Width: 20
VWidth: 0
Flags: HW
LayerCount: 2
Fore
SplineSet
10 30 m 29
 12 32 l 29
 16 32 l 29
 16 30 l 29
 12 26 l 29
 8 26 l 29
 4 30 l 29
 4 32 l 29
 8 32 l 29
 10 30 l 29
EndSplineSet
Refer: 63 116 N 1 0 0 1 0 0 2
EndChar

StartChar: tbar
Encoding: 359 359 284
Width: 20
VWidth: 0
Flags: HW
LayerCount: 2
Fore
SplineSet
18 0 m 25
 10 0 l 25
 6 4 l 25
 6 10 l 25
 2 10 l 25
 2 14 l 25
 6 14 l 17
 6 16 l 1
 2 16 l 1
 2 20 l 1
 6 20 l 1
 6 24 l 9
 10 24 l 17
 10 20 l 1
 16 20 l 1
 16 16 l 1
 10 16 l 1
 10 14 l 9
 16 14 l 25
 16 10 l 25
 10 10 l 25
 10 6 l 25
 12 4 l 25
 18 4 l 25
 18 0 l 25
EndSplineSet
EndChar

StartChar: Nacute
Encoding: 323 323 285
Width: 20
VWidth: 0
Flags: HW
LayerCount: 2
Fore
SplineSet
12 26 m 29
 8 26 l 29
 8 28 l 29
 12 32 l 29
 16 32 l 29
 16 30 l 29
 12 26 l 29
EndSplineSet
Refer: 30 78 N 1 0 0 1 0 0 2
EndChar

StartChar: Ncommaaccent
Encoding: 325 325 286
Width: 20
VWidth: 0
Flags: HW
LayerCount: 2
Fore
SplineSet
2 -6 m 29
 2 -2 l 29
 6 -2 l 21
 6 0 l 5
 2 0 l 5
 2 4 l 5
 7 4 l 13
 10 1 l 29
 10 -3 l 29
 7 -6 l 29
 2 -6 l 29
EndSplineSet
Refer: 30 78 N 1 0 0 1 0 0 2
EndChar

StartChar: Ncaron
Encoding: 327 327 287
Width: 20
VWidth: 0
Flags: HW
LayerCount: 2
Fore
SplineSet
10 30 m 29
 12 32 l 29
 16 32 l 29
 16 30 l 29
 12 26 l 29
 8 26 l 29
 4 30 l 29
 4 32 l 29
 8 32 l 29
 10 30 l 29
EndSplineSet
Refer: 30 78 N 1 0 0 1 0 0 2
EndChar

StartChar: nacute
Encoding: 324 324 288
Width: 20
VWidth: 0
Flags: HW
LayerCount: 2
Fore
SplineSet
12 18 m 29
 8 18 l 29
 8 20 l 29
 12 24 l 29
 16 24 l 29
 16 22 l 29
 12 18 l 29
EndSplineSet
Refer: 4 110 N 1 0 0 1 0 0 2
EndChar

StartChar: ncommaaccent
Encoding: 326 326 289
Width: 20
VWidth: 0
Flags: HW
LayerCount: 2
Fore
SplineSet
2 -6 m 29
 2 -2 l 29
 6 -2 l 21
 6 0 l 5
 2 0 l 5
 2 4 l 5
 7 4 l 13
 10 1 l 29
 10 -3 l 29
 7 -6 l 29
 2 -6 l 29
EndSplineSet
Refer: 4 110 N 1 0 0 1 0 0 2
EndChar

StartChar: ncaron
Encoding: 328 328 290
Width: 20
VWidth: 0
Flags: HW
LayerCount: 2
Fore
SplineSet
10 22 m 29
 12 24 l 29
 16 24 l 29
 16 22 l 29
 12 18 l 29
 8 18 l 29
 4 22 l 29
 4 24 l 29
 8 24 l 29
 10 22 l 29
EndSplineSet
Refer: 4 110 N 1 0 0 1 0 0 2
EndChar

StartChar: Hcircumflex
Encoding: 292 292 291
Width: 20
VWidth: 0
Flags: HW
LayerCount: 2
Fore
SplineSet
10 28 m 29
 8 26 l 29
 4 26 l 29
 4 28 l 29
 8 32 l 29
 12 32 l 29
 16 28 l 29
 16 26 l 29
 12 26 l 29
 10 28 l 29
EndSplineSet
Refer: 9 72 N 1 0 0 1 0 0 2
EndChar

StartChar: Hbar
Encoding: 294 294 292
Width: 20
VWidth: 0
Flags: HW
LayerCount: 2
Fore
SplineSet
4 16 m 29
 4 20 l 25
 16 20 l 25
 16 16 l 25
 4 16 l 29
EndSplineSet
Refer: 9 72 N 1 0 0 1 0 0 2
EndChar

StartChar: hcircumflex
Encoding: 293 293 293
Width: 20
VWidth: 0
Flags: HW
LayerCount: 2
Fore
SplineSet
10 28 m 29
 8 26 l 29
 4 26 l 29
 4 28 l 29
 8 32 l 29
 12 32 l 29
 16 28 l 29
 16 26 l 29
 12 26 l 29
 10 28 l 29
EndSplineSet
Refer: 47 104 N 1 0 0 1 0 0 2
EndChar

StartChar: hbar
Encoding: 295 295 294
Width: 20
VWidth: 0
Flags: HW
LayerCount: 2
Fore
SplineSet
4 18 m 29
 4 22 l 25
 18 22 l 25
 18 18 l 25
 4 18 l 29
EndSplineSet
Refer: 47 104 N 1 0 0 1 0 0 2
EndChar

StartChar: lacute
Encoding: 314 314 295
Width: 20
VWidth: 0
Flags: HW
LayerCount: 2
Fore
SplineSet
12 26 m 29
 8 26 l 29
 8 28 l 29
 12 32 l 29
 16 32 l 29
 16 30 l 29
 12 26 l 29
EndSplineSet
Refer: 55 108 N 1 0 0 1 0 0 2
EndChar

StartChar: lcommaaccent
Encoding: 316 316 296
Width: 20
VWidth: 0
Flags: HW
LayerCount: 2
Fore
SplineSet
8 -6 m 25
 8 -2 l 25
 12 -2 l 25
 12 2 l 25
 16 2 l 25
 16 -3 l 25
 13 -6 l 25
 8 -6 l 25
EndSplineSet
Refer: 55 108 N 1 0 0 1 0 0 2
EndChar

StartChar: lcaron
Encoding: 318 318 297
Width: 20
VWidth: 0
Flags: HW
LayerCount: 2
Fore
SplineSet
10 30 m 29
 12 32 l 29
 16 32 l 29
 16 30 l 29
 12 26 l 29
 8 26 l 29
 4 30 l 29
 4 32 l 29
 8 32 l 29
 10 30 l 29
EndSplineSet
Refer: 55 108 N 1 0 0 1 0 0 2
EndChar

StartChar: ldot
Encoding: 320 320 298
Width: 20
VWidth: 0
Flags: HW
LayerCount: 2
Fore
SplineSet
12 14 m 25
 16 14 l 25
 16 10 l 25
 12 10 l 25
 12 14 l 25
EndSplineSet
Refer: 55 108 N 1 0 0 1 -2 0 2
EndChar

StartChar: lslash
Encoding: 322 322 299
Width: 20
VWidth: 0
Flags: HW
LayerCount: 2
Fore
SplineSet
2 5 m 29
 2 7 l 29
 14 19 l 29
 18 19 l 29
 18 17 l 29
 6 5 l 29
 2 5 l 29
EndSplineSet
Refer: 55 108 N 1 0 0 1 0 0 2
EndChar

StartChar: Lacute
Encoding: 313 313 300
Width: 20
VWidth: 0
Flags: HW
LayerCount: 2
Fore
SplineSet
12 26 m 29
 8 26 l 29
 8 28 l 29
 12 32 l 29
 16 32 l 29
 16 30 l 29
 12 26 l 29
EndSplineSet
Refer: 5 76 N 1 0 0 1 0 0 2
EndChar

StartChar: Lcommaaccent
Encoding: 315 315 301
Width: 20
VWidth: 0
Flags: HW
LayerCount: 2
Fore
SplineSet
4 -6 m 29
 4 -2 l 29
 8 -2 l 29
 8 2 l 29
 12 2 l 29
 12 -3 l 29
 9 -6 l 29
 4 -6 l 29
EndSplineSet
Refer: 5 76 N 1 0 0 1 0 0 2
EndChar

StartChar: Lcaron
Encoding: 317 317 302
Width: 20
VWidth: 0
Flags: HW
LayerCount: 2
Fore
SplineSet
10 30 m 29
 12 32 l 29
 16 32 l 29
 16 30 l 29
 12 26 l 29
 8 26 l 29
 4 30 l 29
 4 32 l 29
 8 32 l 29
 10 30 l 29
EndSplineSet
Refer: 5 76 N 1 0 0 1 0 0 2
EndChar

StartChar: Ldot
Encoding: 319 319 303
Width: 20
VWidth: 0
Flags: HW
LayerCount: 2
Fore
SplineSet
8 14 m 29
 12 14 l 25
 12 10 l 25
 8 10 l 25
 8 14 l 29
EndSplineSet
Refer: 5 76 N 1 0 0 1 0 0 2
EndChar

StartChar: Lslash
Encoding: 321 321 304
Width: 20
VWidth: 0
Flags: HW
LayerCount: 2
Fore
SplineSet
2 5 m 29
 2 7 l 29
 14 19 l 29
 18 19 l 29
 18 17 l 29
 6 5 l 29
 2 5 l 29
EndSplineSet
Refer: 5 76 N 1 0 0 1 0 0 2
EndChar

StartChar: kcommaaccent
Encoding: 311 311 305
Width: 20
VWidth: 0
Flags: HW
LayerCount: 2
Fore
SplineSet
2 -6 m 29
 2 -2 l 29
 6 -2 l 21
 6 0 l 5
 2 0 l 5
 2 4 l 5
 7 4 l 13
 10 1 l 29
 10 -3 l 29
 7 -6 l 29
 2 -6 l 29
EndSplineSet
Refer: 59 107 N 1 0 0 1 0 0 2
EndChar

StartChar: Kcommaaccent
Encoding: 310 310 306
Width: 20
VWidth: 0
Flags: HW
LayerCount: 2
Fore
SplineSet
2 -6 m 29
 2 -2 l 29
 6 -2 l 21
 6 0 l 5
 2 0 l 5
 2 4 l 5
 7 4 l 13
 10 1 l 29
 10 -3 l 29
 7 -6 l 29
 2 -6 l 29
EndSplineSet
Refer: 51 75 N 1 0 0 1 0 0 2
EndChar

StartChar: kgreenlandic
Encoding: 312 312 307
Width: 20
VWidth: 0
Flags: HW
LayerCount: 2
Fore
SplineSet
18 16 m 25
 18 14 l 25
 12 8 l 25
 18 2 l 25
 18 0 l 25
 14 0 l 25
 8 6 l 25
 6 6 l 25
 6 0 l 25
 2 0 l 25
 2 16 l 25
 6 16 l 25
 6 10 l 25
 8 10 l 25
 14 16 l 25
 18 16 l 25
EndSplineSet
EndChar

StartChar: Jcircumflex
Encoding: 308 308 308
Width: 20
VWidth: 0
Flags: HW
LayerCount: 2
Fore
SplineSet
10 28 m 29
 8 26 l 29
 4 26 l 29
 4 28 l 29
 8 32 l 29
 12 32 l 29
 16 28 l 29
 16 26 l 29
 12 26 l 29
 10 28 l 29
EndSplineSet
Refer: 11 74 N 1 0 0 1 0 0 2
EndChar

StartChar: jcircumflex
Encoding: 309 309 309
Width: 20
VWidth: 0
Flags: HW
LayerCount: 2
Fore
SplineSet
10 20 m 29
 8 18 l 29
 4 18 l 29
 4 20 l 29
 8 24 l 29
 12 24 l 29
 16 20 l 29
 16 18 l 29
 12 18 l 29
 10 20 l 29
6 16 m 25
 14 16 l 25
 14 0 l 25
 10 -4 l 25
 4 -4 l 25
 4 0 l 25
 8 0 l 25
 10 2 l 25
 10 12 l 25
 6 12 l 25
 6 16 l 25
EndSplineSet
EndChar

StartChar: napostrophe
Encoding: 329 329 310
Width: 20
VWidth: 0
Flags: H
LayerCount: 2
Fore
SplineSet
2 24 m 29
 6 24 l 25
 6 12 l 25
 2 12 l 25
 2 24 l 29
8 0 m 25
 8 16 l 25
 15 16 l 25
 18 13 l 25
 18 0 l 25
 14 0 l 25
 14 12 l 25
 12 12 l 25
 12 0 l 25
 8 0 l 25
EndSplineSet
EndChar

StartChar: IJ
Encoding: 306 306 311
Width: 20
VWidth: 0
Flags: H
LayerCount: 2
Fore
SplineSet
2 0 m 29
 2 4 l 25
 4 4 l 25
 4 20 l 25
 2 20 l 25
 2 24 l 25
 10 24 l 25
 10 20 l 25
 8 20 l 25
 8 4 l 25
 12 4 l 25
 14 6 l 25
 14 24 l 25
 18 24 l 25
 18 4 l 25
 14 0 l 25
 2 0 l 29
EndSplineSet
EndChar

StartChar: ij
Encoding: 307 307 312
Width: 20
VWidth: 0
Flags: H
LayerCount: 2
Fore
SplineSet
16 18 m 29
 12 18 l 25
 12 22 l 25
 16 22 l 25
 16 18 l 29
18 16 m 25
 18 -4 l 25
 14 -8 l 25
 10 -8 l 25
 10 -4 l 25
 12 -4 l 25
 14 -2 l 25
 14 12 l 25
 10 12 l 25
 10 16 l 25
 18 16 l 25
8 18 m 25
 4 18 l 25
 4 22 l 25
 8 22 l 25
 8 18 l 25
2 0 m 25
 2 4 l 25
 4 4 l 25
 4 12 l 25
 2 12 l 25
 2 16 l 25
 8 16 l 25
 8 4 l 25
 10 4 l 25
 10 0 l 25
 2 0 l 25
EndSplineSet
EndChar

StartChar: Dcaron
Encoding: 270 270 313
Width: 20
VWidth: 0
Flags: HW
LayerCount: 2
Fore
SplineSet
10 30 m 29
 12 32 l 29
 16 32 l 29
 16 30 l 29
 12 26 l 29
 8 26 l 29
 4 30 l 29
 4 32 l 29
 8 32 l 29
 10 30 l 29
EndSplineSet
Refer: 16 68 N 1 0 0 1 0 0 2
EndChar

StartChar: dcaron
Encoding: 271 271 315
Width: 20
VWidth: 0
Flags: HW
LayerCount: 2
Fore
SplineSet
10 30 m 29
 12 32 l 29
 16 32 l 29
 16 30 l 29
 12 26 l 29
 8 26 l 29
 4 30 l 29
 4 32 l 29
 8 32 l 29
 10 30 l 29
EndSplineSet
Refer: 44 100 N 1 0 0 1 0 0 2
EndChar

StartChar: dcroat
Encoding: 273 273 316
Width: 20
VWidth: 0
Flags: HW
LayerCount: 2
Fore
SplineSet
16 22 m 29
 16 18 l 25
 2 18 l 25
 2 22 l 25
 16 22 l 29
EndSplineSet
Refer: 44 100 N 1 0 0 1 0 0 2
EndChar

StartChar: Eng
Encoding: 330 330 317
Width: 20
VWidth: 0
Flags: H
LayerCount: 2
Fore
SplineSet
2 0 m 25
 2 24 l 25
 14 24 l 25
 18 20 l 25
 18 -4 l 25
 14 -8 l 25
 8 -8 l 25
 8 -4 l 25
 12 -4 l 25
 14 -2 l 25
 14 18 l 25
 12 20 l 25
 6 20 l 25
 6 0 l 25
 2 0 l 25
EndSplineSet
EndChar

StartChar: eng
Encoding: 331 331 318
Width: 20
VWidth: 0
Flags: HW
LayerCount: 2
Fore
SplineSet
2 0 m 25
 2 16 l 25
 14 16 l 25
 18 12 l 25
 18 -4 l 25
 14 -8 l 25
 8 -8 l 25
 8 -4 l 25
 12 -4 l 25
 14 -2 l 25
 14 10 l 25
 12 12 l 25
 6 12 l 25
 6 0 l 25
 2 0 l 25
EndSplineSet
EndChar

StartChar: longs
Encoding: 383 383 319
Width: 20
VWidth: 0
Flags: H
LayerCount: 2
Fore
SplineSet
18 24 m 29
 18 20 l 25
 14 20 l 25
 12 18 l 25
 12 0 l 25
 8 0 l 25
 8 10 l 25
 2 10 l 25
 2 14 l 25
 8 14 l 25
 8 20 l 25
 12 24 l 25
 18 24 l 29
EndSplineSet
EndChar

StartChar: SF110000
Encoding: 9474 9474 320
Width: 20
VWidth: 0
Flags: H
LayerCount: 2
Fore
SplineSet
8 -8 m 29
 8 32 l 25
 12 32 l 25
 12 -8 l 25
 8 -8 l 29
EndSplineSet
EndChar

StartChar: SF100000
Encoding: 9472 9472 321
Width: 20
VWidth: 0
Flags: H
LayerCount: 2
Fore
SplineSet
0 14 m 29
 20 14 l 25
 20 10 l 25
 0 10 l 25
 0 14 l 29
EndSplineSet
EndChar

StartChar: SF010000
Encoding: 9484 9484 322
Width: 20
VWidth: 0
Flags: H
LayerCount: 2
Fore
SplineSet
8 14 m 29
 20 14 l 25
 20 10 l 25
 12 10 l 25
 12 -8 l 25
 8 -8 l 25
 8 14 l 29
EndSplineSet
EndChar

StartChar: SF030000
Encoding: 9488 9488 323
Width: 20
VWidth: 0
Flags: H
LayerCount: 2
Fore
SplineSet
0 14 m 29
 12 14 l 25
 12 -8 l 25
 8 -8 l 25
 8 10 l 25
 0 10 l 25
 0 14 l 29
EndSplineSet
EndChar

StartChar: SF020000
Encoding: 9492 9492 324
Width: 20
VWidth: 0
Flags: H
LayerCount: 2
Fore
SplineSet
8 32 m 29
 12 32 l 25
 12 14 l 25
 20 14 l 25
 20 10 l 25
 8 10 l 25
 8 32 l 29
EndSplineSet
EndChar

StartChar: SF040000
Encoding: 9496 9496 325
Width: 20
VWidth: 0
Flags: H
LayerCount: 2
Fore
SplineSet
8 32 m 29
 12 32 l 25
 12 10 l 25
 0 10 l 25
 0 14 l 25
 8 14 l 25
 8 32 l 29
EndSplineSet
EndChar

StartChar: SF080000
Encoding: 9500 9500 326
Width: 20
VWidth: 0
Flags: H
LayerCount: 2
Fore
SplineSet
8 32 m 29
 12 32 l 25
 12 14 l 25
 20 14 l 25
 20 10 l 25
 12 10 l 25
 12 -8 l 25
 8 -8 l 25
 8 32 l 29
EndSplineSet
EndChar

StartChar: SF090000
Encoding: 9508 9508 327
Width: 20
VWidth: 0
Flags: H
LayerCount: 2
Fore
SplineSet
8 32 m 29
 12 32 l 25
 12 -8 l 25
 8 -8 l 25
 8 10 l 25
 0 10 l 25
 0 14 l 25
 8 14 l 25
 8 32 l 29
EndSplineSet
EndChar

StartChar: SF060000
Encoding: 9516 9516 328
Width: 20
VWidth: 0
Flags: H
LayerCount: 2
Fore
SplineSet
0 14 m 29
 20 14 l 25
 20 10 l 25
 12 10 l 25
 12 -8 l 25
 8 -8 l 25
 8 10 l 25
 0 10 l 25
 0 14 l 29
EndSplineSet
EndChar

StartChar: SF070000
Encoding: 9524 9524 329
Width: 20
VWidth: 0
Flags: H
LayerCount: 2
Fore
SplineSet
0 10 m 29
 0 14 l 25
 8 14 l 25
 8 32 l 25
 12 32 l 25
 12 14 l 25
 20 14 l 25
 20 10 l 25
 0 10 l 29
EndSplineSet
EndChar

StartChar: SF050000
Encoding: 9532 9532 330
Width: 20
VWidth: 0
Flags: H
LayerCount: 2
Fore
SplineSet
8 32 m 29
 12 32 l 25
 12 14 l 25
 20 14 l 25
 20 10 l 25
 12 10 l 25
 12 -8 l 25
 8 -8 l 25
 8 10 l 25
 0 10 l 25
 0 14 l 25
 8 14 l 25
 8 32 l 29
EndSplineSet
EndChar

StartChar: SF430000
Encoding: 9552 9552 331
Width: 20
VWidth: 0
Flags: H
LayerCount: 2
Fore
SplineSet
0 10 m 29
 20 10 l 25
 20 6 l 25
 0 6 l 25
 0 10 l 29
0 14 m 25
 0 18 l 25
 20 18 l 25
 20 14 l 25
 0 14 l 25
EndSplineSet
EndChar

StartChar: SF240000
Encoding: 9553 9553 332
Width: 20
VWidth: 0
Flags: H
LayerCount: 2
Fore
SplineSet
12 -8 m 29
 12 32 l 25
 16 32 l 25
 16 -8 l 25
 12 -8 l 29
8 -8 m 25
 4 -8 l 25
 4 32 l 25
 8 32 l 25
 8 -8 l 25
EndSplineSet
EndChar

StartChar: SF510000
Encoding: 9554 9554 333
Width: 20
VWidth: 0
Flags: H
LayerCount: 2
Fore
SplineSet
8 18 m 29
 20 18 l 25
 20 14 l 25
 12 14 l 25
 12 10 l 25
 20 10 l 25
 20 6 l 25
 12 6 l 25
 12 -8 l 25
 8 -8 l 25
 8 18 l 29
EndSplineSet
EndChar

StartChar: SF520000
Encoding: 9555 9555 334
Width: 20
VWidth: 0
Flags: H
LayerCount: 2
Fore
SplineSet
4 14 m 29
 20 14 l 25
 20 10 l 25
 16 10 l 25
 16 -8 l 25
 12 -8 l 25
 12 10 l 25
 8 10 l 25
 8 -8 l 25
 4 -8 l 25
 4 14 l 29
EndSplineSet
EndChar

StartChar: SF390000
Encoding: 9556 9556 335
Width: 20
VWidth: 0
Flags: H
LayerCount: 2
Fore
SplineSet
20 10 m 29
 20 6 l 25
 16 6 l 25
 16 -8 l 25
 12 -8 l 25
 12 10 l 25
 20 10 l 29
4 18 m 25
 20 18 l 25
 20 14 l 25
 8 14 l 25
 8 -8 l 25
 4 -8 l 25
 4 18 l 25
EndSplineSet
EndChar

StartChar: SF220000
Encoding: 9557 9557 336
Width: 20
VWidth: 0
Flags: H
LayerCount: 2
Fore
SplineSet
0 18 m 29
 12 18 l 25
 12 -8 l 25
 8 -8 l 25
 8 6 l 25
 0 6 l 25
 0 10 l 25
 8 10 l 25
 8 14 l 25
 0 14 l 25
 0 18 l 29
EndSplineSet
EndChar

StartChar: SF210000
Encoding: 9558 9558 337
Width: 20
VWidth: 0
Flags: H
LayerCount: 2
Fore
SplineSet
0 14 m 29
 16 14 l 25
 16 -8 l 25
 12 -8 l 25
 12 10 l 25
 8 10 l 25
 8 -8 l 25
 4 -8 l 25
 4 10 l 25
 0 10 l 25
 0 14 l 29
EndSplineSet
EndChar

StartChar: SF250000
Encoding: 9559 9559 338
Width: 20
VWidth: 0
Flags: H
LayerCount: 2
Fore
SplineSet
0 10 m 29
 8 10 l 25
 8 -8 l 25
 4 -8 l 25
 4 6 l 25
 0 6 l 25
 0 10 l 29
0 18 m 25
 16 18 l 25
 16 -8 l 25
 12 -8 l 25
 12 14 l 25
 0 14 l 25
 0 18 l 25
EndSplineSet
EndChar

StartChar: SF500000
Encoding: 9560 9560 339
Width: 20
VWidth: 0
Flags: H
LayerCount: 2
Fore
SplineSet
8 32 m 29
 12 32 l 25
 12 18 l 25
 20 18 l 25
 20 14 l 25
 12 14 l 25
 12 10 l 25
 20 10 l 25
 20 6 l 25
 8 6 l 25
 8 32 l 29
EndSplineSet
EndChar

StartChar: SF490000
Encoding: 9561 9561 340
Width: 20
VWidth: 0
Flags: H
LayerCount: 2
Fore
SplineSet
4 32 m 29
 8 32 l 25
 8 14 l 25
 12 14 l 25
 12 32 l 25
 16 32 l 25
 16 14 l 25
 20 14 l 25
 20 10 l 25
 4 10 l 25
 4 32 l 29
EndSplineSet
EndChar

StartChar: SF380000
Encoding: 9562 9562 341
Width: 20
VWidth: 0
Flags: H
LayerCount: 2
Fore
SplineSet
8 32 m 29
 8 10 l 25
 20 10 l 25
 20 6 l 25
 4 6 l 25
 4 32 l 25
 8 32 l 29
12 32 m 25
 16 32 l 25
 16 18 l 25
 20 18 l 25
 20 14 l 25
 12 14 l 25
 12 32 l 25
EndSplineSet
EndChar

StartChar: SF280000
Encoding: 9563 9563 342
Width: 20
VWidth: 0
Flags: H
LayerCount: 2
Fore
SplineSet
8 31 m 29
 12 31 l 25
 12 6 l 25
 0 6 l 25
 0 10 l 25
 8 10 l 25
 8 14 l 25
 0 14 l 25
 0 18 l 25
 8 18 l 25
 8 31 l 29
EndSplineSet
EndChar

StartChar: SF270000
Encoding: 9564 9564 343
Width: 20
VWidth: 0
Flags: H
LayerCount: 2
Fore
SplineSet
4 32 m 29
 8 32 l 25
 8 14 l 25
 12 14 l 25
 12 32 l 25
 16 32 l 25
 16 10 l 25
 0 10 l 25
 0 14 l 25
 4 14 l 25
 4 32 l 29
EndSplineSet
EndChar

StartChar: SF260000
Encoding: 9565 9565 344
Width: 20
VWidth: 0
Flags: H
LayerCount: 2
Fore
SplineSet
8 32 m 29
 8 14 l 25
 0 14 l 25
 0 18 l 25
 4 18 l 25
 4 32 l 25
 8 32 l 29
16 32 m 25
 16 6 l 25
 0 6 l 25
 0 10 l 25
 12 10 l 25
 12 32 l 25
 16 32 l 25
EndSplineSet
EndChar

StartChar: SF360000
Encoding: 9566 9566 345
Width: 20
VWidth: 0
Flags: H
LayerCount: 2
Fore
SplineSet
8 -8 m 29
 8 32 l 25
 12 32 l 25
 12 18 l 25
 20 18 l 25
 20 14 l 25
 12 14 l 25
 12 10 l 25
 20 10 l 25
 20 6 l 25
 12 6 l 25
 12 -8 l 25
 8 -8 l 29
EndSplineSet
EndChar

StartChar: SF370000
Encoding: 9567 9567 346
Width: 20
VWidth: 0
Flags: H
LayerCount: 2
Fore
SplineSet
12 -8 m 29
 12 32 l 25
 16 32 l 25
 16 14 l 25
 20 14 l 25
 20 10 l 25
 16 10 l 25
 16 -8 l 25
 12 -8 l 29
4 -8 m 25
 4 32 l 25
 8 32 l 25
 8 -8 l 25
 4 -8 l 25
EndSplineSet
EndChar

StartChar: SF420000
Encoding: 9568 9568 347
Width: 20
VWidth: 0
Flags: H
LayerCount: 2
Fore
SplineSet
20 14 m 29
 12 14 l 25
 12 32 l 25
 16 32 l 25
 16 18 l 25
 20 18 l 25
 20 14 l 29
12 -8 m 25
 12 10 l 25
 20 10 l 25
 20 6 l 25
 16 6 l 25
 16 -8 l 25
 12 -8 l 25
4 -8 m 25
 4 32 l 25
 8 32 l 25
 8 -8 l 25
 4 -8 l 25
EndSplineSet
EndChar

StartChar: SF190000
Encoding: 9569 9569 348
Width: 20
VWidth: 0
Flags: H
LayerCount: 2
Fore
SplineSet
12 -8 m 29
 8 -8 l 25
 8 6 l 25
 0 6 l 25
 0 10 l 25
 8 10 l 25
 8 14 l 25
 0 14 l 25
 0 18 l 25
 8 18 l 25
 8 32 l 25
 12 32 l 25
 12 -8 l 29
EndSplineSet
EndChar

StartChar: SF200000
Encoding: 9570 9570 349
Width: 20
VWidth: 0
Flags: H
LayerCount: 2
Fore
SplineSet
8 14 m 29
 0 14 l 25
 0 18 l 25
 4 18 l 25
 4 32 l 25
 8 32 l 25
 8 14 l 29
8 -8 m 25
 4 -8 l 25
 4 6 l 25
 0 6 l 25
 0 10 l 25
 8 10 l 25
 8 -8 l 25
12 -8 m 25
 12 32 l 25
 16 32 l 25
 16 -8 l 25
 12 -8 l 25
EndSplineSet
EndChar

StartChar: SF230000
Encoding: 9571 9571 350
Width: 20
VWidth: 0
Flags: H
LayerCount: 2
Fore
SplineSet
8 14 m 29
 0 14 l 25
 0 18 l 25
 4 18 l 25
 4 32 l 25
 8 32 l 25
 8 14 l 29
8 -8 m 25
 4 -8 l 25
 4 6 l 25
 0 6 l 25
 0 10 l 25
 8 10 l 25
 8 -8 l 25
16 -8 m 25
 12 -8 l 25
 12 32 l 25
 16 32 l 25
 16 -8 l 25
EndSplineSet
EndChar

StartChar: SF470000
Encoding: 9572 9572 351
Width: 20
VWidth: 0
Flags: HW
LayerCount: 2
Fore
SplineSet
0 10 m 29
 20 10 l 25
 20 6 l 25
 12 6 l 25
 12 -8 l 25
 8 -8 l 25
 8 6 l 25
 0 6 l 25
 0 10 l 29
0 18 m 25
 20 18 l 25
 20 14 l 25
 0 14 l 25
 0 18 l 25
EndSplineSet
EndChar

StartChar: SF410000
Encoding: 9574 9574 352
Width: 20
VWidth: 0
Flags: HW
LayerCount: 2
Fore
SplineSet
12 -8 m 29
 12 10 l 25
 20 10 l 25
 20 6 l 25
 16 6 l 25
 16 -8 l 25
 12 -8 l 29
0 10 m 25
 8 10 l 25
 8 -8 l 25
 4 -8 l 25
 4 6 l 25
 0 6 l 25
 0 10 l 25
0 14 m 25
 0 18 l 25
 20 18 l 25
 20 14 l 25
 0 14 l 25
EndSplineSet
EndChar

StartChar: SF480000
Encoding: 9573 9573 353
Width: 20
VWidth: 0
Flags: H
LayerCount: 2
Fore
SplineSet
0 14 m 29
 20 14 l 25
 20 10 l 25
 16 10 l 25
 16 -8 l 25
 12 -8 l 25
 12 10 l 25
 8 10 l 25
 8 -8 l 25
 4 -8 l 25
 4 10 l 25
 0 10 l 25
 0 14 l 29
EndSplineSet
EndChar

StartChar: SF450000
Encoding: 9575 9575 354
Width: 20
VWidth: 0
Flags: H
LayerCount: 2
Fore
SplineSet
0 14 m 29
 0 18 l 25
 8 18 l 25
 8 32 l 25
 12 32 l 25
 12 18 l 25
 20 18 l 25
 20 14 l 25
 0 14 l 29
0 10 m 25
 20 10 l 25
 20 6 l 25
 0 6 l 25
 0 10 l 25
EndSplineSet
EndChar

StartChar: SF460000
Encoding: 9576 9576 355
Width: 20
VWidth: 0
Flags: H
LayerCount: 2
Fore
SplineSet
0 10 m 29
 0 14 l 25
 4 14 l 25
 4 32 l 25
 8 32 l 25
 8 14 l 25
 12 14 l 25
 12 32 l 25
 16 32 l 25
 16 14 l 25
 20 14 l 25
 20 10 l 25
 0 10 l 29
EndSplineSet
EndChar

StartChar: SF400000
Encoding: 9577 9577 356
Width: 20
VWidth: 0
Flags: H
LayerCount: 2
Fore
SplineSet
12 14 m 29
 12 32 l 25
 16 32 l 25
 16 18 l 25
 20 18 l 25
 20 14 l 25
 12 14 l 29
0 14 m 25
 0 18 l 25
 4 18 l 25
 4 32 l 25
 8 32 l 25
 8 14 l 25
 0 14 l 25
0 10 m 25
 20 10 l 25
 20 6 l 25
 0 6 l 25
 0 10 l 25
EndSplineSet
EndChar

StartChar: SF540000
Encoding: 9578 9578 357
Width: 20
VWidth: 0
Flags: H
LayerCount: 2
Fore
SplineSet
0 14 m 29
 0 18 l 25
 8 18 l 25
 8 32 l 25
 12 32 l 25
 12 18 l 25
 20 18 l 25
 20 14 l 25
 0 14 l 29
0 10 m 25
 20 10 l 25
 20 6 l 25
 12 6 l 25
 12 -8 l 25
 8 -8 l 25
 8 6 l 25
 0 6 l 25
 0 10 l 25
EndSplineSet
EndChar

StartChar: SF530000
Encoding: 9579 9579 358
Width: 20
VWidth: 0
Flags: H
LayerCount: 2
Fore
SplineSet
12 -8 m 29
 12 32 l 25
 16 32 l 25
 16 14 l 25
 20 14 l 25
 20 10 l 25
 16 10 l 25
 16 -8 l 25
 12 -8 l 29
0 10 m 25
 0 14 l 25
 4 14 l 25
 4 32 l 25
 8 32 l 25
 8 -8 l 25
 4 -8 l 25
 4 10 l 25
 0 10 l 25
EndSplineSet
EndChar

StartChar: SF440000
Encoding: 9580 9580 359
Width: 20
VWidth: 0
Flags: H
LayerCount: 2
Fore
SplineSet
12 14 m 29
 12 32 l 25
 16 32 l 25
 16 18 l 25
 20 18 l 25
 20 14 l 25
 12 14 l 29
8 14 m 25
 0 14 l 25
 0 18 l 25
 4 18 l 25
 4 32 l 25
 8 32 l 25
 8 14 l 25
12 -8 m 25
 12 10 l 25
 20 10 l 25
 20 6 l 25
 16 6 l 25
 16 -8 l 25
 12 -8 l 25
8 -8 m 25
 4 -8 l 25
 4 6 l 25
 0 6 l 25
 0 10 l 25
 8 10 l 25
 8 -8 l 25
EndSplineSet
EndChar

StartChar: uni256D
Encoding: 9581 9581 360
Width: 20
VWidth: 0
Flags: H
LayerCount: 2
Fore
SplineSet
20 14 m 25
 20 10 l 25
 16 10 l 25
 12 6 l 25
 12 -8 l 25
 8 -8 l 25
 8 8 l 25
 14 14 l 25
 20 14 l 25
EndSplineSet
EndChar

StartChar: uni256E
Encoding: 9582 9582 361
Width: 20
VWidth: 0
Flags: H
LayerCount: 2
Fore
SplineSet
8 -8 m 29
 8 6 l 25
 4 10 l 25
 0 10 l 25
 0 14 l 25
 6 14 l 25
 12 8 l 25
 12 -8 l 25
 8 -8 l 29
EndSplineSet
EndChar

StartChar: uni256F
Encoding: 9583 9583 362
Width: 20
VWidth: 0
Flags: HW
LayerCount: 2
Fore
SplineSet
0 10 m 29
 0 14 l 25
 4 14 l 25
 8 18 l 25
 8 32 l 25
 12 32 l 25
 12 16 l 25
 6 10 l 25
 0 10 l 29
EndSplineSet
EndChar

StartChar: uni2570
Encoding: 9584 9584 363
Width: 20
VWidth: 0
Flags: HW
LayerCount: 2
Fore
SplineSet
20 14 m 29
 20 10 l 25
 14 10 l 25
 8 16 l 25
 8 32 l 25
 12 32 l 25
 12 18 l 25
 16 14 l 25
 20 14 l 29
EndSplineSet
EndChar

StartChar: uni254C
Encoding: 9548 9548 364
Width: 20
VWidth: 0
Flags: H
LayerCount: 2
Fore
SplineSet
12 10 m 25
 12 14 l 25
 20 14 l 25
 20 10 l 29
 12 10 l 25
0 14 m 25
 8 14 l 25
 8 10 l 25
 0 10 l 25
 0 14 l 25
EndSplineSet
EndChar

StartChar: uni254E
Encoding: 9550 9550 365
Width: 20
VWidth: 0
Flags: H
LayerCount: 2
Fore
SplineSet
8 14 m 29
 8 32 l 25
 12 32 l 25
 12 14 l 25
 8 14 l 29
8 10 m 25
 12 10 l 25
 12 -8 l 25
 8 -8 l 25
 8 10 l 25
EndSplineSet
EndChar

StartChar: uni2574
Encoding: 9588 9588 366
Width: 20
VWidth: 0
Flags: H
LayerCount: 2
Fore
SplineSet
12 14 m 29
 12 10 l 25
 0 10 l 25
 0 14 l 25
 12 14 l 29
EndSplineSet
EndChar

StartChar: uni2575
Encoding: 9589 9589 367
Width: 20
VWidth: 0
Flags: H
LayerCount: 2
Fore
SplineSet
8 10 m 29
 8 32 l 25
 12 32 l 25
 12 10 l 25
 8 10 l 29
EndSplineSet
EndChar

StartChar: uni2576
Encoding: 9590 9590 368
Width: 20
VWidth: 0
Flags: H
LayerCount: 2
Fore
SplineSet
8 10 m 29
 8 14 l 25
 20 14 l 25
 20 10 l 25
 8 10 l 29
EndSplineSet
EndChar

StartChar: uni2577
Encoding: 9591 9591 369
Width: 20
VWidth: 0
Flags: H
LayerCount: 2
Fore
SplineSet
8 14 m 25
 12 14 l 25
 12 -8 l 25
 8 -8 l 29
 8 14 l 25
EndSplineSet
EndChar

StartChar: uni2501
Encoding: 9473 9473 370
Width: 20
VWidth: 0
Flags: H
LayerCount: 2
Fore
SplineSet
0 8 m 25
 0 16 l 25
 20 16 l 25
 20 8 l 29
 0 8 l 25
EndSplineSet
EndChar

StartChar: uni2503
Encoding: 9475 9475 371
Width: 20
VWidth: 0
Flags: H
LayerCount: 2
Fore
SplineSet
14 -8 m 29
 6 -8 l 25
 6 32 l 25
 14 32 l 25
 14 -8 l 29
EndSplineSet
EndChar

StartChar: uni250D
Encoding: 9485 9485 372
Width: 20
VWidth: 0
Flags: H
LayerCount: 2
Fore
SplineSet
8 -8 m 29
 8 16 l 25
 20 16 l 25
 20 8 l 25
 12 8 l 25
 12 -8 l 25
 8 -8 l 29
EndSplineSet
EndChar

StartChar: uni250E
Encoding: 9486 9486 373
Width: 20
VWidth: 0
Flags: H
LayerCount: 2
Fore
SplineSet
6 -8 m 29
 6 14 l 25
 20 14 l 25
 20 10 l 25
 14 10 l 25
 14 -8 l 25
 6 -8 l 29
EndSplineSet
EndChar

StartChar: uni250F
Encoding: 9487 9487 374
Width: 20
VWidth: 0
Flags: H
LayerCount: 2
Fore
SplineSet
6 -8 m 29
 6 16 l 25
 20 16 l 25
 20 8 l 25
 14 8 l 25
 14 -8 l 25
 6 -8 l 29
EndSplineSet
EndChar

StartChar: uni2511
Encoding: 9489 9489 375
Width: 20
VWidth: 0
Flags: H
LayerCount: 2
Fore
SplineSet
0 16 m 29
 12 16 l 25
 12 -8 l 25
 8 -8 l 25
 8 8 l 25
 0 8 l 25
 0 16 l 29
EndSplineSet
EndChar

StartChar: uni2512
Encoding: 9490 9490 376
Width: 20
VWidth: 0
Flags: H
LayerCount: 2
Fore
SplineSet
0 14 m 29
 14 14 l 25
 14 -8 l 25
 6 -8 l 25
 6 10 l 25
 0 10 l 25
 0 14 l 29
EndSplineSet
EndChar

StartChar: uni2513
Encoding: 9491 9491 377
Width: 20
VWidth: 0
Flags: H
LayerCount: 2
Fore
SplineSet
0 16 m 29
 14 16 l 25
 14 -8 l 25
 6 -8 l 25
 6 7 l 25
 0 7 l 25
 0 16 l 29
EndSplineSet
EndChar

StartChar: uni2515
Encoding: 9493 9493 378
Width: 20
VWidth: 0
Flags: H
LayerCount: 2
Fore
SplineSet
8 32 m 25
 12 32 l 25
 12 16 l 25
 20 16 l 25
 20 8 l 25
 8 8 l 29
 8 32 l 25
EndSplineSet
EndChar

StartChar: uni2516
Encoding: 9494 9494 379
Width: 20
VWidth: 0
Flags: H
LayerCount: 2
Fore
SplineSet
6 32 m 29
 14 32 l 25
 14 14 l 25
 20 14 l 25
 20 10 l 25
 6 10 l 25
 6 32 l 29
EndSplineSet
EndChar

StartChar: uni2517
Encoding: 9495 9495 380
Width: 20
VWidth: 0
Flags: H
LayerCount: 2
Fore
SplineSet
6 32 m 29
 14 32 l 25
 14 16 l 25
 20 16 l 25
 20 8 l 25
 6 8 l 25
 6 32 l 29
EndSplineSet
EndChar

StartChar: uni2519
Encoding: 9497 9497 381
Width: 20
VWidth: 0
Flags: H
LayerCount: 2
Fore
SplineSet
8 32 m 29
 12 32 l 25
 12 8 l 25
 0 8 l 25
 0 16 l 25
 8 16 l 25
 8 32 l 29
EndSplineSet
EndChar

StartChar: uni251A
Encoding: 9498 9498 382
Width: 20
VWidth: 0
Flags: H
LayerCount: 2
Fore
SplineSet
6 32 m 29
 14 32 l 25
 14 10 l 25
 0 10 l 25
 0 14 l 25
 6 14 l 25
 6 32 l 29
EndSplineSet
EndChar

StartChar: uni251B
Encoding: 9499 9499 383
Width: 20
VWidth: 0
Flags: H
LayerCount: 2
Fore
SplineSet
6 32 m 29
 14 32 l 25
 14 8 l 25
 0 8 l 25
 0 16 l 25
 6 16 l 25
 6 32 l 29
EndSplineSet
EndChar

StartChar: uni251D
Encoding: 9501 9501 384
Width: 20
VWidth: 0
Flags: H
LayerCount: 2
Fore
SplineSet
8 -8 m 29
 8 32 l 25
 12 32 l 25
 12 16 l 25
 20 16 l 25
 20 8 l 25
 12 8 l 25
 12 -8 l 25
 8 -8 l 29
EndSplineSet
EndChar

StartChar: uni2520
Encoding: 9504 9504 385
Width: 20
VWidth: 0
Flags: H
LayerCount: 2
Fore
SplineSet
6 -8 m 29
 6 32 l 25
 14 32 l 25
 14 14 l 25
 20 14 l 25
 20 10 l 25
 14 10 l 25
 14 -8 l 25
 6 -8 l 29
EndSplineSet
EndChar

StartChar: uni2523
Encoding: 9507 9507 386
Width: 20
VWidth: 0
Flags: H
LayerCount: 2
Fore
SplineSet
14 -8 m 29
 6 -8 l 25
 6 32 l 25
 14 32 l 25
 14 16 l 25
 20 16 l 25
 20 8 l 25
 14 8 l 25
 14 -8 l 29
EndSplineSet
EndChar

StartChar: uni254B
Encoding: 9547 9547 387
Width: 20
VWidth: 0
Flags: H
LayerCount: 2
Fore
SplineSet
6 -8 m 29
 6 8 l 25
 0 8 l 25
 0 16 l 25
 6 16 l 25
 6 32 l 25
 14 32 l 25
 14 16 l 25
 20 16 l 25
 20 8 l 25
 14 8 l 25
 14 -8 l 25
 6 -8 l 29
EndSplineSet
EndChar

StartChar: uni254A
Encoding: 9546 9546 388
Width: 20
VWidth: 0
Flags: H
LayerCount: 2
Fore
SplineSet
6 -8 m 29
 6 10 l 25
 0 10 l 25
 0 14 l 25
 6 14 l 25
 6 32 l 25
 14 32 l 25
 14 16 l 25
 20 16 l 25
 20 8 l 25
 14 8 l 25
 14 -8 l 25
 6 -8 l 29
EndSplineSet
EndChar

StartChar: uni2549
Encoding: 9545 9545 389
Width: 20
VWidth: 0
Flags: H
LayerCount: 2
Fore
SplineSet
6 -8 m 29
 6 8 l 25
 0 8 l 25
 0 16 l 25
 6 16 l 25
 6 32 l 25
 14 32 l 25
 14 14 l 25
 20 14 l 25
 20 10 l 25
 14 10 l 25
 14 -8 l 25
 6 -8 l 29
EndSplineSet
EndChar

StartChar: uni2547
Encoding: 9543 9543 390
Width: 20
VWidth: 0
Flags: H
LayerCount: 2
Fore
SplineSet
0 8 m 29
 0 16 l 25
 6 16 l 25
 6 32 l 25
 14 32 l 25
 14 16 l 25
 20 16 l 25
 20 8 l 25
 12 8 l 25
 12 -8 l 25
 8 -8 l 25
 8 8 l 25
 0 8 l 29
EndSplineSet
EndChar

StartChar: uni2548
Encoding: 9544 9544 391
Width: 20
VWidth: 0
Flags: H
LayerCount: 2
Fore
SplineSet
0 8 m 29
 0 16 l 25
 8 16 l 25
 8 32 l 25
 12 32 l 25
 12 16 l 25
 20 16 l 25
 20 8 l 25
 14 8 l 25
 14 -8 l 25
 6 -8 l 25
 6 8 l 25
 0 8 l 29
EndSplineSet
EndChar

StartChar: uni2538
Encoding: 9528 9528 392
Width: 20
VWidth: 0
Flags: H
LayerCount: 2
Fore
SplineSet
0 10 m 29
 0 14 l 25
 6 14 l 25
 6 32 l 25
 14 32 l 25
 14 14 l 25
 20 14 l 25
 20 10 l 25
 0 10 l 29
EndSplineSet
EndChar

StartChar: uni2537
Encoding: 9527 9527 393
Width: 20
VWidth: 0
Flags: H
LayerCount: 2
Fore
SplineSet
0 8 m 29
 0 16 l 25
 8 16 l 25
 8 32 l 25
 12 32 l 25
 12 16 l 25
 20 16 l 25
 20 8 l 25
 0 8 l 29
EndSplineSet
EndChar

StartChar: uni253B
Encoding: 9531 9531 394
Width: 20
VWidth: 0
Flags: H
LayerCount: 2
Fore
SplineSet
0 8 m 29
 0 16 l 25
 6 16 l 25
 6 32 l 25
 14 32 l 25
 14 16 l 25
 20 16 l 25
 20 8 l 25
 0 8 l 29
EndSplineSet
EndChar

StartChar: uni2525
Encoding: 9509 9509 395
Width: 20
VWidth: 0
Flags: H
LayerCount: 2
Fore
SplineSet
12 -8 m 29
 8 -8 l 25
 8 8 l 25
 0 8 l 25
 0 16 l 25
 8 16 l 25
 8 32 l 25
 12 32 l 25
 12 -8 l 29
EndSplineSet
EndChar

StartChar: uni2528
Encoding: 9512 9512 396
Width: 20
VWidth: 0
Flags: H
LayerCount: 2
Fore
SplineSet
6 -8 m 29
 6 10 l 25
 0 10 l 25
 0 14 l 25
 6 14 l 25
 6 32 l 25
 14 32 l 25
 14 -8 l 25
 6 -8 l 29
EndSplineSet
EndChar

StartChar: uni252B
Encoding: 9515 9515 397
Width: 20
VWidth: 0
Flags: H
LayerCount: 2
Fore
SplineSet
6 -8 m 29
 6 8 l 25
 0 8 l 25
 0 16 l 25
 6 16 l 25
 6 32 l 25
 14 32 l 25
 14 -8 l 25
 6 -8 l 29
EndSplineSet
EndChar

StartChar: uni253F
Encoding: 9535 9535 398
Width: 20
VWidth: 0
Flags: H
LayerCount: 2
Fore
SplineSet
0 8 m 29
 0 16 l 25
 8 16 l 25
 8 32 l 25
 12 32 l 25
 12 16 l 25
 20 16 l 25
 20 8 l 25
 12 8 l 25
 12 -8 l 25
 8 -8 l 25
 8 8 l 25
 0 8 l 29
EndSplineSet
EndChar

StartChar: uni2542
Encoding: 9538 9538 399
Width: 20
VWidth: 0
Flags: H
LayerCount: 2
Fore
SplineSet
0 10 m 29
 0 14 l 25
 6 14 l 25
 6 32 l 25
 14 32 l 25
 14 14 l 25
 20 14 l 25
 20 10 l 25
 14 10 l 25
 14 -8 l 25
 6 -8 l 25
 6 10 l 25
 0 10 l 29
EndSplineSet
EndChar

StartChar: uni2533
Encoding: 9523 9523 400
Width: 20
VWidth: 0
Flags: H
LayerCount: 2
Fore
SplineSet
0 16 m 29
 20 16 l 25
 20 8 l 25
 14 8 l 25
 14 -8 l 25
 6 -8 l 25
 6 8 l 25
 0 8 l 25
 0 16 l 29
EndSplineSet
EndChar

StartChar: uni252F
Encoding: 9519 9519 401
Width: 20
VWidth: 0
Flags: H
LayerCount: 2
Fore
SplineSet
0 16 m 29
 20 16 l 25
 20 8 l 25
 12 8 l 25
 12 -8 l 25
 8 -8 l 25
 8 8 l 25
 0 8 l 25
 0 16 l 29
EndSplineSet
EndChar

StartChar: uni2530
Encoding: 9520 9520 402
Width: 20
VWidth: 0
Flags: H
LayerCount: 2
Fore
SplineSet
0 14 m 29
 20 14 l 25
 20 10 l 25
 14 10 l 25
 14 -8 l 25
 6 -8 l 25
 6 10 l 25
 0 10 l 25
 0 14 l 29
EndSplineSet
EndChar

StartChar: uni2521
Encoding: 9505 9505 403
Width: 20
VWidth: 0
Flags: H
LayerCount: 2
Fore
SplineSet
6 32 m 29
 14 32 l 25
 14 16 l 25
 20 16 l 25
 20 8 l 25
 12 8 l 25
 12 -8 l 25
 8 -8 l 25
 8 8 l 25
 6 8 l 25
 6 32 l 29
EndSplineSet
EndChar

StartChar: uni2522
Encoding: 9506 9506 404
Width: 20
VWidth: 0
Flags: H
LayerCount: 2
Fore
SplineSet
8 32 m 25
 12 32 l 25
 12 16 l 25
 20 16 l 25
 20 8 l 25
 14 8 l 25
 14 -8 l 29
 6 -8 l 25
 6 16 l 25
 8 16 l 25
 8 32 l 25
EndSplineSet
EndChar

StartChar: uni2529
Encoding: 9513 9513 405
Width: 20
VWidth: 0
Flags: H
LayerCount: 2
Fore
SplineSet
0 8 m 29
 0 16 l 25
 6 16 l 25
 6 32 l 25
 14 32 l 25
 14 8 l 25
 12 8 l 25
 12 -8 l 25
 8 -8 l 25
 8 8 l 25
 0 8 l 29
EndSplineSet
EndChar

StartChar: uni252A
Encoding: 9514 9514 406
Width: 20
VWidth: 0
Flags: H
LayerCount: 2
Fore
SplineSet
6 -8 m 29
 6 8 l 25
 0 8 l 25
 0 16 l 25
 8 16 l 25
 8 32 l 25
 12 32 l 25
 12 16 l 25
 14 16 l 25
 14 -8 l 25
 6 -8 l 29
EndSplineSet
EndChar

StartChar: uni2531
Encoding: 9521 9521 407
Width: 20
VWidth: 0
Flags: H
LayerCount: 2
Fore
SplineSet
0 8 m 29
 0 16 l 25
 14 16 l 25
 14 14 l 25
 20 14 l 25
 20 10 l 25
 14 10 l 25
 14 -8 l 25
 6 -8 l 25
 6 8 l 25
 0 8 l 29
EndSplineSet
EndChar

StartChar: uni2532
Encoding: 9522 9522 408
Width: 20
VWidth: 0
Flags: H
LayerCount: 2
Fore
SplineSet
0 10 m 29
 0 14 l 25
 6 14 l 25
 6 16 l 25
 20 16 l 25
 20 8 l 25
 14 8 l 25
 14 -8 l 25
 6 -8 l 25
 6 10 l 25
 0 10 l 29
EndSplineSet
EndChar

StartChar: uni253A
Encoding: 9530 9530 409
Width: 20
VWidth: 0
Flags: H
LayerCount: 2
Fore
SplineSet
0 10 m 29
 0 14 l 25
 6 14 l 25
 6 32 l 25
 14 32 l 25
 14 16 l 25
 20 16 l 25
 20 8 l 25
 6 8 l 25
 6 10 l 25
 0 10 l 29
EndSplineSet
EndChar

StartChar: uni2539
Encoding: 9529 9529 410
Width: 20
VWidth: 0
Flags: H
LayerCount: 2
Fore
SplineSet
0 8 m 29
 0 16 l 25
 6 16 l 25
 6 32 l 25
 14 32 l 25
 14 14 l 25
 20 14 l 25
 20 10 l 25
 14 10 l 25
 14 8 l 25
 0 8 l 29
EndSplineSet
EndChar

StartChar: uni2540
Encoding: 9536 9536 411
Width: 20
VWidth: 0
Flags: H
LayerCount: 2
Fore
SplineSet
0 10 m 25
 0 14 l 25
 6 14 l 25
 6 32 l 25
 14 32 l 25
 14 14 l 25
 20 14 l 25
 20 10 l 25
 12 10 l 25
 12 -8 l 25
 8 -8 l 25
 8 10 l 29
 0 10 l 25
EndSplineSet
EndChar

StartChar: uni2541
Encoding: 9537 9537 412
Width: 20
VWidth: 0
Flags: H
LayerCount: 2
Fore
SplineSet
0 10 m 29
 0 14 l 25
 8 14 l 25
 8 32 l 25
 12 32 l 25
 12 14 l 25
 20 14 l 25
 20 10 l 25
 14 10 l 25
 14 -8 l 25
 6 -8 l 25
 6 10 l 25
 0 10 l 29
EndSplineSet
EndChar

StartChar: uni253D
Encoding: 9533 9533 413
Width: 20
VWidth: 0
Flags: H
LayerCount: 2
Fore
SplineSet
20 14 m 25
 20 10 l 25
 12 10 l 25
 12 -8 l 25
 8 -8 l 25
 8 8 l 25
 0 8 l 25
 0 16 l 25
 8 16 l 25
 8 32 l 25
 12 32 l 25
 12 14 l 29
 20 14 l 25
EndSplineSet
EndChar

StartChar: uni253E
Encoding: 9534 9534 414
Width: 20
VWidth: 0
Flags: H
LayerCount: 2
Fore
SplineSet
8 -8 m 29
 8 10 l 25
 0 10 l 25
 0 14 l 25
 8 14 l 25
 8 32 l 25
 12 32 l 25
 12 16 l 25
 20 16 l 25
 20 8 l 25
 12 8 l 25
 12 -8 l 25
 8 -8 l 29
EndSplineSet
EndChar

StartChar: uni251E
Encoding: 9502 9502 415
Width: 20
VWidth: 0
Flags: H
LayerCount: 2
Fore
SplineSet
20 14 m 29
 20 10 l 25
 12 10 l 25
 12 -8 l 25
 8 -8 l 25
 8 10 l 25
 6 10 l 25
 6 32 l 25
 14 32 l 25
 14 14 l 25
 20 14 l 29
EndSplineSet
EndChar

StartChar: uni251F
Encoding: 9503 9503 416
Width: 20
VWidth: 0
Flags: H
LayerCount: 2
Fore
SplineSet
6 -8 m 29
 6 14 l 25
 8 14 l 25
 8 32 l 25
 12 32 l 25
 12 14 l 25
 20 14 l 25
 20 10 l 25
 14 10 l 25
 14 -8 l 25
 6 -8 l 29
EndSplineSet
EndChar

StartChar: uni2526
Encoding: 9510 9510 417
Width: 20
VWidth: 0
Flags: H
LayerCount: 2
Fore
SplineSet
8 -8 m 29
 8 10 l 25
 0 10 l 25
 0 14 l 25
 6 14 l 25
 6 32 l 25
 14 32 l 25
 14 10 l 25
 12 10 l 25
 12 -8 l 25
 8 -8 l 29
EndSplineSet
EndChar

StartChar: uni2527
Encoding: 9511 9511 418
Width: 20
VWidth: 0
Flags: H
LayerCount: 2
Fore
SplineSet
6 -8 m 29
 6 10 l 25
 0 10 l 25
 0 14 l 25
 8 14 l 25
 8 32 l 25
 12 32 l 25
 12 14 l 25
 14 14 l 25
 14 -8 l 25
 6 -8 l 29
EndSplineSet
EndChar

StartChar: uni252D
Encoding: 9517 9517 419
Width: 20
VWidth: 0
Flags: H
LayerCount: 2
Fore
SplineSet
0 8 m 29
 0 16 l 25
 12 16 l 25
 12 14 l 25
 20 14 l 25
 20 10 l 25
 12 10 l 25
 12 -8 l 25
 8 -8 l 25
 8 8 l 25
 0 8 l 29
EndSplineSet
EndChar

StartChar: uni252E
Encoding: 9518 9518 420
Width: 20
VWidth: 0
Flags: H
LayerCount: 2
Fore
SplineSet
0 10 m 25
 0 14 l 25
 8 14 l 25
 8 16 l 25
 20 16 l 25
 20 8 l 25
 12 8 l 25
 12 -8 l 25
 8 -8 l 29
 8 10 l 25
 0 10 l 25
EndSplineSet
EndChar

StartChar: uni2535
Encoding: 9525 9525 421
Width: 20
VWidth: 0
Flags: H
LayerCount: 2
Fore
SplineSet
0 8 m 29
 0 16 l 25
 8 16 l 25
 8 32 l 25
 12 32 l 25
 12 14 l 25
 20 14 l 25
 20 10 l 25
 12 10 l 25
 12 8 l 25
 0 8 l 29
EndSplineSet
EndChar

StartChar: uni2536
Encoding: 9526 9526 422
Width: 20
VWidth: 0
Flags: H
LayerCount: 2
Fore
SplineSet
0 10 m 25
 0 14 l 25
 8 14 l 25
 8 32 l 25
 12 32 l 25
 12 16 l 25
 20 16 l 25
 20 8 l 29
 8 8 l 25
 8 10 l 25
 0 10 l 25
EndSplineSet
EndChar

StartChar: uni254D
Encoding: 9549 9549 423
Width: 20
VWidth: 0
Flags: H
LayerCount: 2
Fore
SplineSet
12 8 m 25
 12 16 l 25
 20 16 l 25
 20 8 l 25
 12 8 l 25
0 8 m 25
 0 16 l 25
 8 16 l 25
 8 8 l 29
 0 8 l 25
EndSplineSet
EndChar

StartChar: uni254F
Encoding: 9551 9551 424
Width: 20
VWidth: 0
Flags: H
LayerCount: 2
Fore
SplineSet
14 14 m 29
 6 14 l 25
 6 32 l 25
 14 32 l 25
 14 14 l 29
6 -8 m 25
 6 10 l 25
 14 10 l 25
 14 -8 l 25
 6 -8 l 25
EndSplineSet
EndChar

StartChar: uni2504
Encoding: 9476 9476 425
Width: 20
VWidth: 0
Flags: H
LayerCount: 2
Fore
SplineSet
17 10 m 29
 17 14 l 25
 20 14 l 25
 20 10 l 25
 17 10 l 29
7 10 m 25
 7 14 l 25
 13 14 l 25
 13 10 l 25
 7 10 l 25
0 10 m 25
 0 14 l 25
 3 14 l 25
 3 10 l 25
 0 10 l 25
EndSplineSet
EndChar

StartChar: uni2505
Encoding: 9477 9477 426
Width: 20
VWidth: 0
Flags: HW
LayerCount: 2
Fore
SplineSet
17 8 m 25
 17 16 l 29
 20 16 l 29
 20 8 l 25
 17 8 l 25
7 8 m 25
 7 16 l 29
 13 16 l 29
 13 8 l 25
 7 8 l 25
0 8 m 25
 0 16 l 29
 3 16 l 29
 3 8 l 25
 0 8 l 25
EndSplineSet
EndChar

StartChar: uni2506
Encoding: 9478 9478 427
Width: 20
VWidth: 0
Flags: H
LayerCount: 2
Fore
SplineSet
8 20 m 29
 12 20 l 25
 12 4 l 25
 8 4 l 25
 8 20 l 29
8 24 m 25
 8 31 l 25
 12 31 l 25
 12 24 l 25
 8 24 l 25
8 -8 m 25
 8 0 l 25
 12 0 l 25
 12 -8 l 25
 8 -8 l 25
EndSplineSet
EndChar

StartChar: uni2507
Encoding: 9479 9479 428
Width: 20
VWidth: 0
Flags: HW
LayerCount: 2
Fore
SplineSet
6 20 m 25
 14 20 l 29
 14 4 l 29
 6 4 l 25
 6 20 l 25
6 24 m 25
 6 31 l 25
 14 31 l 29
 14 24 l 29
 6 24 l 25
6 -8 m 25
 6 0 l 25
 14 0 l 29
 14 -8 l 29
 6 -8 l 25
EndSplineSet
EndChar

StartChar: uni2508
Encoding: 9480 9480 429
Width: 20
VWidth: 0
Flags: H
LayerCount: 2
Fore
SplineSet
16 14 m 25
 11 14 l 25
 11 10 l 25
 16 10 l 25
 16 14 l 25
4 14 m 25
 4 10 l 25
 9 10 l 25
 9 14 l 25
 4 14 l 25
20 14 m 25
 18 14 l 25
 18 10 l 25
 20 10 l 25
 20 14 l 25
0 14 m 25
 0 10 l 25
 2 10 l 25
 2 14 l 25
 0 14 l 25
EndSplineSet
EndChar

StartChar: uni2509
Encoding: 9481 9481 430
Width: 20
VWidth: 0
Flags: HW
LayerCount: 2
Fore
SplineSet
16 16 m 29
 11 16 l 29
 11 8 l 25
 16 8 l 25
 16 16 l 29
4 16 m 29
 4 8 l 25
 9 8 l 25
 9 16 l 29
 4 16 l 29
20 16 m 29
 18 16 l 29
 18 8 l 25
 20 8 l 25
 20 16 l 29
0 16 m 29
 0 8 l 25
 2 8 l 25
 2 16 l 29
 0 16 l 29
EndSplineSet
EndChar

StartChar: uni250A
Encoding: 9482 9482 431
Width: 20
VWidth: 0
Flags: H
LayerCount: 2
Fore
SplineSet
12 26 m 29
 8 26 l 25
 8 32 l 25
 12 32 l 25
 12 26 l 29
8 -8 m 25
 8 -2 l 25
 12 -2 l 25
 12 -8 l 25
 8 -8 l 25
8 14 m 25
 8 22 l 25
 12 22 l 25
 12 14 l 25
 8 14 l 25
8 10 m 25
 12 10 l 25
 12 2 l 25
 8 2 l 25
 8 10 l 25
EndSplineSet
EndChar

StartChar: uni250B
Encoding: 9483 9483 432
Width: 20
VWidth: 0
Flags: HW
LayerCount: 2
Fore
SplineSet
14 26 m 29
 6 26 l 25
 6 32 l 25
 14 32 l 29
 14 26 l 29
6 -8 m 25
 6 -2 l 25
 14 -2 l 29
 14 -8 l 29
 6 -8 l 25
6 14 m 25
 6 22 l 25
 14 22 l 29
 14 14 l 29
 6 14 l 25
6 10 m 25
 14 10 l 29
 14 2 l 29
 6 2 l 25
 6 10 l 25
EndSplineSet
EndChar

StartChar: uni2578
Encoding: 9592 9592 433
Width: 20
VWidth: 0
Flags: HW
LayerCount: 2
Fore
SplineSet
12 16 m 25
 12 8 l 29
 0 8 l 29
 0 16 l 25
 12 16 l 25
EndSplineSet
EndChar

StartChar: uni2579
Encoding: 9593 9593 434
Width: 20
VWidth: 0
Flags: HW
LayerCount: 2
Fore
SplineSet
6 10 m 25
 6 32 l 25
 14 32 l 29
 14 10 l 29
 6 10 l 25
EndSplineSet
EndChar

StartChar: uni257A
Encoding: 9594 9594 435
Width: 20
VWidth: 0
Flags: HW
LayerCount: 2
Fore
SplineSet
8 8 m 29
 8 16 l 25
 20 16 l 25
 20 8 l 29
 8 8 l 29
EndSplineSet
EndChar

StartChar: uni257B
Encoding: 9595 9595 436
Width: 20
VWidth: 0
Flags: HW
LayerCount: 2
Fore
SplineSet
6 14 m 25
 14 14 l 29
 14 -8 l 29
 6 -8 l 25
 6 14 l 25
EndSplineSet
EndChar

StartChar: uni2543
Encoding: 9539 9539 437
Width: 20
VWidth: 0
Flags: H
LayerCount: 2
Fore
SplineSet
0 8 m 25
 0 16 l 25
 6 16 l 25
 6 32 l 25
 14 32 l 17
 14 14 l 1
 20 14 l 1
 20 10 l 5
 14 10 l 1
 14 8 l 9
 12 8 l 25
 12 -8 l 25
 7 -8 l 25
 7 8 l 25
 0 8 l 25
EndSplineSet
EndChar

StartChar: uni2544
Encoding: 9540 9540 438
Width: 20
VWidth: 0
Flags: H
LayerCount: 2
Fore
SplineSet
0 10 m 25
 0 14 l 25
 6 14 l 25
 6 32 l 25
 14 32 l 25
 14 16 l 25
 20 16 l 25
 20 8 l 25
 12 8 l 25
 12 -8 l 25
 8 -8 l 29
 8 8 l 29
 6 8 l 25
 6 10 l 25
 0 10 l 25
EndSplineSet
EndChar

StartChar: uni2545
Encoding: 9541 9541 439
Width: 20
VWidth: 0
Flags: H
LayerCount: 2
Fore
SplineSet
6 -8 m 25
 6 8 l 25
 0 8 l 25
 0 16 l 25
 8 16 l 25
 8 32 l 25
 12 32 l 25
 12 16 l 25
 14 16 l 17
 14 14 l 1
 20 14 l 1
 20 10 l 5
 14 10 l 1
 14 -8 l 9
 6 -8 l 25
EndSplineSet
EndChar

StartChar: uni2546
Encoding: 9542 9542 440
Width: 20
VWidth: 0
Flags: H
LayerCount: 2
Fore
SplineSet
6 -8 m 29
 6 10 l 25
 0 10 l 25
 0 14 l 25
 6 14 l 25
 6 16 l 25
 8 16 l 25
 8 32 l 25
 12 32 l 25
 12 16 l 25
 20 16 l 25
 20 8 l 25
 14 8 l 25
 14 -8 l 25
 6 -8 l 29
EndSplineSet
EndChar

StartChar: uni257C
Encoding: 9596 9596 441
Width: 20
VWidth: 0
Flags: H
LayerCount: 2
Fore
SplineSet
0 10 m 29
 0 14 l 25
 8 14 l 25
 8 16 l 25
 20 16 l 25
 20 8 l 25
 8 8 l 25
 8 10 l 25
 0 10 l 29
EndSplineSet
EndChar

StartChar: uni257D
Encoding: 9597 9597 442
Width: 20
VWidth: 0
Flags: H
LayerCount: 2
Fore
SplineSet
6 -8 m 29
 6 14 l 25
 8 14 l 25
 8 32 l 25
 12 32 l 25
 12 14 l 25
 14 14 l 25
 14 -8 l 25
 6 -8 l 29
EndSplineSet
EndChar

StartChar: uni257E
Encoding: 9598 9598 443
Width: 20
VWidth: 0
Flags: H
LayerCount: 2
Fore
SplineSet
0 8 m 25
 0 16 l 25
 12 16 l 25
 12 14 l 25
 20 14 l 25
 20 10 l 25
 12 10 l 25
 12 8 l 29
 0 8 l 25
EndSplineSet
EndChar

StartChar: uni257F
Encoding: 9599 9599 444
Width: 20
VWidth: 0
Flags: H
LayerCount: 2
Fore
SplineSet
8 -8 m 25
 8 10 l 25
 6 10 l 25
 6 32 l 25
 14 32 l 25
 14 10 l 25
 12 10 l 25
 12 -8 l 25
 8 -8 l 25
EndSplineSet
EndChar

StartChar: uni2571
Encoding: 9585 9585 445
Width: 20
VWidth: 0
Flags: H
LayerCount: 2
Fore
SplineSet
3 -8 m 25
 0 -8 l 25
 0 -2 l 25
 17 32 l 25
 20 32 l 25
 20 26 l 25
 3 -8 l 25
EndSplineSet
EndChar

StartChar: uni2572
Encoding: 9586 9586 446
Width: 20
VWidth: 0
Flags: H
LayerCount: 2
Fore
SplineSet
20 -2 m 29
 20 -8 l 25
 17 -8 l 25
 0 26 l 25
 0 32 l 25
 3 32 l 25
 20 -2 l 29
EndSplineSet
EndChar

StartChar: uni2573
Encoding: 9587 9587 447
Width: 20
VWidth: 0
Flags: HW
LayerCount: 2
Fore
SplineSet
3 -8 m 29
 0 -8 l 29
 0 -2 l 29
 17 32 l 29
 20 32 l 29
 20 26 l 29
 3 -8 l 29
20 -2 m 25
 20 -8 l 25
 17 -8 l 25
 0 26 l 25
 0 32 l 25
 3 32 l 25
 20 -2 l 25
EndSplineSet
EndChar

StartChar: upblock
Encoding: 9600 9600 448
Width: 20
VWidth: 0
Flags: H
LayerCount: 2
Fore
SplineSet
0 32 m 29
 20 32 l 25
 20 12 l 25
 0 12 l 25
 0 32 l 29
EndSplineSet
EndChar

StartChar: dnblock
Encoding: 9604 9604 449
Width: 20
VWidth: 0
Flags: H
LayerCount: 2
Fore
SplineSet
0 12 m 29
 20 12 l 25
 20 -8 l 25
 0 -8 l 25
 0 12 l 29
EndSplineSet
EndChar

StartChar: block
Encoding: 9608 9608 450
Width: 20
VWidth: 0
Flags: H
LayerCount: 2
Fore
SplineSet
0 -8 m 29
 0 32 l 25
 20 32 l 25
 20 -8 l 25
 0 -8 l 29
EndSplineSet
EndChar

StartChar: lfblock
Encoding: 9612 9612 451
Width: 20
VWidth: 0
Flags: H
LayerCount: 2
Fore
SplineSet
10 -8 m 29
 0 -8 l 25
 0 32 l 25
 10 32 l 25
 10 -8 l 29
EndSplineSet
EndChar

StartChar: rtblock
Encoding: 9616 9616 452
Width: 20
VWidth: 0
Flags: H
LayerCount: 2
Fore
SplineSet
20 -8 m 29
 10 -8 l 25
 10 32 l 25
 20 32 l 25
 20 -8 l 29
EndSplineSet
EndChar

StartChar: uni2582
Encoding: 9602 9602 453
Width: 20
VWidth: 0
Flags: H
LayerCount: 2
Fore
SplineSet
20 -8 m 29
 0 -8 l 25
 0 2 l 25
 20 2 l 25
 20 -8 l 29
EndSplineSet
EndChar

StartChar: uni2581
Encoding: 9601 9601 454
Width: 20
VWidth: 0
Flags: H
LayerCount: 2
Fore
SplineSet
20 -8 m 29
 0 -8 l 25
 0 -3 l 25
 20 -3 l 25
 20 -8 l 29
EndSplineSet
EndChar

StartChar: uni2583
Encoding: 9603 9603 455
Width: 20
VWidth: 0
Flags: H
LayerCount: 2
Fore
SplineSet
20 -8 m 29
 0 -8 l 25
 0 7 l 25
 20 7 l 25
 20 -8 l 29
EndSplineSet
EndChar

StartChar: uni2585
Encoding: 9605 9605 456
Width: 20
VWidth: 0
Flags: H
LayerCount: 2
Fore
SplineSet
20 -8 m 29
 0 -8 l 25
 0 17 l 25
 20 17 l 25
 20 -8 l 29
EndSplineSet
EndChar

StartChar: uni2586
Encoding: 9606 9606 457
Width: 20
VWidth: 0
Flags: H
LayerCount: 2
Fore
SplineSet
20 -8 m 29
 0 -8 l 25
 0 22 l 25
 20 22 l 25
 20 -8 l 29
EndSplineSet
EndChar

StartChar: uni2587
Encoding: 9607 9607 458
Width: 20
VWidth: 0
Flags: H
LayerCount: 2
Fore
SplineSet
20 -8 m 29
 0 -8 l 25
 0 27 l 25
 20 27 l 25
 20 -8 l 29
EndSplineSet
EndChar

StartChar: uni258A
Encoding: 9610 9610 459
Width: 20
VWidth: 0
Flags: H
LayerCount: 2
Fore
SplineSet
0 -8 m 29
 0 32 l 25
 15 32 l 25
 15 -8 l 25
 0 -8 l 29
EndSplineSet
EndChar

StartChar: uni258E
Encoding: 9614 9614 460
Width: 20
VWidth: 0
Flags: H
LayerCount: 2
Fore
SplineSet
5 -8 m 29
 0 -8 l 25
 0 32 l 25
 5 32 l 25
 5 -8 l 29
EndSplineSet
EndChar

StartChar: uni258F
Encoding: 9615 9615 461
Width: 20
VWidth: 0
Flags: HW
LayerCount: 2
Fore
SplineSet
3 -8 m 29
 0 -8 l 25
 0 32 l 25
 3 32 l 29
 3 -8 l 29
EndSplineSet
EndChar

StartChar: uni258D
Encoding: 9613 9613 462
Width: 20
VWidth: 0
Flags: HW
LayerCount: 2
Fore
SplineSet
8 -8 m 29
 0 -8 l 25
 0 32 l 25
 8 32 l 29
 8 -8 l 29
EndSplineSet
EndChar

StartChar: uni258B
Encoding: 9611 9611 463
Width: 20
VWidth: 0
Flags: HW
LayerCount: 2
Fore
SplineSet
0 -8 m 25
 0 32 l 25
 13 32 l 29
 13 -8 l 29
 0 -8 l 25
EndSplineSet
EndChar

StartChar: uni2589
Encoding: 9609 9609 464
Width: 20
VWidth: 0
Flags: HW
LayerCount: 2
Fore
SplineSet
0 -8 m 25
 0 32 l 25
 18 32 l 29
 18 -8 l 29
 0 -8 l 25
EndSplineSet
EndChar

StartChar: uni2599
Encoding: 9625 9625 465
Width: 20
VWidth: 0
Flags: H
LayerCount: 2
Fore
SplineSet
10 12 m 29
 20 12 l 25
 20 -8 l 25
 0 -8 l 25
 0 32 l 25
 10 32 l 25
 10 12 l 29
EndSplineSet
EndChar

StartChar: uni259B
Encoding: 9627 9627 466
Width: 20
VWidth: 0
Flags: H
LayerCount: 2
Fore
SplineSet
20 12 m 29
 10 12 l 25
 10 -8 l 25
 0 -8 l 25
 0 32 l 25
 20 32 l 25
 20 12 l 29
EndSplineSet
EndChar

StartChar: uni259C
Encoding: 9628 9628 467
Width: 20
VWidth: 0
Flags: H
LayerCount: 2
Fore
SplineSet
20 -8 m 29
 10 -8 l 25
 10 12 l 25
 0 12 l 25
 0 32 l 25
 20 32 l 25
 20 -8 l 29
EndSplineSet
EndChar

StartChar: uni259F
Encoding: 9631 9631 468
Width: 20
VWidth: 0
Flags: H
LayerCount: 2
Fore
SplineSet
20 -8 m 29
 0 -8 l 25
 0 12 l 25
 10 12 l 25
 10 32 l 25
 20 32 l 25
 20 -8 l 29
EndSplineSet
EndChar

StartChar: uni259A
Encoding: 9626 9626 469
Width: 20
VWidth: 0
Flags: H
LayerCount: 2
Fore
SplineSet
0 32 m 29
 10 32 l 25
 10 12 l 25
 0 12 l 25
 0 32 l 29
20 -8 m 25
 10 -8 l 25
 10 12 l 25
 20 12 l 25
 20 -8 l 25
EndSplineSet
EndChar

StartChar: uni259E
Encoding: 9630 9630 470
Width: 20
VWidth: 0
Flags: H
LayerCount: 2
Fore
SplineSet
10 32 m 29
 20 32 l 25
 20 12 l 25
 10 12 l 25
 10 32 l 29
10 -8 m 25
 0 -8 l 25
 0 12 l 25
 10 12 l 25
 10 -8 l 25
EndSplineSet
EndChar

StartChar: uni2596
Encoding: 9622 9622 471
Width: 20
VWidth: 0
Flags: H
LayerCount: 2
Fore
SplineSet
0 -8 m 29
 0 12 l 25
 10 12 l 25
 10 -8 l 25
 0 -8 l 29
EndSplineSet
EndChar

StartChar: uni2597
Encoding: 9623 9623 472
Width: 20
VWidth: 0
Flags: H
LayerCount: 2
Fore
SplineSet
20 -8 m 29
 10 -8 l 25
 10 12 l 25
 20 12 l 25
 20 -8 l 29
EndSplineSet
EndChar

StartChar: uni2598
Encoding: 9624 9624 473
Width: 20
VWidth: 0
Flags: H
LayerCount: 2
Fore
SplineSet
0 32 m 29
 10 32 l 25
 10 12 l 25
 0 12 l 25
 0 32 l 29
EndSplineSet
EndChar

StartChar: uni259D
Encoding: 9629 9629 474
Width: 20
VWidth: 0
Flags: H
LayerCount: 2
Fore
SplineSet
10 12 m 29
 10 32 l 25
 20 32 l 25
 20 12 l 25
 10 12 l 29
EndSplineSet
EndChar

StartChar: uni2595
Encoding: 9621 9621 475
Width: 20
VWidth: 0
Flags: HW
LayerCount: 2
Fore
SplineSet
20 -8 m 29
 17 -8 l 29
 17 32 l 29
 20 32 l 29
 20 -8 l 29
EndSplineSet
EndChar

StartChar: uni2594
Encoding: 9620 9620 476
Width: 20
VWidth: 0
Flags: HW
LayerCount: 2
Fore
SplineSet
20 29 m 29
 0 29 l 29
 0 34 l 29
 20 34 l 29
 20 29 l 29
EndSplineSet
EndChar

StartChar: shade
Encoding: 9618 9618 477
Width: 20
VWidth: 0
Flags: H
LayerCount: 2
Fore
SplineSet
0 -6 m 25
 0 -8 l 25
 20 -8 l 25
 20 -6 l 25
 0 -6 l 25
0 -2 m 25
 0 -4 l 25
 20 -4 l 25
 20 -2 l 25
 0 -2 l 25
0 2 m 25
 0 0 l 25
 20 0 l 25
 20 2 l 25
 0 2 l 25
0 6 m 25
 0 4 l 25
 20 4 l 25
 20 6 l 25
 0 6 l 25
0 10 m 25
 0 8 l 25
 20 8 l 25
 20 10 l 25
 0 10 l 25
0 14 m 25
 0 12 l 25
 20 12 l 25
 20 14 l 25
 0 14 l 25
0 18 m 25
 0 16 l 25
 20 16 l 25
 20 18 l 25
 0 18 l 25
0 22 m 25
 0 20 l 25
 20 20 l 25
 20 22 l 25
 0 22 l 25
0 26 m 25
 0 24 l 25
 20 24 l 25
 20 26 l 25
 0 26 l 25
0 30 m 25
 0 28 l 25
 20 28 l 25
 20 30 l 25
 0 30 l 25
18 32 m 25
 18 -8 l 25
 20 -8 l 25
 20 32 l 25
 18 32 l 25
14 32 m 25
 14 -8 l 25
 16 -8 l 25
 16 32 l 25
 14 32 l 25
10 32 m 25
 10 -8 l 25
 12 -8 l 25
 12 32 l 25
 10 32 l 25
6 32 m 25
 6 -8 l 25
 8 -8 l 25
 8 32 l 25
 6 32 l 25
2 32 m 25
 2 -8 l 25
 4 -8 l 25
 4 32 l 25
 2 32 l 25
0 32 m 25
 20 32 l 25
 20 -8 l 25
 0 -8 l 25
 0 32 l 25
EndSplineSet
EndChar

StartChar: ltshade
Encoding: 9617 9617 478
Width: 20
VWidth: 0
Flags: H
LayerCount: 2
Fore
SplineSet
18 -4 m 25
 20 -4 l 25
 20 -6 l 25
 18 -6 l 25
 18 -4 l 25
14 -4 m 25
 16 -4 l 25
 16 -6 l 25
 14 -6 l 25
 14 -4 l 25
10 -4 m 25
 12 -4 l 25
 12 -6 l 25
 10 -6 l 25
 10 -4 l 25
6 -4 m 25
 8 -4 l 25
 8 -6 l 25
 6 -6 l 25
 6 -4 l 25
2 -4 m 25
 4 -4 l 25
 4 -6 l 25
 2 -6 l 25
 2 -4 l 25
16 0 m 25
 18 0 l 25
 18 -2 l 25
 16 -2 l 25
 16 0 l 25
12 0 m 25
 14 0 l 25
 14 -2 l 25
 12 -2 l 25
 12 0 l 25
8 0 m 25
 10 0 l 25
 10 -2 l 25
 8 -2 l 25
 8 0 l 25
4 0 m 25
 6 0 l 25
 6 -2 l 25
 4 -2 l 25
 4 0 l 25
0 0 m 25
 2 0 l 25
 2 -2 l 25
 0 -2 l 25
 0 0 l 25
18 4 m 25
 20 4 l 25
 20 2 l 25
 18 2 l 25
 18 4 l 25
14 4 m 25
 16 4 l 25
 16 2 l 25
 14 2 l 25
 14 4 l 25
10 4 m 25
 12 4 l 25
 12 2 l 25
 10 2 l 25
 10 4 l 25
6 4 m 25
 8 4 l 25
 8 2 l 25
 6 2 l 25
 6 4 l 25
2 4 m 25
 4 4 l 25
 4 2 l 25
 2 2 l 25
 2 4 l 25
16 8 m 25
 18 8 l 25
 18 6 l 25
 16 6 l 25
 16 8 l 25
12 8 m 25
 14 8 l 25
 14 6 l 25
 12 6 l 25
 12 8 l 25
8 8 m 25
 10 8 l 25
 10 6 l 25
 8 6 l 25
 8 8 l 25
4 8 m 25
 6 8 l 25
 6 6 l 25
 4 6 l 25
 4 8 l 25
0 8 m 25
 2 8 l 25
 2 6 l 25
 0 6 l 25
 0 8 l 25
18 12 m 25
 20 12 l 25
 20 10 l 25
 18 10 l 25
 18 12 l 25
14 12 m 25
 16 12 l 25
 16 10 l 25
 14 10 l 25
 14 12 l 25
10 12 m 25
 12 12 l 25
 12 10 l 25
 10 10 l 25
 10 12 l 25
6 12 m 25
 8 12 l 25
 8 10 l 25
 6 10 l 25
 6 12 l 25
2 12 m 25
 4 12 l 25
 4 10 l 25
 2 10 l 25
 2 12 l 25
16 16 m 25
 18 16 l 25
 18 14 l 25
 16 14 l 25
 16 16 l 25
12 16 m 25
 14 16 l 25
 14 14 l 25
 12 14 l 25
 12 16 l 25
8 16 m 25
 10 16 l 25
 10 14 l 25
 8 14 l 25
 8 16 l 25
4 16 m 25
 6 16 l 25
 6 14 l 25
 4 14 l 25
 4 16 l 25
0 16 m 25
 2 16 l 25
 2 14 l 25
 0 14 l 25
 0 16 l 25
18 20 m 25
 20 20 l 25
 20 18 l 25
 18 18 l 25
 18 20 l 25
14 20 m 25
 16 20 l 25
 16 18 l 25
 14 18 l 25
 14 20 l 25
10 20 m 25
 12 20 l 25
 12 18 l 25
 10 18 l 25
 10 20 l 25
6 20 m 25
 8 20 l 25
 8 18 l 25
 6 18 l 25
 6 20 l 25
2 20 m 25
 4 20 l 25
 4 18 l 25
 2 18 l 25
 2 20 l 25
16 24 m 25
 18 24 l 25
 18 22 l 25
 16 22 l 25
 16 24 l 25
12 24 m 25
 14 24 l 25
 14 22 l 25
 12 22 l 25
 12 24 l 25
8 24 m 25
 10 24 l 25
 10 22 l 25
 8 22 l 25
 8 24 l 25
4 24 m 25
 6 24 l 25
 6 22 l 25
 4 22 l 25
 4 24 l 25
0 24 m 25
 2 24 l 25
 2 22 l 25
 0 22 l 25
 0 24 l 25
18 28 m 25
 20 28 l 25
 20 26 l 25
 18 26 l 25
 18 28 l 25
14 28 m 25
 16 28 l 25
 16 26 l 25
 14 26 l 25
 14 28 l 25
10 28 m 25
 12 28 l 25
 12 26 l 25
 10 26 l 25
 10 28 l 25
6 28 m 25
 8 28 l 25
 8 26 l 25
 6 26 l 25
 6 28 l 25
2 28 m 25
 4 28 l 25
 4 26 l 25
 2 26 l 25
 2 28 l 25
16 32 m 25
 18 32 l 25
 18 30 l 25
 16 30 l 25
 16 32 l 25
12 32 m 25
 14 32 l 25
 14 30 l 25
 12 30 l 25
 12 32 l 25
8 32 m 25
 10 32 l 25
 10 30 l 25
 8 30 l 25
 8 32 l 25
4 32 m 25
 6 32 l 25
 6 30 l 25
 4 30 l 25
 4 32 l 25
0 32 m 25
 2 32 l 25
 2 30 l 25
 0 30 l 25
 0 32 l 25
EndSplineSet
EndChar

StartChar: dkshade
Encoding: 9619 9619 479
Width: 20
VWidth: 0
Flags: HW
LayerCount: 2
Fore
SplineSet
0 -8 m 25
 0 32 l 25
 20 32 l 25
 20 -8 l 25
 0 -8 l 25
18 -6 m 25
 18 -8 l 25
 20 -8 l 25
 20 -6 l 25
 18 -6 l 25
14 -6 m 25
 14 -8 l 25
 16 -8 l 25
 16 -6 l 25
 14 -6 l 25
10 -6 m 25
 10 -8 l 25
 12 -8 l 25
 12 -6 l 25
 10 -6 l 25
6 -6 m 25
 6 -8 l 25
 8 -8 l 25
 8 -6 l 25
 6 -6 l 25
2 -6 m 25
 2 -8 l 25
 4 -8 l 25
 4 -6 l 25
 2 -6 l 25
16 -2 m 25
 16 -4 l 25
 18 -4 l 25
 18 -2 l 25
 16 -2 l 25
12 -2 m 25
 12 -4 l 25
 14 -4 l 25
 14 -2 l 25
 12 -2 l 25
8 -2 m 25
 8 -4 l 25
 10 -4 l 25
 10 -2 l 25
 8 -2 l 25
4 -2 m 25
 4 -4 l 25
 6 -4 l 25
 6 -2 l 25
 4 -2 l 25
0 -2 m 25
 0 -4 l 25
 2 -4 l 25
 2 -2 l 25
 0 -2 l 25
18 2 m 25
 18 0 l 25
 20 0 l 25
 20 2 l 25
 18 2 l 25
14 2 m 25
 14 0 l 25
 16 0 l 25
 16 2 l 25
 14 2 l 25
10 2 m 25
 10 0 l 25
 12 0 l 25
 12 2 l 25
 10 2 l 25
6 2 m 25
 6 0 l 25
 8 0 l 25
 8 2 l 25
 6 2 l 25
2 2 m 25
 2 0 l 25
 4 0 l 25
 4 2 l 25
 2 2 l 25
16 6 m 25
 16 4 l 25
 18 4 l 25
 18 6 l 25
 16 6 l 25
12 6 m 25
 12 4 l 25
 14 4 l 25
 14 6 l 25
 12 6 l 25
8 6 m 25
 8 4 l 25
 10 4 l 25
 10 6 l 25
 8 6 l 25
4 6 m 25
 4 4 l 25
 6 4 l 25
 6 6 l 25
 4 6 l 25
0 6 m 25
 0 4 l 25
 2 4 l 25
 2 6 l 25
 0 6 l 25
18 10 m 25
 18 8 l 25
 20 8 l 25
 20 10 l 25
 18 10 l 25
14 10 m 25
 14 8 l 25
 16 8 l 25
 16 10 l 25
 14 10 l 25
10 10 m 25
 10 8 l 25
 12 8 l 25
 12 10 l 25
 10 10 l 25
6 10 m 25
 6 8 l 25
 8 8 l 25
 8 10 l 25
 6 10 l 25
2 10 m 25
 2 8 l 25
 4 8 l 25
 4 10 l 25
 2 10 l 25
16 14 m 25
 16 12 l 25
 18 12 l 25
 18 14 l 25
 16 14 l 25
12 14 m 25
 12 12 l 25
 14 12 l 25
 14 14 l 25
 12 14 l 25
8 14 m 25
 8 12 l 25
 10 12 l 25
 10 14 l 25
 8 14 l 25
4 14 m 25
 4 12 l 25
 6 12 l 25
 6 14 l 25
 4 14 l 25
0 14 m 25
 0 12 l 25
 2 12 l 25
 2 14 l 25
 0 14 l 25
18 18 m 25
 18 16 l 25
 20 16 l 25
 20 18 l 25
 18 18 l 25
14 18 m 25
 14 16 l 25
 16 16 l 25
 16 18 l 25
 14 18 l 25
10 18 m 25
 10 16 l 25
 12 16 l 25
 12 18 l 25
 10 18 l 25
6 18 m 25
 6 16 l 25
 8 16 l 25
 8 18 l 25
 6 18 l 25
2 18 m 25
 2 16 l 25
 4 16 l 25
 4 18 l 25
 2 18 l 25
16 22 m 25
 16 20 l 25
 18 20 l 25
 18 22 l 25
 16 22 l 25
12 22 m 25
 12 20 l 25
 14 20 l 25
 14 22 l 25
 12 22 l 25
8 22 m 25
 8 20 l 25
 10 20 l 25
 10 22 l 25
 8 22 l 25
4 22 m 25
 4 20 l 25
 6 20 l 25
 6 22 l 25
 4 22 l 25
0 22 m 25
 0 20 l 25
 2 20 l 25
 2 22 l 25
 0 22 l 25
18 26 m 25
 18 24 l 25
 20 24 l 25
 20 26 l 25
 18 26 l 25
14 26 m 25
 14 24 l 25
 16 24 l 25
 16 26 l 25
 14 26 l 25
10 26 m 25
 10 24 l 25
 12 24 l 25
 12 26 l 25
 10 26 l 25
6 26 m 25
 6 24 l 25
 8 24 l 25
 8 26 l 25
 6 26 l 25
2 26 m 25
 2 24 l 25
 4 24 l 25
 4 26 l 25
 2 26 l 25
16 30 m 25
 16 28 l 25
 18 28 l 25
 18 30 l 25
 16 30 l 25
12 30 m 25
 12 28 l 25
 14 28 l 25
 14 30 l 25
 12 30 l 25
8 30 m 25
 8 28 l 25
 10 28 l 25
 10 30 l 25
 8 30 l 25
4 30 m 25
 4 28 l 25
 6 28 l 25
 6 30 l 25
 4 30 l 25
0 30 m 25
 0 28 l 25
 2 28 l 25
 2 30 l 25
 0 30 l 25
EndSplineSet
EndChar

StartChar: arrowup
Encoding: 8593 8593 480
Width: 20
VWidth: 0
Flags: HW
LayerCount: 2
Fore
SplineSet
18 18 m 25
 18 16 l 25
 2 16 l 25
 2 18 l 25
 8 24 l 25
 12 24 l 25
 18 18 l 25
8 0 m 25
 8 24 l 25
 12 24 l 25
 12 0 l 25
 8 0 l 25
EndSplineSet
EndChar

StartChar: arrowupdn
Encoding: 8597 8597 482
Width: 20
VWidth: 0
Flags: HW
LayerCount: 2
Fore
SplineSet
2 6 m 29
 2 8 l 29
 18 8 l 29
 18 6 l 29
 12 0 l 29
 8 0 l 29
 2 6 l 29
18 18 m 25
 18 16 l 25
 2 16 l 25
 2 18 l 25
 8 24 l 25
 12 24 l 25
 18 18 l 25
8 0 m 25
 8 24 l 25
 12 24 l 25
 12 0 l 25
 8 0 l 25
EndSplineSet
EndChar

StartChar: arrowleft
Encoding: 8592 8592 483
Width: 20
VWidth: 0
Flags: HW
LayerCount: 2
Fore
SplineSet
8 20 m 25
 10 20 l 25
 10 4 l 25
 8 4 l 25
 2 10 l 25
 2 14 l 25
 8 20 l 25
2 14 m 25
 18 14 l 25
 18 10 l 25
 2 10 l 25
 2 14 l 25
EndSplineSet
EndChar

StartChar: arrowboth
Encoding: 8596 8596 485
Width: 20
VWidth: 0
Flags: HW
LayerCount: 2
Fore
SplineSet
14 4 m 25
 12 4 l 25
 12 20 l 25
 14 20 l 25
 19 14 l 25
 19 10 l 25
 14 4 l 25
6 20 m 25
 8 20 l 25
 8 4 l 25
 6 4 l 25
 1 10 l 25
 1 14 l 25
 6 20 l 25
1 14 m 25
 19 14 l 25
 19 10 l 25
 1 10 l 25
 1 14 l 25
EndSplineSet
EndChar

StartChar: uni21A5
Encoding: 8613 8613 486
Width: 20
VWidth: 0
Flags: HW
LayerCount: 2
Fore
SplineSet
18 0 m 29
 2 0 l 25
 2 4 l 25
 18 4 l 25
 18 0 l 29
EndSplineSet
Refer: 480 8593 N 1 0 0 1 0 0 2
EndChar

StartChar: uni21A7
Encoding: 8615 8615 487
Width: 20
VWidth: 0
Flags: HW
LayerCount: 2
Fore
SplineSet
18 24 m 25
 18 20 l 25
 2 20 l 25
 2 24 l 25
 18 24 l 25
EndSplineSet
Refer: 481 8595 N 1 0 0 1 0 0 2
EndChar

StartChar: arrowupdnbse
Encoding: 8616 8616 488
Width: 20
VWidth: 0
Flags: HW
LayerCount: 2
Fore
SplineSet
18 0 m 29
 2 0 l 25
 2 4 l 25
 18 4 l 25
 18 0 l 29
2 10 m 25
 2 12 l 25
 18 12 l 25
 18 10 l 25
 12 4 l 25
 8 4 l 25
 2 10 l 25
18 18 m 25
 18 16 l 25
 2 16 l 25
 2 18 l 25
 8 24 l 25
 12 24 l 25
 18 18 l 25
8 4 m 25
 8 24 l 25
 12 24 l 25
 12 4 l 25
 8 4 l 25
EndSplineSet
EndChar

StartChar: uni21A4
Encoding: 8612 8612 489
Width: 20
VWidth: 0
Flags: HW
LayerCount: 2
Fore
SplineSet
18 20 m 29
 18 4 l 25
 14 4 l 25
 14 20 l 25
 18 20 l 29
EndSplineSet
Refer: 483 8592 N 1 0 0 1 0 0 2
EndChar

StartChar: uni21A6
Encoding: 8614 8614 490
Width: 20
VWidth: 0
Flags: HW
LayerCount: 2
Fore
SplineSet
2 4 m 29
 2 20 l 25
 6 20 l 25
 6 4 l 25
 2 4 l 29
EndSplineSet
Refer: 484 8594 N 1 0 0 1 0 0 2
EndChar

StartChar: uni2196
Encoding: 8598 8598 491
Width: 20
VWidth: 0
Flags: H
LayerCount: 2
Fore
SplineSet
18 4 m 25
 15 4 l 25
 2 17 l 25
 2 20 l 25
 5 20 l 25
 18 7 l 25
 18 4 l 25
2 20 m 25
 14 20 l 25
 14 18 l 25
 4 8 l 25
 2 8 l 25
 2 20 l 25
EndSplineSet
EndChar

StartChar: uni2197
Encoding: 8599 8599 493
Width: 20
VWidth: 0
Flags: HW
LayerCount: 2
Fore
SplineSet
2 4 m 29
 5 4 l 29
 18 17 l 29
 18 20 l 29
 15 20 l 29
 2 7 l 29
 2 4 l 29
18 20 m 29
 6 20 l 29
 6 18 l 29
 16 8 l 29
 18 8 l 29
 18 20 l 29
EndSplineSet
EndChar

StartChar: uni2199
Encoding: 8601 8601 494
Width: 20
VWidth: 0
Flags: HW
LayerCount: 2
Fore
SplineSet
18 20 m 29
 15 20 l 29
 2 7 l 29
 2 4 l 29
 5 4 l 29
 18 17 l 29
 18 20 l 29
2 4 m 29
 14 4 l 29
 14 6 l 29
 4 16 l 29
 2 16 l 29
 2 4 l 29
EndSplineSet
EndChar

StartChar: uni219F
Encoding: 8607 8607 495
Width: 20
VWidth: 0
Flags: HW
LayerCount: 2
Fore
SplineSet
18 12 m 25
 18 10 l 25
 2 10 l 25
 2 12 l 25
 8 18 l 25
 12 18 l 25
 18 12 l 25
18 18 m 25
 18 16 l 25
 2 16 l 25
 2 18 l 25
 8 24 l 25
 12 24 l 25
 18 18 l 25
8 0 m 25
 8 24 l 25
 12 24 l 25
 12 0 l 25
 8 0 l 25
EndSplineSet
EndChar

StartChar: uni219E
Encoding: 8606 8606 497
Width: 20
VWidth: 0
Flags: HW
LayerCount: 2
Fore
SplineSet
12 20 m 25
 14 20 l 25
 14 4 l 25
 12 4 l 25
 6 10 l 25
 6 14 l 25
 12 20 l 25
7 20 m 25
 9 20 l 25
 9 4 l 25
 7 4 l 25
 1 10 l 25
 1 14 l 25
 7 20 l 25
1 14 m 25
 19 14 l 25
 19 10 l 25
 1 10 l 25
 1 14 l 25
EndSplineSet
EndChar

StartChar: uni219A
Encoding: 8602 8602 499
Width: 20
VWidth: 0
Flags: HW
LayerCount: 2
Fore
SplineSet
13 22 m 9
 17 22 l 17
 17 20 l 1
 13 2 l 9
 9 2 l 17
 9 4 l 1
 13 22 l 9
7 20 m 25
 9 20 l 25
 9 4 l 25
 7 4 l 25
 1 10 l 25
 1 14 l 25
 7 20 l 25
1 14 m 25
 19 14 l 25
 19 10 l 25
 1 10 l 25
 1 14 l 25
EndSplineSet
EndChar

StartChar: uni21A9
Encoding: 8617 8617 501
Width: 20
VWidth: 0
Flags: HW
LayerCount: 2
Fore
SplineSet
8 20 m 25
 10 20 l 25
 10 4 l 25
 8 4 l 25
 2 10 l 25
 2 14 l 25
 8 20 l 25
2 14 m 17
 14 14 l 1
 14 20 l 1
 18 20 l 1
 18 13 l 1
 15 10 l 9
 2 10 l 25
 2 14 l 17
EndSplineSet
EndChar

StartChar: uni21C4
Encoding: 8644 8644 503
Width: 20
VWidth: 0
Flags: HW
LayerCount: 2
Fore
SplineSet
14 12 m 25
 12 12 l 25
 12 24 l 25
 14 24 l 25
 18 20 l 25
 18 16 l 25
 14 12 l 25
18 16 m 25
 2 16 l 25
 2 20 l 25
 18 20 l 25
 18 16 l 25
6 12 m 25
 8 12 l 25
 8 0 l 25
 6 0 l 25
 2 4 l 25
 2 8 l 25
 6 12 l 25
2 8 m 25
 18 8 l 25
 18 4 l 25
 2 4 l 25
 2 8 l 25
EndSplineSet
EndChar

StartChar: uni21C6
Encoding: 8646 8646 504
Width: 20
VWidth: 0
Flags: HW
LayerCount: 2
Fore
SplineSet
14 0 m 25
 12 0 l 25
 12 12 l 25
 14 12 l 25
 18 8 l 25
 18 4 l 25
 14 0 l 25
18 4 m 25
 2 4 l 25
 2 8 l 25
 18 8 l 25
 18 4 l 25
6 24 m 25
 8 24 l 25
 8 12 l 25
 6 12 l 25
 2 16 l 25
 2 20 l 25
 6 24 l 25
2 20 m 25
 18 20 l 25
 18 16 l 25
 2 16 l 25
 2 20 l 25
EndSplineSet
EndChar

StartChar: uni21C5
Encoding: 8645 8645 505
Width: 20
VWidth: 0
Flags: HW
LayerCount: 2
Fore
SplineSet
9 6 m 25
 9 8 l 25
 19 8 l 25
 19 6 l 25
 16 0 l 25
 12 0 l 25
 9 6 l 25
16 24 m 25
 16 0 l 25
 12 0 l 25
 12 24 l 25
 16 24 l 25
11 18 m 25
 11 16 l 25
 1 16 l 25
 1 18 l 25
 4 24 l 25
 8 24 l 25
 11 18 l 25
4 0 m 25
 4 24 l 25
 8 24 l 25
 8 0 l 25
 4 0 l 25
EndSplineSet
EndChar

StartChar: uni21C7
Encoding: 8647 8647 506
Width: 20
VWidth: 0
Flags: HW
LayerCount: 2
Fore
SplineSet
6 24 m 29
 8 24 l 29
 8 12 l 29
 6 12 l 29
 2 16 l 29
 2 20 l 29
 6 24 l 29
2 20 m 29
 18 20 l 29
 18 16 l 29
 2 16 l 29
 2 20 l 29
6 12 m 25
 8 12 l 25
 8 0 l 25
 6 0 l 25
 2 4 l 25
 2 8 l 25
 6 12 l 25
2 8 m 25
 18 8 l 25
 18 4 l 25
 2 4 l 25
 2 8 l 25
EndSplineSet
EndChar

StartChar: uni21C9
Encoding: 8649 8649 507
Width: 20
VWidth: 0
Flags: HW
LayerCount: 2
Fore
SplineSet
14 12 m 29
 12 12 l 29
 12 24 l 29
 14 24 l 29
 18 20 l 29
 18 16 l 29
 14 12 l 29
18 16 m 29
 2 16 l 29
 2 20 l 29
 18 20 l 29
 18 16 l 29
14 0 m 25
 12 0 l 25
 12 12 l 25
 14 12 l 25
 18 8 l 25
 18 4 l 25
 14 0 l 25
18 4 m 25
 2 4 l 25
 2 8 l 25
 18 8 l 25
 18 4 l 25
EndSplineSet
EndChar

StartChar: uni21C8
Encoding: 8648 8648 508
Width: 20
VWidth: 0
Flags: HW
LayerCount: 2
Fore
SplineSet
20 18 m 25
 20 16 l 25
 10 16 l 25
 10 18 l 25
 13 24 l 25
 17 24 l 25
 20 18 l 25
13 0 m 25
 13 24 l 25
 17 24 l 25
 17 0 l 25
 13 0 l 25
10 18 m 25
 10 16 l 25
 0 16 l 25
 0 18 l 25
 3 24 l 25
 7 24 l 25
 10 18 l 25
3 0 m 25
 3 24 l 25
 7 24 l 25
 7 0 l 25
 3 0 l 25
EndSplineSet
EndChar

StartChar: uni21CA
Encoding: 8650 8650 509
Width: 20
VWidth: 0
Flags: HW
LayerCount: 2
Fore
SplineSet
0 6 m 29
 0 8 l 29
 10 8 l 29
 10 6 l 29
 7 0 l 29
 3 0 l 29
 0 6 l 29
7 24 m 29
 7 0 l 29
 3 0 l 29
 3 24 l 29
 7 24 l 29
10 6 m 25
 10 8 l 25
 20 8 l 25
 20 6 l 25
 17 0 l 25
 13 0 l 25
 10 6 l 25
17 24 m 25
 17 0 l 25
 13 0 l 25
 13 24 l 25
 17 24 l 25
EndSplineSet
EndChar

StartChar: uni21B2
Encoding: 8626 8626 510
Width: 20
VWidth: 0
Flags: HW
LayerCount: 2
Fore
SplineSet
8 18 m 25
 10 18 l 25
 10 2 l 25
 8 2 l 25
 2 8 l 25
 2 12 l 25
 8 18 l 25
2 12 m 17
 14 12 l 1
 14 22 l 1
 18 22 l 9
 18 8 l 25
 2 8 l 25
 2 12 l 17
EndSplineSet
EndChar

StartChar: carriagereturn
Encoding: 8629 8629 514
Width: 20
VWidth: 0
Flags: HW
LayerCount: 2
Fore
SplineSet
7 20 m 25
 9 20 l 25
 9 4 l 25
 7 4 l 25
 1 10 l 25
 1 14 l 25
 7 20 l 25
1 14 m 17
 15 14 l 1
 15 20 l 1
 19 20 l 9
 19 10 l 25
 1 10 l 25
 1 14 l 17
EndSplineSet
EndChar

StartChar: uni21B4
Encoding: 8628 8628 515
Width: 20
VWidth: 0
Flags: HW
LayerCount: 2
Fore
SplineSet
3 10 m 25
 3 12 l 25
 19 12 l 25
 19 10 l 25
 13 4 l 25
 9 4 l 25
 3 10 l 25
13 20 m 25
 13 4 l 25
 9 4 l 17
 9 16 l 1
 1 16 l 1
 1 20 l 9
 13 20 l 25
EndSplineSet
EndChar

StartChar: uni21AE
Encoding: 8622 8622 516
Width: 20
VWidth: 0
Flags: HW
LayerCount: 2
Fore
SplineSet
10 22 m 9
 14 22 l 17
 14 20 l 1
 10 2 l 9
 6 2 l 17
 6 4 l 1
 10 22 l 9
16 4 m 25
 14 4 l 25
 14 20 l 25
 16 20 l 25
 20 14 l 25
 20 10 l 25
 16 4 l 25
4 20 m 25
 6 20 l 25
 6 4 l 25
 4 4 l 25
 0 10 l 25
 0 14 l 25
 4 20 l 25
0 14 m 25
 20 14 l 25
 20 10 l 25
 0 10 l 25
 0 14 l 25
EndSplineSet
EndChar

StartChar: uni21B9
Encoding: 8633 8633 517
Width: 20
VWidth: 0
Flags: HW
LayerCount: 2
Fore
SplineSet
6 12 m 29
 6 0 l 25
 2 0 l 25
 2 12 l 25
 6 12 l 29
14 24 m 25
 18 24 l 25
 18 12 l 25
 14 12 l 25
 14 24 l 25
10 12 m 25
 8 12 l 25
 8 24 l 25
 10 24 l 25
 14 20 l 25
 14 16 l 25
 10 12 l 25
14 16 m 25
 2 16 l 25
 2 20 l 25
 14 20 l 25
 14 16 l 25
10 12 m 25
 12 12 l 25
 12 0 l 25
 10 0 l 25
 6 4 l 25
 6 8 l 25
 10 12 l 25
6 8 m 25
 18 8 l 25
 18 4 l 25
 6 4 l 25
 6 8 l 25
EndSplineSet
EndChar

StartChar: uni21B8
Encoding: 8632 8632 518
Width: 20
VWidth: 0
Flags: HW
LayerCount: 2
Fore
SplineSet
2 20 m 25
 2 24 l 25
 18 24 l 25
 18 20 l 25
 2 20 l 25
18 2 m 29
 15 2 l 29
 2 15 l 29
 2 18 l 29
 5 18 l 29
 18 5 l 29
 18 2 l 29
2 18 m 29
 14 18 l 29
 14 16 l 29
 4 6 l 29
 2 6 l 29
 2 18 l 29
EndSplineSet
EndChar

StartChar: uni21BC
Encoding: 8636 8636 519
Width: 20
VWidth: 0
Flags: HW
LayerCount: 2
Fore
SplineSet
8 20 m 25
 10 20 l 25
 10 10 l 25
 8 10 l 25
 2 10 l 25
 2 14 l 25
 8 20 l 25
2 14 m 25
 18 14 l 25
 18 10 l 25
 2 10 l 25
 2 14 l 25
EndSplineSet
EndChar

StartChar: uni21BD
Encoding: 8637 8637 520
Width: 20
VWidth: 0
Flags: HW
LayerCount: 2
Fore
SplineSet
8 14 m 29
 10 14 l 29
 10 4 l 25
 8 4 l 25
 2 10 l 25
 2 14 l 25
 8 14 l 29
2 14 m 25
 18 14 l 25
 18 10 l 25
 2 10 l 25
 2 14 l 25
EndSplineSet
EndChar

StartChar: uni21BE
Encoding: 8638 8638 521
Width: 20
VWidth: 0
Flags: HW
LayerCount: 2
Fore
SplineSet
18 18 m 25
 18 16 l 25
 8 16 l 29
 8 18 l 29
 8 24 l 25
 12 24 l 25
 18 18 l 25
8 0 m 25
 8 24 l 25
 12 24 l 25
 12 0 l 25
 8 0 l 25
EndSplineSet
EndChar

StartChar: uni21BF
Encoding: 8639 8639 522
Width: 20
VWidth: 0
Flags: HW
LayerCount: 2
Fore
SplineSet
12 18 m 29
 12 16 l 29
 2 16 l 25
 2 18 l 25
 8 24 l 25
 12 24 l 25
 12 18 l 29
8 0 m 25
 8 24 l 25
 12 24 l 25
 12 0 l 25
 8 0 l 25
EndSplineSet
EndChar

StartChar: uni21CB
Encoding: 8651 8651 527
Width: 20
VWidth: 0
Flags: HW
LayerCount: 2
Fore
SplineSet
12 0 m 25
 10 0 l 25
 10 10 l 25
 12 10 l 25
 18 10 l 25
 18 6 l 25
 12 0 l 25
18 6 m 25
 2 6 l 25
 2 10 l 25
 18 10 l 25
 18 6 l 25
8 24 m 25
 10 24 l 25
 10 14 l 25
 8 14 l 25
 2 14 l 25
 2 18 l 25
 8 24 l 25
2 18 m 25
 18 18 l 25
 18 14 l 25
 2 14 l 25
 2 18 l 25
EndSplineSet
EndChar

StartChar: uni21B7
Encoding: 8631 8631 530
Width: 20
VWidth: 0
Flags: HW
LayerCount: 2
Fore
SplineSet
9 10 m 25
 9 12 l 25
 19 12 l 25
 19 10 l 25
 16 4 l 25
 12 4 l 25
 9 10 l 25
12 20 m 17
 16 16 l 1
 16 4 l 9
 12 4 l 17
 12 14 l 1
 10 16 l 1
 8 16 l 1
 6 14 l 1
 6 8 l 1
 2 8 l 1
 2 16 l 1
 6 20 l 9
 12 20 l 17
EndSplineSet
EndChar

StartChar: uni21BB
Encoding: 8635 8635 532
Width: 20
VWidth: 0
Flags: HW
LayerCount: 2
Fore
SplineSet
11 10 m 25
 11 8 l 25
 1 8 l 25
 1 10 l 25
 4 16 l 25
 8 16 l 25
 11 10 l 25
8 0 m 17
 4 4 l 1
 4 16 l 9
 8 16 l 17
 8 6 l 1
 10 4 l 1
 12 4 l 1
 14 6 l 1
 14 18 l 1
 12 20 l 1
 8 20 l 1
 8 24 l 1
 14 24 l 1
 18 20 l 1
 18 4 l 1
 14 0 l 9
 8 0 l 17
EndSplineSet
EndChar

StartChar: uni21A2
Encoding: 8610 8610 533
Width: 20
VWidth: 0
Flags: HW
LayerCount: 2
Fore
SplineSet
18 6 m 25
 18 4 l 25
 14 4 l 25
 11 10 l 25
 11 12 l 25
 15 12 l 25
 18 6 l 25
18 20 m 25
 18 18 l 25
 15 12 l 25
 11 12 l 25
 11 14 l 25
 14 20 l 25
 18 20 l 25
8 20 m 25
 10 20 l 25
 10 4 l 25
 8 4 l 25
 2 10 l 25
 2 14 l 25
 8 20 l 25
2 14 m 25
 14 14 l 25
 14 10 l 25
 2 10 l 25
 2 14 l 25
EndSplineSet
EndChar

StartChar: uni21E1
Encoding: 8673 8673 535
Width: 20
VWidth: 0
Flags: HW
LayerCount: 2
Fore
SplineSet
8 4 m 25
 12 4 l 25
 12 0 l 25
 8 0 l 25
 8 4 l 25
8 10 m 25
 12 10 l 25
 12 6 l 25
 8 6 l 25
 8 10 l 25
18 18 m 25
 18 16 l 25
 2 16 l 25
 2 18 l 25
 8 24 l 25
 12 24 l 25
 18 18 l 25
8 12 m 25
 8 24 l 25
 12 24 l 25
 12 12 l 25
 8 12 l 25
EndSplineSet
EndChar

StartChar: uni21E0
Encoding: 8672 8672 537
Width: 20
VWidth: 0
Flags: HW
LayerCount: 2
Fore
SplineSet
17 14 m 25
 19 14 l 25
 19 10 l 25
 17 10 l 25
 17 14 l 25
13 14 m 25
 15 14 l 25
 15 10 l 25
 13 10 l 25
 13 14 l 25
7 20 m 25
 9 20 l 25
 9 4 l 25
 7 4 l 25
 1 10 l 25
 1 14 l 25
 7 20 l 25
1 14 m 25
 11 14 l 25
 11 10 l 25
 1 10 l 25
 1 14 l 25
EndSplineSet
EndChar

StartChar: uni21E4
Encoding: 8676 8676 539
Width: 20
VWidth: 0
Flags: HW
LayerCount: 2
Fore
SplineSet
6 4 m 29
 2 4 l 25
 2 20 l 25
 6 20 l 25
 6 4 l 29
12 20 m 25
 14 20 l 25
 14 4 l 25
 12 4 l 25
 6 10 l 25
 6 14 l 25
 12 20 l 25
6 14 m 25
 18 14 l 25
 18 10 l 25
 6 10 l 25
 6 14 l 25
EndSplineSet
EndChar

StartChar: uni21E5
Encoding: 8677 8677 540
Width: 20
VWidth: 0
Flags: HW
LayerCount: 2
Fore
SplineSet
14 20 m 29
 18 20 l 29
 18 4 l 29
 14 4 l 29
 14 20 l 29
8 4 m 29
 6 4 l 29
 6 20 l 29
 8 20 l 29
 14 14 l 29
 14 10 l 29
 8 4 l 29
14 10 m 29
 2 10 l 29
 2 14 l 29
 14 14 l 29
 14 10 l 29
EndSplineSet
EndChar

StartChar: uni21E7
Encoding: 8679 8679 541
Width: 20
VWidth: 0
Flags: HW
LayerCount: 2
Fore
SplineSet
8 2 m 25
 12 2 l 25
 12 17 l 25
 16 17 l 17
 11 22 l 1
 9 22 l 9
 4 17 l 25
 8 17 l 25
 8 2 l 25
18 18 m 25
 18 15 l 17
 14 15 l 1
 14 0 l 5
 6 0 l 1
 6 15 l 1
 2 15 l 9
 2 18 l 25
 8 24 l 25
 12 24 l 25
 18 18 l 25
EndSplineSet
EndChar

StartChar: uni21F7
Encoding: 8695 8695 542
Width: 20
VWidth: 0
Flags: HW
LayerCount: 2
Fore
SplineSet
12 22 m 25
 16 22 l 25
 16 2 l 29
 12 2 l 29
 12 22 l 25
8 20 m 25
 10 20 l 25
 10 4 l 25
 8 4 l 25
 2 10 l 25
 2 14 l 25
 8 20 l 25
2 14 m 25
 18 14 l 25
 18 10 l 25
 2 10 l 25
 2 14 l 25
EndSplineSet
EndChar

StartChar: uni21F6
Encoding: 8694 8694 544
Width: 20
VWidth: 0
Flags: HW
LayerCount: 2
Fore
SplineSet
14 18 m 25
 12 18 l 25
 12 30 l 25
 14 30 l 25
 18 26 l 25
 18 22 l 25
 14 18 l 25
18 22 m 25
 2 22 l 25
 2 26 l 25
 18 26 l 25
 18 22 l 25
14 6 m 25
 12 6 l 25
 12 18 l 25
 14 18 l 25
 18 14 l 25
 18 10 l 25
 14 6 l 25
18 10 m 25
 2 10 l 25
 2 14 l 25
 18 14 l 25
 18 10 l 25
14 -6 m 25
 12 -6 l 25
 12 6 l 25
 14 6 l 25
 18 2 l 25
 18 -2 l 25
 14 -6 l 25
18 -2 m 25
 2 -2 l 25
 2 2 l 25
 18 2 l 25
 18 -2 l 25
EndSplineSet
EndChar

StartChar: uni21F1
Encoding: 8689 8689 545
Width: 20
VWidth: 0
Flags: HW
LayerCount: 2
Fore
SplineSet
1 4 m 13
 1 22 l 25
 19 22 l 25
 19 18 l 17
 5 18 l 1
 5 4 l 5
 1 4 l 13
19 4 m 25
 16 4 l 25
 7 13 l 25
 7 16 l 25
 10 16 l 25
 19 7 l 25
 19 4 l 25
7 16 m 25
 19 16 l 25
 19 14 l 25
 9 4 l 25
 7 4 l 25
 7 16 l 25
EndSplineSet
EndChar

StartChar: uni21AB
Encoding: 8619 8619 547
Width: 20
VWidth: 0
Flags: HW
LayerCount: 2
Fore
SplineSet
7 20 m 25
 9 20 l 25
 9 4 l 25
 7 4 l 25
 1 10 l 25
 1 14 l 25
 7 20 l 25
1 14 m 17
 11 14 l 1
 11 18 l 1
 13 20 l 1
 17 20 l 1
 19 18 l 9
 19 12 l 17
 17 10 l 1
 15 10 l 1
 15 4 l 1
 11 4 l 1
 11 10 l 1
 1 10 l 9
 1 14 l 17
EndSplineSet
EndChar

StartChar: uni21E6
Encoding: 8678 8678 550
Width: 20
VWidth: 0
Flags: HW
LayerCount: 2
Fore
SplineSet
16 14 m 25
 9 14 l 25
 9 18 l 25
 4 13 l 25
 4 11 l 25
 9 6 l 25
 9 10 l 25
 16 10 l 25
 16 14 l 25
8 20 m 25
 11 20 l 17
 11 16 l 1
 18 16 l 1
 18 8 l 5
 11 8 l 1
 11 4 l 9
 8 4 l 25
 2 10 l 25
 2 14 l 25
 8 20 l 25
EndSplineSet
EndChar

StartChar: arrowdblup
Encoding: 8657 8657 552
Width: 20
VWidth: 0
Flags: HW
LayerCount: 2
Fore
SplineSet
18 18 m 1
 18 14 l 1
 15 14 l 1
 15 0 l 1
 11 0 l 1
 11 17 l 1
 14 17 l 1
 10 21 l 1
 6 17 l 1
 9 17 l 1
 9 0 l 1
 5 0 l 1
 5 14 l 1
 2 14 l 1
 2 18 l 1
 8 24 l 1
 12 24 l 1
 18 18 l 1
EndSplineSet
EndChar

StartChar: arrowdblleft
Encoding: 8656 8656 554
Width: 20
VWidth: 0
Flags: HW
LayerCount: 2
Fore
SplineSet
10 22 m 1
 12 22 l 1
 12 17 l 1
 18 17 l 1
 18 13 l 1
 9 13 l 1
 9 16 l 1
 5 12 l 1
 9 8 l 1
 9 11 l 1
 18 11 l 1
 18 7 l 1
 12 7 l 1
 12 2 l 1
 10 2 l 1
 2 10 l 1
 2 14 l 1
 10 22 l 1
EndSplineSet
EndChar

StartChar: arrowdblboth
Encoding: 8660 8660 556
Width: 20
VWidth: 0
Flags: HW
LayerCount: 2
Fore
SplineSet
12 13 m 9
 8 13 l 25
 8 16 l 25
 4 12 l 25
 8 8 l 25
 8 11 l 25
 12 11 l 17
 12 8 l 1
 16 12 l 1
 12 16 l 1
 12 13 l 9
7 20 m 25
 13 20 l 17
 19 14 l 1
 19 10 l 1
 13 4 l 9
 7 4 l 25
 1 10 l 25
 1 14 l 25
 7 20 l 25
EndSplineSet
EndChar

StartChar: uni21D5
Encoding: 8661 8661 557
Width: 20
VWidth: 0
Flags: HW
LayerCount: 2
Fore
SplineSet
2 6 m 25
 2 10 l 25
 18 10 l 25
 18 6 l 25
 12 0 l 25
 8 0 l 25
 2 6 l 25
9 7 m 17
 6 7 l 1
 10 3 l 1
 14 7 l 5
 11 7 l 9
 11 17 l 25
 14 17 l 25
 10 21 l 25
 6 17 l 25
 9 17 l 25
 9 7 l 17
18 18 m 25
 18 14 l 25
 2 14 l 25
 2 18 l 25
 8 24 l 25
 12 24 l 25
 18 18 l 25
5 10 m 25
 5 14 l 25
 15 14 l 25
 15 10 l 25
 5 10 l 25
EndSplineSet
EndChar

StartChar: uni21CD
Encoding: 8653 8653 558
Width: 20
VWidth: 0
Flags: HW
LayerCount: 2
Fore
SplineSet
13 24 m 25
 17 24 l 25
 17 0 l 25
 13 0 l 25
 13 24 l 25
9 22 m 1
 11 22 l 1
 11 17 l 1
 19 17 l 1
 19 13 l 1
 8 13 l 1
 8 16 l 1
 4 12 l 1
 8 8 l 1
 8 11 l 1
 19 11 l 1
 19 7 l 1
 11 7 l 1
 11 2 l 1
 9 2 l 1
 1 10 l 1
 1 14 l 1
 9 22 l 1
EndSplineSet
EndChar

StartChar: uni21CE
Encoding: 8654 8654 559
Width: 20
VWidth: 0
Flags: HW
LayerCount: 2
Fore
SplineSet
8 24 m 25
 12 24 l 25
 12 0 l 29
 8 0 l 29
 8 24 l 25
13 13 m 9
 7 13 l 25
 7 16 l 25
 3 12 l 25
 7 8 l 25
 7 11 l 25
 13 11 l 17
 13 8 l 1
 17 12 l 1
 13 16 l 1
 13 13 l 9
6 20 m 25
 14 20 l 17
 20 14 l 1
 20 10 l 1
 14 4 l 9
 6 4 l 25
 0 10 l 25
 0 14 l 25
 6 20 l 25
EndSplineSet
EndChar

StartChar: uni21F5
Encoding: 8693 8693 561
Width: 20
VWidth: 0
Flags: HW
LayerCount: 2
Fore
SplineSet
1 6 m 29
 1 8 l 29
 11 8 l 29
 11 6 l 29
 8 0 l 29
 4 0 l 29
 1 6 l 29
8 24 m 29
 8 0 l 29
 4 0 l 29
 4 24 l 29
 8 24 l 29
19 18 m 29
 19 16 l 29
 9 16 l 29
 9 18 l 29
 12 24 l 29
 16 24 l 29
 19 18 l 29
12 0 m 29
 12 24 l 29
 16 24 l 29
 16 0 l 29
 12 0 l 29
EndSplineSet
EndChar

StartChar: uni21DE
Encoding: 8670 8670 562
Width: 20
VWidth: 0
Flags: HW
LayerCount: 2
Fore
SplineSet
2 8 m 29
 18 8 l 25
 18 4 l 25
 2 4 l 25
 2 8 l 29
2 14 m 25
 18 14 l 25
 18 10 l 25
 2 10 l 25
 2 14 l 25
18 18 m 25
 18 16 l 25
 2 16 l 25
 2 18 l 25
 8 24 l 25
 12 24 l 25
 18 18 l 25
8 0 m 25
 8 24 l 25
 12 24 l 25
 12 0 l 25
 8 0 l 25
EndSplineSet
EndChar

StartChar: uni21EA
Encoding: 8682 8682 564
Width: 20
VWidth: 0
Flags: HW
LayerCount: 2
Fore
SplineSet
12 4 m 25
 8 4 l 25
 8 2 l 25
 12 2 l 25
 12 4 l 25
6 0 m 25
 6 6 l 25
 14 6 l 25
 14 0 l 25
 6 0 l 25
8 10 m 25
 12 10 l 25
 12 17 l 25
 16 17 l 17
 11 22 l 1
 9 22 l 9
 4 17 l 25
 8 17 l 25
 8 10 l 25
18 18 m 25
 18 15 l 17
 14 15 l 1
 14 8 l 5
 6 8 l 1
 6 15 l 1
 2 15 l 9
 2 18 l 25
 8 24 l 25
 12 24 l 25
 18 18 l 25
EndSplineSet
EndChar

StartChar: uni21EB
Encoding: 8683 8683 565
Width: 20
VWidth: 0
Flags: HW
LayerCount: 2
Fore
SplineSet
4 2 m 9
 16 2 l 17
 16 6 l 1
 12 6 l 1
 12 17 l 9
 16 17 l 17
 11 22 l 1
 9 22 l 9
 4 17 l 25
 8 17 l 17
 8 6 l 1
 4 6 l 1
 4 2 l 9
18 18 m 29
 18 15 l 21
 14 15 l 5
 14 8 l 5
 18 8 l 5
 18 0 l 5
 2 0 l 5
 2 8 l 5
 6 8 l 5
 6 15 l 5
 2 15 l 13
 2 18 l 29
 8 24 l 29
 12 24 l 29
 18 18 l 29
EndSplineSet
EndChar

StartChar: uni21EC
Encoding: 8684 8684 566
Width: 20
VWidth: 0
Flags: HW
LayerCount: 2
Fore
SplineSet
3 17 m 25
 17 17 l 25
 17 15 l 25
 3 15 l 25
 3 17 l 25
4 2 m 9
 16 2 l 17
 16 6 l 1
 12 6 l 1
 12 13 l 1
 16 13 l 1
 16 17 l 1
 11 22 l 1
 9 22 l 9
 4 17 l 17
 4 13 l 1
 8 13 l 1
 8 6 l 1
 4 6 l 1
 4 2 l 9
18 18 m 25
 18 11 l 17
 14 11 l 1
 14 8 l 1
 18 8 l 1
 18 0 l 5
 2 0 l 1
 2 8 l 1
 6 8 l 1
 6 11 l 1
 2 11 l 9
 2 18 l 25
 8 24 l 25
 12 24 l 25
 18 18 l 25
EndSplineSet
EndChar

StartChar: uni21ED
Encoding: 8685 8685 567
Width: 20
VWidth: 0
Flags: HW
LayerCount: 2
Fore
SplineSet
18 18 m 25
 18 15 l 17
 15 15 l 5
 15 8 l 5
 18 8 l 1
 18 0 l 1
 2 0 l 1
 2 8 l 1
 5 8 l 1
 5 15 l 1
 2 15 l 9
 2 18 l 25
 8 24 l 25
 12 24 l 25
 18 18 l 25
9 1 m 25
 9 23 l 25
 11 23 l 25
 11 1 l 25
 9 1 l 25
4 2 m 9
 16 2 l 17
 16 6 l 1
 13 6 l 1
 13 17 l 9
 16 17 l 17
 11 22 l 1
 9 22 l 9
 4 17 l 25
 7 17 l 17
 7 6 l 1
 4 6 l 1
 4 2 l 9
EndSplineSet
EndChar

StartChar: uni21EE
Encoding: 8686 8686 568
Width: 20
VWidth: 0
Flags: HW
LayerCount: 2
Fore
SplineSet
11 22 m 25
 9 22 l 25
 4 17 l 25
 6 17 l 25
 8 19 l 25
 12 19 l 25
 14 17 l 25
 16 17 l 25
 11 22 l 25
18 18 m 25
 18 15 l 17
 14 15 l 1
 11 18 l 1
 9 18 l 1
 6 15 l 1
 2 15 l 9
 2 18 l 25
 8 24 l 25
 12 24 l 25
 18 18 l 25
8 2 m 25
 12 2 l 25
 12 12 l 25
 16 12 l 17
 11 17 l 1
 9 17 l 9
 4 12 l 25
 8 12 l 25
 8 2 l 25
18 13 m 25
 18 10 l 17
 14 10 l 1
 14 0 l 5
 6 0 l 1
 6 10 l 1
 2 10 l 9
 2 13 l 25
 8 19 l 25
 12 19 l 25
 18 13 l 25
EndSplineSet
EndChar

StartChar: uni21EF
Encoding: 8687 8687 569
Width: 20
VWidth: 0
Flags: HW
LayerCount: 2
Fore
SplineSet
11 22 m 25
 9 22 l 25
 4 17 l 25
 6 17 l 25
 8 19 l 25
 12 19 l 25
 14 17 l 25
 16 17 l 25
 11 22 l 25
18 18 m 25
 18 15 l 17
 14 15 l 1
 11 18 l 1
 9 18 l 1
 6 15 l 1
 2 15 l 9
 2 18 l 25
 8 24 l 25
 12 24 l 25
 18 18 l 25
4 2 m 9
 16 2 l 17
 16 6 l 1
 12 6 l 1
 12 12 l 9
 16 12 l 17
 11 17 l 1
 9 17 l 9
 4 12 l 25
 8 12 l 17
 8 6 l 1
 4 6 l 1
 4 2 l 9
18 13 m 25
 18 10 l 17
 14 10 l 1
 14 8 l 1
 18 8 l 1
 18 0 l 5
 2 0 l 1
 2 8 l 1
 6 8 l 1
 6 10 l 1
 2 10 l 9
 2 13 l 25
 8 19 l 25
 12 19 l 25
 18 13 l 25
EndSplineSet
EndChar

StartChar: uni21F0
Encoding: 8688 8688 570
Width: 20
VWidth: 0
Flags: HW
LayerCount: 2
Fore
SplineSet
3 6 m 17
 6 6 l 1
 6 10 l 1
 12 10 l 9
 12 6 l 25
 17 11 l 25
 17 13 l 25
 12 18 l 25
 12 14 l 17
 6 14 l 1
 6 18 l 1
 3 18 l 9
 3 6 l 17
13 4 m 25
 10 4 l 17
 10 8 l 1
 8 8 l 1
 8 4 l 1
 1 4 l 5
 1 20 l 1
 8 20 l 1
 8 16 l 1
 10 16 l 1
 10 20 l 9
 13 20 l 25
 19 14 l 25
 19 10 l 25
 13 4 l 25
EndSplineSet
EndChar

StartChar: uni21F3
Encoding: 8691 8691 571
Width: 20
VWidth: 0
Flags: HW
LayerCount: 2
Fore
SplineSet
14 9 m 5
 18 9 l 9
 18 6 l 25
 12 0 l 25
 8 0 l 25
 2 6 l 25
 2 9 l 17
 6 9 l 1
 6 15 l 1
 2 15 l 9
 2 18 l 25
 8 24 l 25
 12 24 l 25
 18 18 l 25
 18 15 l 17
 14 15 l 5
 14 9 l 5
8 7 m 17
 4 7 l 1
 9 2 l 1
 11 2 l 1
 16 7 l 1
 12 7 l 9
 12 17 l 25
 16 17 l 17
 11 22 l 1
 9 22 l 9
 4 17 l 25
 8 17 l 25
 8 7 l 17
EndSplineSet
EndChar

StartChar: uni21F9
Encoding: 8697 8697 572
Width: 20
VWidth: 0
Flags: HW
LayerCount: 2
Fore
SplineSet
8 22 m 25
 12 22 l 25
 12 2 l 25
 8 2 l 25
 8 22 l 25
16 4 m 29
 14 4 l 29
 14 20 l 29
 16 20 l 29
 20 14 l 25
 20 10 l 25
 16 4 l 29
4 20 m 25
 6 20 l 25
 6 4 l 25
 4 4 l 25
 0 10 l 25
 0 14 l 25
 4 20 l 25
0 14 m 25
 20 14 l 25
 20 10 l 25
 0 10 l 25
 0 14 l 25
EndSplineSet
EndChar

StartChar: uni21FA
Encoding: 8698 8698 573
Width: 20
VWidth: 0
Flags: HW
LayerCount: 2
Fore
SplineSet
15 22 m 25
 17 22 l 25
 17 2 l 25
 15 2 l 25
 15 22 l 25
11 22 m 25
 13 22 l 25
 13 2 l 25
 11 2 l 25
 11 22 l 25
7 20 m 25
 9 20 l 25
 9 4 l 25
 7 4 l 25
 1 10 l 25
 1 14 l 25
 7 20 l 25
1 14 m 25
 19 14 l 25
 19 10 l 25
 1 10 l 25
 1 14 l 25
EndSplineSet
EndChar

StartChar: uni21FC
Encoding: 8700 8700 575
Width: 20
VWidth: 0
Flags: HW
LayerCount: 2
Fore
SplineSet
11 22 m 25
 13 22 l 25
 13 2 l 25
 11 2 l 25
 11 22 l 25
7 22 m 25
 9 22 l 25
 9 2 l 25
 7 2 l 25
 7 22 l 25
17 5 m 25
 15 5 l 25
 15 19 l 25
 17 19 l 25
 20 14 l 25
 20 10 l 25
 17 5 l 25
3 19 m 25
 5 19 l 25
 5 5 l 25
 3 5 l 25
 0 10 l 25
 0 14 l 25
 3 19 l 25
0 14 m 25
 20 14 l 25
 20 10 l 25
 0 10 l 25
 0 14 l 25
EndSplineSet
EndChar

StartChar: uni21DA
Encoding: 8666 8666 576
Width: 20
VWidth: 0
Flags: HW
LayerCount: 2
Fore
SplineSet
5 14 m 29
 18 14 l 29
 18 10 l 29
 5 10 l 29
 5 14 l 29
12 24 m 29
 14 24 l 21
 14 20 l 5
 18 20 l 5
 18 16 l 5
 11 16 l 5
 11 18 l 5
 5 12 l 5
 11 6 l 5
 11 8 l 5
 18 8 l 5
 18 4 l 5
 14 4 l 5
 14 0 l 13
 12 0 l 29
 2 10 l 29
 2 14 l 29
 12 24 l 29
EndSplineSet
EndChar

StartChar: uni21D6
Encoding: 8662 8662 578
Width: 20
VWidth: 0
Flags: HW
LayerCount: 2
Fore
SplineSet
6 14 m 9
 14 6 l 25
 16 8 l 25
 8 16 l 17
 9 17 l 1
 5 17 l 1
 5 13 l 1
 6 14 l 9
13 16 m 25
 18 11 l 17
 18 8 l 1
 16 8 l 1
 14 6 l 1
 14 4 l 9
 11 4 l 25
 6 9 l 25
 13 16 l 25
2 20 m 25
 14 20 l 25
 14 17 l 25
 5 8 l 25
 2 8 l 25
 2 20 l 25
EndSplineSet
EndChar

StartChar: uni21AF
Encoding: 8623 8623 582
Width: 20
VWidth: 0
Flags: HW
LayerCount: 2
Fore
SplineSet
2 6 m 25
 2 8 l 25
 18 8 l 25
 18 6 l 25
 12 0 l 25
 8 0 l 25
 2 6 l 25
10 17 m 5
 15 17 l 5
 15 13 l 5
 11 6 l 13
 7 6 l 21
 7 8 l 5
 10 13 l 5
 5 13 l 5
 5 17 l 5
 9 24 l 5
 13 24 l 5
 13 22 l 5
 10 17 l 5
EndSplineSet
EndChar

StartChar: uni21DC
Encoding: 8668 8668 583
Width: 20
VWidth: 0
Flags: HW
LayerCount: 2
Fore
SplineSet
8 20 m 25
 10 20 l 25
 10 4 l 25
 8 4 l 25
 2 10 l 25
 2 14 l 25
 8 20 l 25
2 14 m 17
 10 13 l 1
 12 16 l 1
 14 13 l 1
 16 16 l 1
 18 13 l 9
 18 8 l 17
 16 11 l 1
 14 8 l 1
 12 11 l 1
 10 8 l 1
 2 10 l 9
 2 14 l 17
EndSplineSet
EndChar

StartChar: uni219C
Encoding: 8604 8604 585
Width: 20
VWidth: 0
Flags: HW
LayerCount: 2
Fore
SplineSet
7 20 m 25
 9 20 l 25
 9 4 l 25
 7 4 l 25
 1 10 l 25
 1 14 l 25
 7 20 l 25
1 14 m 17
 11 14 l 1
 11 16 l 1
 13 18 l 1
 17 18 l 1
 19 16 l 9
 19 6 l 21
 15 6 l 5
 15 12 l 1
 13 10 l 1
 1 10 l 9
 1 14 l 17
EndSplineSet
EndChar

StartChar: uni21AD
Encoding: 8621 8621 587
Width: 20
VWidth: 0
Flags: HW
LayerCount: 2
Fore
SplineSet
16 4 m 25
 14 4 l 25
 14 20 l 25
 16 20 l 25
 20 14 l 25
 20 10 l 25
 16 4 l 25
4 20 m 25
 6 20 l 25
 6 4 l 25
 4 4 l 25
 0 10 l 25
 0 14 l 25
 4 20 l 25
0 14 m 17
 7 14 l 1
 7 17 l 1
 9 19 l 1
 11 19 l 1
 13 17 l 1
 13 14 l 1
 20 14 l 9
 20 10 l 17
 12 10 l 1
 10 12 l 1
 8 10 l 1
 0 10 l 9
 0 14 l 17
EndSplineSet
EndChar

StartChar: uni21F4
Encoding: 8692 8692 588
Width: 20
VWidth: 0
Flags: HW
LayerCount: 2
Fore
SplineSet
14 4 m 25
 12 4 l 25
 12 20 l 25
 14 20 l 25
 20 14 l 25
 20 10 l 25
 14 4 l 25
20 10 m 17
 10 10 l 1
 10 6 l 1
 8 4 l 1
 4 4 l 1
 2 6 l 1
 2 10 l 1
 0 10 l 9
 0 14 l 17
 2 14 l 1
 2 18 l 1
 4 20 l 1
 8 20 l 1
 10 18 l 1
 10 14 l 1
 20 14 l 9
 20 10 l 17
EndSplineSet
EndChar

StartChar: uni21FD
Encoding: 8701 8701 589
Width: 20
VWidth: 0
Flags: HW
LayerCount: 2
Fore
SplineSet
9 18 m 25
 4 13 l 25
 4 11 l 25
 9 6 l 25
 9 18 l 25
8 20 m 25
 11 20 l 25
 11 4 l 25
 8 4 l 25
 2 10 l 25
 2 14 l 25
 8 20 l 25
10 14 m 25
 18 14 l 25
 18 10 l 25
 10 10 l 25
 10 14 l 25
EndSplineSet
EndChar

StartChar: uni21FF
Encoding: 8703 8703 591
Width: 20
VWidth: 0
Flags: HW
LayerCount: 2
Fore
SplineSet
13 18 m 25
 13 6 l 25
 17 11 l 25
 17 13 l 25
 13 18 l 25
7 18 m 25
 3 13 l 25
 3 11 l 25
 7 6 l 25
 7 18 l 25
14 4 m 25
 11 4 l 25
 11 20 l 25
 14 20 l 25
 19 14 l 25
 19 10 l 25
 14 4 l 25
6 20 m 25
 9 20 l 25
 9 4 l 25
 6 4 l 25
 1 10 l 25
 1 14 l 25
 6 20 l 25
8 14 m 25
 12 14 l 25
 12 10 l 25
 8 10 l 25
 8 14 l 25
EndSplineSet
EndChar

StartChar: uni2D31
Encoding: 11569 11569 593
Width: 20
VWidth: 0
Flags: HW
LayerCount: 2
Fore
SplineSet
4 14 m 25
 16 14 l 25
 16 10 l 25
 4 10 l 25
 4 14 l 25
EndSplineSet
Refer: 0 79 S 1 0 0 1 0 0 2
EndChar

StartChar: uni2D32
Encoding: 11570 11570 594
Width: 20
VWidth: 0
Flags: HW
LayerCount: 2
Fore
SplineSet
4 14 m 17
 8 14 l 1
 8 22 l 1
 12 22 l 1
 12 14 l 1
 16 14 l 9
 16 10 l 17
 12 10 l 1
 12 2 l 1
 8 2 l 1
 8 10 l 1
 4 10 l 9
 4 14 l 17
EndSplineSet
Refer: 0 79 S 1 0 0 1 0 0 2
EndChar

StartChar: uni2D40
Encoding: 11584 11584 595
Width: 20
VWidth: 0
Flags: HW
LayerCount: 2
Fore
SplineSet
8 22 m 25
 12 22 l 25
 12 2 l 25
 8 2 l 25
 8 22 l 25
EndSplineSet
Refer: 0 79 S 1 0 0 1 0 0 2
EndChar

StartChar: uni2D3C
Encoding: 11580 11580 600
Width: 20
VWidth: 0
Flags: H
LayerCount: 2
Fore
SplineSet
2 24 m 25
 9 24 l 25
 9 14 l 25
 11 14 l 25
 11 24 l 25
 18 24 l 25
 18 20 l 25
 15 20 l 25
 15 4 l 25
 18 4 l 25
 18 0 l 25
 11 0 l 25
 11 10 l 25
 9 10 l 25
 9 0 l 25
 2 0 l 25
 2 4 l 25
 5 4 l 25
 5 20 l 25
 2 20 l 25
 2 24 l 25
EndSplineSet
EndChar

StartChar: uni2D44
Encoding: 11588 11588 601
Width: 20
VWidth: 0
Flags: H
LayerCount: 2
Fore
SplineSet
2 0 m 29
 2 14 l 25
 8 14 l 25
 8 24 l 25
 12 24 l 25
 12 14 l 25
 18 14 l 25
 18 0 l 25
 14 0 l 25
 14 10 l 25
 6 10 l 25
 6 0 l 25
 2 0 l 29
EndSplineSet
EndChar

StartChar: uni2D33
Encoding: 11571 11571 602
Width: 20
VWidth: 0
Flags: HW
LayerCount: 2
Fore
SplineSet
4 24 m 29
 16 24 l 25
 16 20 l 25
 4 20 l 25
 4 24 l 29
EndSplineSet
Refer: 23 88 N 1 0 0 1 0 0 2
EndChar

StartChar: uni2D34
Encoding: 11572 11572 603
Width: 20
VWidth: 0
Flags: HW
LayerCount: 2
Fore
SplineSet
4 4 m 29
 16 4 l 25
 16 0 l 25
 4 0 l 25
 4 4 l 29
EndSplineSet
Refer: 23 88 N 1 0 0 1 0 0 2
EndChar

StartChar: uni2D35
Encoding: 11573 11573 604
Width: 20
VWidth: 0
Flags: HW
LayerCount: 2
Fore
SplineSet
4 4 m 29
 16 4 l 25
 16 0 l 25
 4 0 l 25
 4 4 l 29
4 20 m 25
 4 24 l 25
 16 24 l 25
 16 20 l 25
 4 20 l 25
EndSplineSet
Refer: 23 88 N 1 0 0 1 0 0 2
EndChar

StartChar: uni2D43
Encoding: 11587 11587 605
Width: 20
VWidth: 0
Flags: HW
LayerCount: 2
Fore
SplineSet
14 19 m 5
 14 24 l 1
 18 24 l 9
 18 17 l 17
 13 12 l 1
 18 7 l 1
 18 0 l 1
 14 0 l 1
 14 5 l 1
 10 9 l 1
 6 5 l 1
 6 0 l 1
 2 0 l 9
 2 7 l 21
 14 19 l 5
EndSplineSet
EndChar

StartChar: uni2D45
Encoding: 11589 11589 606
Width: 20
VWidth: 0
Flags: HW
LayerCount: 2
Fore
SplineSet
8 24 m 29
 12 24 l 25
 12 12 l 25
 8 12 l 25
 8 24 l 29
2 0 m 9
 2 7 l 17
 7 12 l 1
 2 17 l 1
 2 24 l 1
 6 24 l 1
 6 19 l 1
 10 15 l 1
 14 19 l 1
 14 24 l 1
 18 24 l 9
 18 17 l 17
 13 12 l 1
 18 7 l 1
 18 0 l 1
 14 0 l 1
 14 5 l 1
 10 9 l 1
 6 5 l 1
 6 0 l 1
 2 0 l 9
EndSplineSet
EndChar

StartChar: uni2D61
Encoding: 11617 11617 607
Width: 20
VWidth: 0
Flags: H
LayerCount: 2
Fore
SplineSet
2 0 m 29
 2 24 l 25
 6 24 l 25
 6 4 l 25
 14 4 l 25
 14 24 l 25
 18 24 l 25
 18 0 l 25
 2 0 l 29
EndSplineSet
EndChar

StartChar: uni2D60
Encoding: 11616 11616 608
Width: 20
VWidth: 0
Flags: HW
LayerCount: 2
Fore
SplineSet
4 4 m 29
 16 4 l 25
 16 0 l 25
 4 0 l 25
 4 4 l 29
EndSplineSet
Refer: 57 86 N -1 0 0 -1 20 24 2
EndChar

StartChar: uni2D5A
Encoding: 11610 11610 609
Width: 20
VWidth: 0
Flags: HW
LayerCount: 2
Fore
SplineSet
18 22 m 29
 12 10 l 29
 8 10 l 29
 8 12 l 29
 14 24 l 29
 18 24 l 29
 18 22 l 29
EndSplineSet
Refer: 0 79 N 1 0 0 1 0 0 2
EndChar

StartChar: uni2D55
Encoding: 11605 11605 612
Width: 20
VWidth: 0
Flags: HW
LayerCount: 2
Fore
SplineSet
18 2 m 25
 18 0 l 25
 14 0 l 25
 8 12 l 25
 8 14 l 25
 12 14 l 25
 18 2 l 25
EndSplineSet
Refer: 0 79 N 1 0 0 1 0 0 2
EndChar

StartChar: uni2D4E
Encoding: 11598 11598 613
Width: 20
VWidth: 0
Flags: H
LayerCount: 2
Fore
SplineSet
2 0 m 25
 2 24 l 25
 18 24 l 25
 18 20 l 25
 6 20 l 25
 6 4 l 25
 18 4 l 25
 18 0 l 25
 2 0 l 25
EndSplineSet
EndChar

StartChar: uni2D4C
Encoding: 11596 11596 615
Width: 20
VWidth: 0
Flags: HW
LayerCount: 2
Fore
SplineSet
8 14 m 25
 8 10 l 25
 12 10 l 25
 12 14 l 25
 8 14 l 25
8 0 m 25
 4 0 l 25
 4 6 l 25
 2 6 l 25
 2 10 l 25
 4 10 l 25
 4 14 l 25
 2 14 l 25
 2 18 l 25
 4 18 l 25
 4 24 l 25
 8 24 l 25
 8 18 l 25
 12 18 l 25
 12 24 l 25
 16 24 l 25
 16 18 l 25
 18 18 l 25
 18 14 l 25
 16 14 l 25
 16 10 l 25
 18 10 l 25
 18 6 l 25
 16 6 l 25
 16 0 l 25
 12 0 l 25
 12 6 l 25
 8 6 l 25
 8 0 l 25
EndSplineSet
EndChar

StartChar: uni2D4A
Encoding: 11594 11594 616
Width: 20
VWidth: 0
Flags: H
LayerCount: 2
Fore
SplineSet
4 24 m 29
 16 24 l 25
 16 20 l 25
 12 20 l 25
 12 4 l 25
 16 4 l 25
 16 0 l 25
 4 0 l 25
 4 4 l 25
 8 4 l 25
 8 20 l 25
 4 20 l 25
 4 24 l 29
EndSplineSet
EndChar

StartChar: uni2D5C
Encoding: 11612 11612 617
Width: 20
VWidth: 0
Flags: HW
LayerCount: 2
Fore
SplineSet
2 14 m 21
 8 14 l 1
 8 24 l 1
 12 24 l 1
 12 14 l 1
 18 14 l 9
 18 10 l 17
 12 10 l 1
 12 0 l 1
 8 0 l 1
 8 10 l 1
 2 10 l 13
 2 14 l 21
EndSplineSet
EndChar

StartChar: uni2D4B
Encoding: 11595 11595 619
Width: 20
VWidth: 0
Flags: H
LayerCount: 2
Fore
SplineSet
2 24 m 25
 6 24 l 25
 10 20 l 25
 14 24 l 25
 18 24 l 25
 18 20 l 25
 15 20 l 25
 12 17 l 25
 12 7 l 29
 15 4 l 25
 18 4 l 25
 18 0 l 25
 14 0 l 25
 10 4 l 25
 6 0 l 25
 2 0 l 25
 2 4 l 25
 5 4 l 25
 8 7 l 29
 8 17 l 25
 5 20 l 25
 2 20 l 25
 2 24 l 25
EndSplineSet
EndChar

StartChar: uni2D63
Encoding: 11619 11619 620
Width: 20
VWidth: 0
Flags: HW
LayerCount: 2
Fore
SplineSet
8 24 m 29
 12 24 l 25
 12 0 l 25
 8 0 l 25
 8 24 l 29
6 0 m 25
 2 0 l 25
 2 6 l 25
 6 10 l 25
 14 10 l 25
 18 6 l 25
 18 0 l 25
 14 0 l 25
 14 4 l 25
 12 6 l 25
 8 6 l 25
 6 4 l 25
 6 0 l 25
14 24 m 25
 18 24 l 25
 18 18 l 25
 14 14 l 25
 6 14 l 25
 2 18 l 25
 2 24 l 25
 6 24 l 25
 6 20 l 25
 8 18 l 25
 12 18 l 25
 14 20 l 25
 14 24 l 25
EndSplineSet
EndChar

StartChar: uni2D65
Encoding: 11621 11621 621
Width: 20
VWidth: 0
Flags: HW
LayerCount: 2
Fore
SplineSet
6 0 m 25
 2 0 l 25
 2 4 l 25
 6 8 l 25
 14 8 l 25
 18 4 l 25
 18 0 l 25
 14 0 l 25
 14 2 l 25
 12 4 l 25
 8 4 l 25
 6 2 l 25
 6 0 l 25
14 24 m 25
 18 24 l 25
 18 20 l 25
 14 16 l 25
 6 16 l 25
 2 20 l 25
 2 24 l 25
 6 24 l 25
 6 22 l 25
 8 20 l 25
 12 20 l 25
 14 22 l 25
 14 24 l 25
2 14 m 17
 8 14 l 1
 8 24 l 1
 12 24 l 1
 12 14 l 1
 18 14 l 9
 18 10 l 17
 12 10 l 1
 12 0 l 1
 8 0 l 1
 8 10 l 1
 2 10 l 9
 2 14 l 17
EndSplineSet
EndChar

StartChar: uni2D5F
Encoding: 11615 11615 623
Width: 20
VWidth: 0
Flags: HW
LayerCount: 2
Fore
SplineSet
4 14 m 21
 10 14 l 5
 10 18 l 5
 14 18 l 5
 14 14 l 5
 18 14 l 13
 18 10 l 21
 14 10 l 5
 14 6 l 5
 10 6 l 5
 10 10 l 5
 4 10 l 13
 4 14 l 21
EndSplineSet
Refer: 613 11598 N 1 0 0 1 0 0 2
EndChar

StartChar: uni2D5E
Encoding: 11614 11614 624
Width: 20
VWidth: 0
Flags: HW
LayerCount: 2
Fore
SplineSet
4 14 m 17
 9 14 l 5
 9 17 l 5
 13 17 l 5
 13 14 l 5
 16 14 l 13
 16 10 l 21
 13 10 l 5
 13 7 l 5
 9 7 l 5
 9 10 l 5
 4 10 l 9
 4 14 l 17
13 3 m 25
 13 1 l 25
 15 1 l 25
 15 3 l 25
 13 3 l 25
13 23 m 25
 13 21 l 25
 15 21 l 25
 15 23 l 25
 13 23 l 25
16 26 m 25
 18 24 l 25
 18 20 l 25
 16 18 l 25
 12 18 l 25
 10 20 l 25
 8 20 l 25
 6 18 l 25
 6 6 l 25
 8 4 l 25
 10 4 l 25
 12 6 l 25
 16 6 l 25
 18 4 l 25
 18 0 l 25
 16 -2 l 25
 12 -2 l 25
 10 0 l 25
 6 0 l 25
 2 4 l 25
 2 20 l 25
 6 24 l 25
 10 24 l 25
 12 26 l 25
 16 26 l 25
EndSplineSet
EndChar

StartChar: uni2D58
Encoding: 11608 11608 625
Width: 20
VWidth: 0
Flags: HW
LayerCount: 2
Fore
SplineSet
2 6 m 25
 8 6 l 25
 8 0 l 25
 2 0 l 25
 2 6 l 25
12 6 m 25
 18 6 l 25
 18 0 l 25
 12 0 l 25
 12 6 l 25
12 24 m 29
 18 24 l 29
 18 18 l 29
 12 18 l 29
 12 24 l 29
2 24 m 29
 8 24 l 29
 8 18 l 29
 2 18 l 29
 2 24 l 29
7 15 m 25
 13 15 l 25
 13 9 l 25
 7 9 l 25
 7 15 l 25
EndSplineSet
EndChar

StartChar: uni2D57
Encoding: 11607 11607 626
Width: 20
VWidth: 0
Flags: HW
LayerCount: 2
Fore
SplineSet
7 6 m 25
 13 6 l 25
 13 0 l 25
 7 0 l 25
 7 6 l 25
7 24 m 25
 13 24 l 25
 13 18 l 25
 7 18 l 25
 7 24 l 25
7 15 m 29
 13 15 l 29
 13 9 l 29
 7 9 l 29
 7 15 l 29
EndSplineSet
EndChar

StartChar: uni2D42
Encoding: 11586 11586 627
Width: 20
VWidth: 0
Flags: HW
LayerCount: 2
Fore
SplineSet
7 23 m 29
 13 23 l 29
 13 19 l 29
 7 19 l 29
 7 23 l 29
7 17 m 29
 13 17 l 29
 13 13 l 29
 7 13 l 29
 7 17 l 29
7 11 m 29
 13 11 l 29
 13 7 l 29
 7 7 l 29
 7 11 l 29
7 5 m 29
 13 5 l 29
 13 1 l 29
 7 1 l 29
 7 5 l 29
EndSplineSet
EndChar

StartChar: uni2D48
Encoding: 11592 11592 628
Width: 20
VWidth: 0
Flags: HW
LayerCount: 2
Fore
SplineSet
2 15 m 25
 6 15 l 25
 6 9 l 25
 2 9 l 25
 2 15 l 25
14 15 m 29
 18 15 l 29
 18 9 l 29
 14 9 l 29
 14 15 l 29
8 15 m 25
 12 15 l 29
 12 9 l 29
 8 9 l 25
 8 15 l 25
EndSplineSet
EndChar

StartChar: uni2D46
Encoding: 11590 11590 629
Width: 20
VWidth: 0
Flags: HW
LayerCount: 2
Fore
SplineSet
12 10 m 29
 18 10 l 29
 18 4 l 29
 12 4 l 29
 12 10 l 29
2 10 m 29
 8 10 l 29
 8 4 l 29
 2 4 l 29
 2 10 l 29
12 20 m 29
 18 20 l 29
 18 14 l 29
 12 14 l 29
 12 20 l 29
2 20 m 29
 8 20 l 29
 8 14 l 29
 2 14 l 29
 2 20 l 29
EndSplineSet
EndChar

StartChar: uni2D3E
Encoding: 11582 11582 630
Width: 20
VWidth: 0
Flags: HW
LayerCount: 2
Fore
SplineSet
3 6 m 29
 9 6 l 29
 9 0 l 29
 3 0 l 29
 3 6 l 29
3 24 m 25
 9 24 l 25
 9 18 l 25
 3 18 l 25
 3 24 l 25
11 15 m 25
 17 15 l 25
 17 9 l 25
 11 9 l 25
 11 15 l 25
EndSplineSet
EndChar

StartChar: uni2D47
Encoding: 11591 11591 631
Width: 20
VWidth: 0
Flags: HW
LayerCount: 2
Fore
SplineSet
16 22 m 25
 18 20 l 25
 18 18 l 25
 6 6 l 25
 4 6 l 25
 4 10 l 25
 16 22 l 25
EndSplineSet
Refer: 613 11598 S 1 0 0 1 0 0 2
EndChar

StartChar: uni2D53
Encoding: 11603 11603 632
Width: 20
VWidth: 0
Flags: H
LayerCount: 2
Fore
SplineSet
6 7 m 29
 6 4 l 25
 14 4 l 25
 14 7 l 29
 6 7 l 29
5 11 m 29
 15 11 l 29
 18 8 l 29
 18 3 l 25
 15 0 l 25
 5 0 l 25
 2 3 l 25
 2 8 l 29
 5 11 l 29
6 20 m 25
 6 17 l 25
 14 17 l 25
 14 20 l 25
 6 20 l 25
5 24 m 25
 15 24 l 25
 18 21 l 25
 18 16 l 25
 15 13 l 25
 5 13 l 25
 2 16 l 25
 2 21 l 25
 5 24 l 25
EndSplineSet
EndChar

StartChar: uni2D50
Encoding: 11600 11600 633
Width: 20
VWidth: 0
Flags: HW
LayerCount: 2
Fore
SplineSet
2 10 m 21
 8 10 l 5
 8 14 l 5
 2 14 l 5
 2 18 l 5
 8 18 l 5
 8 24 l 1
 12 24 l 1
 12 18 l 5
 18 18 l 5
 18 14 l 5
 12 14 l 5
 12 10 l 5
 18 10 l 13
 18 6 l 21
 12 6 l 5
 12 0 l 1
 8 0 l 1
 8 6 l 5
 2 6 l 13
 2 10 l 21
EndSplineSet
EndChar

StartChar: uni2D4F
Encoding: 11599 11599 634
Width: 20
VWidth: 0
Flags: H
LayerCount: 2
Fore
SplineSet
8 24 m 29
 12 24 l 25
 12 0 l 25
 8 0 l 25
 8 24 l 29
EndSplineSet
EndChar

StartChar: uni2D3B
Encoding: 11579 11579 635
Width: 20
VWidth: 0
Flags: HW
LayerCount: 2
Fore
SplineSet
2 14 m 25
 18 14 l 25
 18 10 l 25
 2 10 l 25
 2 14 l 25
6 4 m 29
 6 2 l 29
 14 2 l 29
 14 4 l 29
 6 4 l 29
5 8 m 29
 15 8 l 29
 18 5 l 29
 18 1 l 29
 15 -2 l 29
 5 -2 l 29
 2 1 l 29
 2 5 l 29
 5 8 l 29
6 22 m 25
 6 20 l 25
 14 20 l 25
 14 22 l 25
 6 22 l 25
5 26 m 25
 15 26 l 25
 18 23 l 25
 18 19 l 25
 15 16 l 25
 5 16 l 25
 2 19 l 25
 2 23 l 25
 5 26 l 25
EndSplineSet
EndChar

StartChar: uni2D36
Encoding: 11574 11574 636
Width: 20
VWidth: 0
Flags: HW
LayerCount: 2
Fore
SplineSet
6 24 m 25
 6 18 l 25
 2 18 l 29
 2 24 l 25
 6 24 l 25
14 24 m 25
 18 24 l 25
 18 18 l 25
 14 18 l 25
 14 24 l 25
8 24 m 25
 12 24 l 25
 12 0 l 25
 8 0 l 25
 8 24 l 25
EndSplineSet
EndChar

StartChar: uni2D64
Encoding: 11620 11620 637
Width: 20
VWidth: 0
Flags: H
LayerCount: 2
Fore
SplineSet
4 0 m 25
 4 24 l 25
 8 24 l 25
 16 16 l 25
 16 14 l 25
 12 14 l 25
 8 18 l 25
 8 0 l 25
 4 0 l 25
EndSplineSet
EndChar

StartChar: uni2D49
Encoding: 11593 11593 638
Width: 20
VWidth: 0
Flags: H
LayerCount: 2
Fore
SplineSet
2 0 m 29
 2 4 l 25
 18 4 l 25
 18 0 l 25
 2 0 l 29
2 24 m 25
 18 24 l 25
 18 20 l 25
 2 20 l 25
 2 24 l 25
2 22 m 25
 6 22 l 25
 14 14 l 25
 14 10 l 25
 6 2 l 25
 2 2 l 25
 2 4 l 25
 10 12 l 25
 2 20 l 25
 2 22 l 25
EndSplineSet
EndChar

StartChar: uni2D62
Encoding: 11618 11618 639
Width: 20
VWidth: 0
Flags: HW
LayerCount: 2
Fore
SplineSet
2 24 m 25
 18 24 l 25
 18 20 l 25
 2 20 l 25
 2 24 l 25
2 22 m 25
 6 22 l 25
 14 14 l 25
 14 10 l 25
 6 2 l 25
 2 2 l 25
 2 4 l 25
 10 12 l 25
 2 20 l 25
 2 22 l 25
EndSplineSet
EndChar

StartChar: uni2D3D
Encoding: 11581 11581 640
Width: 20
VWidth: 0
Flags: HW
LayerCount: 2
Fore
SplineSet
18 0 m 25
 14 0 l 25
 8 10 l 25
 8 12 l 25
 12 12 l 25
 18 2 l 25
 18 0 l 25
2 24 m 25
 18 24 l 25
 18 20 l 25
 6 20 l 25
 6 0 l 25
 2 0 l 25
 2 24 l 25
2 0 m 25
 2 2 l 25
 14 22 l 25
 18 22 l 25
 18 20 l 25
 6 0 l 25
 2 0 l 25
EndSplineSet
EndChar

StartChar: uni2D51
Encoding: 11601 11601 642
Width: 20
VWidth: 0
Flags: HW
LayerCount: 2
Fore
SplineSet
8 0 m 25
 8 4 l 29
 12 4 l 29
 12 0 l 25
 8 0 l 25
8 24 m 25
 12 24 l 25
 12 8 l 25
 8 8 l 25
 8 24 l 25
EndSplineSet
EndChar

StartChar: uni2D5B
Encoding: 11611 11611 643
Width: 20
VWidth: 0
Flags: H
LayerCount: 2
Fore
SplineSet
13 5 m 25
 13 3 l 25
 15 3 l 25
 15 5 l 25
 13 5 l 25
13 21 m 25
 13 19 l 25
 15 19 l 25
 15 21 l 25
 13 21 l 25
16 24 m 25
 18 22 l 25
 18 18 l 25
 16 16 l 25
 12 16 l 25
 10 18 l 25
 8 18 l 25
 6 16 l 25
 6 8 l 25
 8 6 l 25
 10 6 l 25
 12 8 l 25
 16 8 l 25
 18 6 l 25
 18 2 l 25
 16 0 l 25
 12 0 l 25
 10 2 l 25
 6 2 l 25
 2 6 l 25
 2 18 l 25
 6 22 l 25
 10 22 l 25
 12 24 l 25
 16 24 l 25
EndSplineSet
EndChar

StartChar: uni2D59
Encoding: 11609 11609 644
Width: 20
VWidth: 0
Flags: HW
LayerCount: 2
Fore
SplineSet
8 15 m 25
 12 15 l 25
 12 9 l 29
 8 9 l 29
 8 15 l 25
EndSplineSet
Refer: 0 79 N 1 0 0 1 0 0 2
EndChar

StartChar: uni2D67
Encoding: 11623 11623 645
Width: 20
VWidth: 0
Flags: H
LayerCount: 2
Fore
SplineSet
12 10 m 25
 12 14 l 25
 18 14 l 25
 18 10 l 29
 12 10 l 25
2 14 m 25
 8 14 l 25
 8 10 l 25
 2 10 l 25
 2 14 l 25
EndSplineSet
EndChar

StartChar: uni2D66
Encoding: 11622 11622 646
Width: 20
VWidth: 0
Flags: HW
LayerCount: 2
Fore
SplineSet
18 2 m 29
 14 2 l 29
 2 10 l 25
 2 14 l 25
 14 22 l 25
 18 22 l 25
 18 20 l 25
 6 12 l 25
 18 4 l 29
 18 2 l 29
EndSplineSet
EndChar

StartChar: uni2D6F
Encoding: 11631 11631 647
Width: 20
VWidth: 0
Flags: HW
LayerCount: 2
Fore
SplineSet
2 16 m 29
 2 24 l 25
 6 24 l 25
 6 20 l 29
 14 20 l 29
 14 24 l 25
 18 24 l 25
 18 16 l 29
 2 16 l 29
EndSplineSet
EndChar

StartChar: uni2D52
Encoding: 11602 11602 648
Width: 20
VWidth: 0
Flags: H
LayerCount: 2
Fore
SplineSet
18 4 m 25
 14 0 l 25
 6 0 l 25
 2 4 l 25
 2 10 l 25
 14 22 l 25
 18 22 l 25
 18 20 l 25
 6 8 l 25
 6 6 l 25
 8 4 l 25
 12 4 l 25
 14 6 l 25
 14 8 l 25
 12 10 l 25
 12 12 l 25
 16 12 l 25
 18 10 l 25
 18 4 l 25
2 24 m 25
 18 24 l 25
 18 20 l 25
 2 20 l 25
 2 24 l 25
EndSplineSet
EndChar

StartChar: uni2D70
Encoding: 11632 11632 649
Width: 20
VWidth: 0
Flags: H
LayerCount: 2
Fore
SplineSet
2 4 m 29
 2 8 l 29
 8 8 l 29
 14 14 l 29
 14 20 l 29
 18 20 l 29
 18 12 l 29
 10 4 l 29
 2 4 l 29
EndSplineSet
EndChar

StartChar: afii10067
Encoding: 1074 1074 655
Width: 20
VWidth: 0
Flags: H
LayerCount: 2
Fore
SplineSet
6 10 m 25
 14 10 l 25
 14 12 l 25
 6 12 l 25
 6 10 l 25
6 4 m 25
 14 4 l 25
 14 6 l 25
 6 6 l 25
 6 4 l 25
2 0 m 9
 2 16 l 17
 15 16 l 1
 18 13 l 5
 18 10 l 1
 16 8 l 1
 18 6 l 1
 18 3 l 1
 15 0 l 1
 2 0 l 9
EndSplineSet
EndChar

StartChar: afii10027
Encoding: 1049 1049 659
Width: 20
VWidth: 0
Flags: HW
LayerCount: 2
Fore
SplineSet
4 32.0667 m 29
 8 32.0667 l 29
 8 30 l 29
 12 30 l 29
 12 32.0667 l 29
 16 32.0667 l 29
 16 29 l 29
 13 26 l 29
 7 26 l 29
 4 29 l 29
 4 32.0667 l 29
EndSplineSet
Refer: 30 78 N -1 0 0 1 20 0 2
EndChar

StartChar: afii10074
Encoding: 1080 1080 660
Width: 20
VWidth: 0
Flags: HW
LayerCount: 2
Fore
SplineSet
18 16 m 9
 18 0 l 17
 14 0 l 1
 14 10 l 1
 6 0 l 1
 2 0 l 9
 2 16 l 17
 6 16 l 1
 6 6 l 1
 14 16 l 1
 18 16 l 9
EndSplineSet
EndChar

StartChar: afii10075
Encoding: 1081 1081 661
Width: 20
VWidth: 0
Flags: HW
LayerCount: 2
Fore
SplineSet
4 24.0664 m 29
 8 24.0664 l 29
 8 22 l 29
 12 22 l 29
 12 24.0664 l 29
 16 24.0664 l 29
 16 21 l 29
 13 18 l 29
 7 18 l 29
 4 21 l 29
 4 24.0664 l 29
EndSplineSet
Refer: 660 1080 N 1 0 0 1 0 0 2
EndChar

StartChar: afii10076
Encoding: 1082 1082 663
Width: 20
VWidth: 0
Flags: HW
LayerCount: 2
Fore
SplineSet
14 0 m 5
 8 6 l 5
 6 6 l 5
 6 0 l 13
 2 0 l 29
 2 16 l 29
 6 16 l 21
 6 10 l 5
 8 10 l 5
 14 16 l 5
 18 16 l 5
 18 14 l 5
 12 8 l 5
 18 2 l 5
 18 0 l 5
 14 0 l 5
EndSplineSet
EndChar

StartChar: afii10079
Encoding: 1085 1085 665
Width: 20
VWidth: 0
Flags: HW
LayerCount: 2
Fore
SplineSet
2 0 m 25
 2 16 l 29
 6 16 l 29
 6 10 l 29
 14 10 l 29
 14 16 l 29
 18 16 l 29
 18 0 l 25
 14 0 l 25
 14 6 l 29
 6 6 l 29
 6 0 l 25
 2 0 l 25
EndSplineSet
EndChar

StartChar: afii10084
Encoding: 1090 1090 671
Width: 20
VWidth: 0
Flags: HW
LayerCount: 2
Fore
SplineSet
2 16 m 29
 18 16 l 29
 18 12 l 29
 12 12 l 29
 12 0 l 25
 8 0 l 25
 8 12 l 29
 2 12 l 29
 2 16 l 29
EndSplineSet
EndChar

StartChar: afii10033
Encoding: 1055 1055 672
Width: 20
VWidth: 0
Flags: H
LayerCount: 2
Fore
SplineSet
2 0 m 29
 2 24 l 25
 18 24 l 25
 18 0 l 25
 14 0 l 25
 14 20 l 25
 6 20 l 25
 6 0 l 25
 2 0 l 29
EndSplineSet
EndChar

StartChar: afii10078
Encoding: 1084 1084 676
Width: 20
VWidth: 0
Flags: HW
LayerCount: 2
Fore
SplineSet
6 0 m 25
 2 0 l 25
 2 16 l 29
 6 16 l 29
 10 12 l 29
 14 16 l 29
 18 16 l 29
 18 0 l 25
 14 0 l 25
 14 10 l 29
 12 8 l 29
 12 4 l 25
 8 4 l 25
 8 8 l 29
 6 10 l 29
 6 0 l 25
EndSplineSet
EndChar

StartChar: afii10081
Encoding: 1087 1087 677
Width: 20
VWidth: 0
Flags: HW
LayerCount: 2
Fore
SplineSet
2 0 m 25
 2 16 l 29
 18 16 l 29
 18 0 l 25
 14 0 l 25
 14 12 l 29
 6 12 l 29
 6 0 l 25
 2 0 l 25
EndSplineSet
EndChar

StartChar: afii10020
Encoding: 1043 1043 678
Width: 20
VWidth: 0
Flags: H
LayerCount: 2
Fore
SplineSet
2 0 m 29
 2 24 l 25
 18 24 l 25
 18 20 l 25
 6 20 l 25
 6 0 l 25
 2 0 l 29
EndSplineSet
EndChar

StartChar: afii10068
Encoding: 1075 1075 679
Width: 20
VWidth: 0
Flags: HW
LayerCount: 2
Fore
SplineSet
2 0 m 25
 2 16 l 29
 18 16 l 29
 18 12 l 29
 6 12 l 29
 6 0 l 25
 2 0 l 25
EndSplineSet
EndChar

StartChar: afii10018
Encoding: 1041 1041 680
Width: 20
VWidth: 0
Flags: H
LayerCount: 2
Fore
SplineSet
6 12 m 25
 6 4 l 25
 12 4 l 25
 14 6 l 25
 14 10 l 25
 12 12 l 25
 6 12 l 25
2 0 m 25
 2 24 l 25
 16 24 l 29
 16 20 l 29
 6 20 l 25
 6 16 l 25
 14 16 l 25
 18 12 l 25
 18 4 l 25
 14 0 l 25
 2 0 l 25
EndSplineSet
EndChar

StartChar: afii10025
Encoding: 1047 1047 681
Width: 20
VWidth: 0
Flags: H
LayerCount: 2
Fore
SplineSet
2 20 m 29
 2 24 l 25
 14 24 l 25
 18 20 l 25
 18 14 l 25
 16 12 l 25
 18 10 l 25
 18 4 l 25
 14 0 l 25
 2 0 l 25
 2 4 l 25
 12 4 l 25
 14 6 l 25
 14 8 l 25
 12 10 l 25
 6 10 l 25
 6 14 l 25
 12 14 l 25
 14 16 l 25
 14 18 l 25
 12 20 l 25
 2 20 l 29
EndSplineSet
EndChar

StartChar: afii10073
Encoding: 1079 1079 682
Width: 20
VWidth: 0
Flags: H
LayerCount: 2
Fore
SplineSet
2 0 m 29
 2 4 l 25
 14 4 l 25
 14 6 l 25
 6 6 l 25
 6 10 l 25
 14 10 l 25
 14 12 l 25
 2 12 l 25
 2 16 l 25
 15 16 l 25
 18 13 l 25
 18 10 l 25
 16 8 l 25
 18 6 l 25
 18 3 l 25
 15 0 l 25
 2 0 l 29
EndSplineSet
EndChar

StartChar: afii10024
Encoding: 1046 1046 683
Width: 20
VWidth: 0
Flags: HW
LayerCount: 2
Fore
SplineSet
8 0 m 29
 8 24 l 25
 12 24 l 25
 12 0 l 25
 8 0 l 29
EndSplineSet
Refer: 23 88 N 1 0 0 1 0 0 2
EndChar

StartChar: afii10072
Encoding: 1078 1078 684
Width: 20
VWidth: 0
Flags: HW
LayerCount: 2
Fore
SplineSet
8 0 m 29
 8 16 l 25
 12 16 l 25
 12 0 l 25
 8 0 l 29
EndSplineSet
Refer: 35 120 N 1 0 0 1 0 0 2
EndChar

StartChar: afii10097
Encoding: 1103 1103 686
Width: 20
VWidth: 0
Flags: H
LayerCount: 2
Fore
SplineSet
2 0 m 29
 2 2 l 25
 8 8 l 25
 12 8 l 25
 12 6 l 25
 6 0 l 25
 2 0 l 29
14 10 m 25
 14 12 l 25
 6 12 l 25
 6 10 l 25
 14 10 l 25
18 0 m 25
 14 0 l 25
 14 6 l 25
 5 6 l 25
 2 9 l 25
 2 13 l 25
 5 16 l 25
 18 16 l 25
 18 0 l 25
EndSplineSet
EndChar

StartChar: afii10048
Encoding: 1070 1070 687
Width: 20
VWidth: 0
Flags: H
LayerCount: 2
Fore
SplineSet
12 4 m 29
 14 4 l 25
 14 20 l 25
 12 20 l 25
 12 4 l 29
2 0 m 25
 2 24 l 25
 6 24 l 25
 6 14 l 25
 8 14 l 25
 8 21 l 25
 11 24 l 25
 15 24 l 25
 18 21 l 25
 18 3 l 25
 15 0 l 25
 11 0 l 25
 8 3 l 25
 8 10 l 25
 6 10 l 25
 6 0 l 25
 2 0 l 25
EndSplineSet
EndChar

StartChar: afii10096
Encoding: 1102 1102 688
Width: 20
VWidth: 0
Flags: HW
LayerCount: 2
Fore
SplineSet
12 4 m 25
 14 4 l 25
 14 12 l 29
 12 12 l 29
 12 4 l 25
2 0 m 25
 2 16 l 29
 6 16 l 29
 6 10 l 29
 8 10 l 29
 8 13 l 29
 11 16 l 29
 15 16 l 29
 18 13 l 29
 18 3 l 25
 15 0 l 25
 11 0 l 25
 8 3 l 25
 8 6 l 29
 6 6 l 29
 6 0 l 25
 2 0 l 25
EndSplineSet
EndChar

StartChar: afii10053
Encoding: 1028 1028 693
Width: 20
VWidth: 0
Flags: HW
LayerCount: 2
Fore
SplineSet
4 14 m 25
 12 14 l 29
 12 10 l 29
 4 10 l 25
 4 14 l 25
EndSplineSet
Refer: 8 67 N 1 0 0 1 0 0 2
EndChar

StartChar: afii10046
Encoding: 1068 1068 696
Width: 20
VWidth: 0
Flags: HW
LayerCount: 2
Fore
SplineSet
6 12 m 25
 6 4 l 25
 12 4 l 25
 14 6 l 25
 14 10 l 25
 12 12 l 25
 6 12 l 25
6 24 m 25
 6 16 l 25
 14 16 l 25
 18 12 l 25
 18 4 l 25
 14 0 l 25
 2 0 l 25
 2 24 l 25
 6 24 l 25
EndSplineSet
EndChar

StartChar: afii10092
Encoding: 1098 1098 697
Width: 20
VWidth: 0
Flags: HW
LayerCount: 2
Fore
SplineSet
14 8 m 25
 10 8 l 25
 10 4 l 25
 14 4 l 25
 14 8 l 25
10 16 m 25
 10 12 l 25
 15 12 l 25
 18 9 l 25
 18 3 l 25
 15 0 l 25
 6 0 l 17
 6 12 l 1
 2 12 l 1
 2 16 l 13
 10 16 l 25
EndSplineSet
EndChar

StartChar: afii10045
Encoding: 1067 1067 698
Width: 20
VWidth: 0
Flags: HW
LayerCount: 2
Fore
SplineSet
14 0 m 29
 14 24 l 25
 18 24 l 25
 18 0 l 25
 14 0 l 29
8 12 m 25
 6 12 l 25
 6 4 l 25
 8 4 l 25
 8 12 l 25
6 24 m 25
 6 16 l 25
 9 16 l 25
 12 13 l 25
 12 3 l 25
 9 0 l 25
 2 0 l 25
 2 24 l 25
 6 24 l 25
EndSplineSet
EndChar

StartChar: afii10093
Encoding: 1099 1099 699
Width: 20
VWidth: 0
Flags: HW
LayerCount: 2
Fore
SplineSet
14 0 m 25
 14 16 l 29
 18 16 l 29
 18 0 l 25
 14 0 l 25
8 8 m 29
 6 8 l 29
 6 4 l 25
 8 4 l 25
 8 8 l 29
6 16 m 29
 6 12 l 29
 9 12 l 29
 12 9 l 29
 12 3 l 25
 9 0 l 25
 2 0 l 25
 2 16 l 29
 6 16 l 29
EndSplineSet
EndChar

StartChar: afii10094
Encoding: 1100 1100 700
Width: 20
VWidth: 0
Flags: HW
LayerCount: 2
Fore
SplineSet
14 8 m 29
 6 8 l 25
 6 4 l 25
 14 4 l 29
 14 8 l 29
6 16 m 25
 6 12 l 25
 15 12 l 25
 18 9 l 25
 18 3 l 25
 15 0 l 25
 2 0 l 25
 2 16 l 25
 6 16 l 25
EndSplineSet
EndChar

StartChar: afii10042
Encoding: 1064 1064 701
Width: 20
VWidth: 0
Flags: H
LayerCount: 2
Fore
SplineSet
2 0 m 29
 2 24 l 25
 6 24 l 25
 6 4 l 25
 8 4 l 25
 8 20 l 25
 12 20 l 25
 12 4 l 25
 14 4 l 25
 14 24 l 25
 18 24 l 25
 18 0 l 25
 2 0 l 29
EndSplineSet
EndChar

StartChar: afii10090
Encoding: 1096 1096 702
Width: 20
VWidth: 0
Flags: HW
LayerCount: 2
Fore
SplineSet
2 0 m 25
 2 16 l 29
 6 16 l 29
 6 4 l 25
 8 4 l 25
 8 12 l 29
 12 12 l 29
 12 4 l 25
 14 4 l 25
 14 16 l 29
 18 16 l 29
 18 0 l 25
 2 0 l 25
EndSplineSet
EndChar

StartChar: afii10043
Encoding: 1065 1065 703
Width: 20
VWidth: 0
Flags: HW
LayerCount: 2
Fore
SplineSet
2 0 m 9
 2 24 l 25
 6 24 l 25
 6 4 l 25
 8 4 l 25
 8 20 l 25
 12 20 l 25
 12 4 l 25
 14 4 l 25
 14 24 l 25
 18 24 l 17
 18 4 l 1
 20 4 l 1
 20 -8 l 5
 16 -8 l 1
 16 0 l 1
 2 0 l 9
EndSplineSet
EndChar

StartChar: afii10091
Encoding: 1097 1097 704
Width: 20
VWidth: 0
Flags: HW
LayerCount: 2
Fore
SplineSet
2 0 m 9
 2 16 l 29
 6 16 l 29
 6 4 l 25
 8 4 l 25
 8 12 l 29
 12 12 l 29
 12 4 l 25
 14 4 l 25
 14 16 l 29
 18 16 l 21
 18 4 l 1
 20 4 l 1
 20 -8 l 1
 16 -8 l 1
 16 0 l 1
 2 0 l 9
EndSplineSet
EndChar

StartChar: afii10040
Encoding: 1062 1062 705
Width: 20
VWidth: 0
Flags: H
LayerCount: 2
Fore
SplineSet
2 0 m 29
 2 24 l 25
 6 24 l 25
 6 4 l 25
 12 4 l 25
 12 24 l 25
 16 24 l 25
 16 4 l 25
 20 4 l 25
 20 -8 l 25
 16 -8 l 25
 16 0 l 25
 2 0 l 29
EndSplineSet
EndChar

StartChar: afii10088
Encoding: 1094 1094 706
Width: 20
VWidth: 0
Flags: HW
LayerCount: 2
Fore
SplineSet
2 0 m 25
 2 16 l 29
 6 16 l 29
 6 4 l 25
 12 4 l 25
 12 16 l 29
 16 16 l 29
 16 4 l 25
 20 4 l 25
 20 -8 l 25
 16 -8 l 25
 16 0 l 25
 2 0 l 25
EndSplineSet
EndChar

StartChar: afii10145
Encoding: 1039 1039 707
Width: 20
VWidth: 0
Flags: H
LayerCount: 2
Fore
SplineSet
2 0 m 29
 2 24 l 25
 6 24 l 25
 6 4 l 25
 14 4 l 25
 14 24 l 25
 18 24 l 25
 18 0 l 25
 12 0 l 25
 12 -8 l 25
 8 -8 l 25
 8 0 l 25
 2 0 l 29
EndSplineSet
EndChar

StartChar: afii10193
Encoding: 1119 1119 708
Width: 20
VWidth: 0
Flags: HW
LayerCount: 2
Fore
SplineSet
2 0 m 25
 2 16 l 29
 6 16 l 29
 6 4 l 25
 14 4 l 25
 14 16 l 29
 18 16 l 29
 18 0 l 25
 12 0 l 25
 12 -8 l 25
 8 -8 l 25
 8 0 l 25
 2 0 l 25
EndSplineSet
EndChar

StartChar: afii10101
Encoding: 1108 1108 709
Width: 20
VWidth: 0
Flags: H
LayerCount: 2
Fore
SplineSet
18 0 m 29
 6 0 l 25
 2 4 l 25
 2 12 l 25
 6 16 l 25
 18 16 l 25
 18 12 l 25
 8 12 l 25
 6 10 l 25
 14 10 l 25
 14 6 l 25
 6 6 l 25
 8 4 l 25
 18 4 l 25
 18 0 l 29
EndSplineSet
EndChar

StartChar: afii10041
Encoding: 1063 1063 710
Width: 20
VWidth: 0
Flags: H
LayerCount: 2
Fore
SplineSet
18 24 m 29
 18 0 l 25
 14 0 l 25
 14 10 l 25
 8 10 l 25
 2 16 l 25
 2 24 l 25
 6 24 l 25
 6 18 l 25
 10 14 l 25
 14 14 l 25
 14 24 l 25
 18 24 l 29
EndSplineSet
EndChar

StartChar: afii10089
Encoding: 1095 1095 711
Width: 20
VWidth: 0
Flags: HW
LayerCount: 2
Fore
SplineSet
18 16 m 25
 18 0 l 25
 14 0 l 25
 14 6 l 25
 6 6 l 25
 2 10 l 29
 2 16 l 25
 6 16 l 25
 6 12 l 25
 8 10 l 25
 14 10 l 25
 14 16 l 25
 18 16 l 25
EndSplineSet
EndChar

StartChar: afii10061
Encoding: 1036 1036 720
Width: 20
VWidth: 0
Flags: HW
LayerCount: 2
Fore
SplineSet
12 26 m 29
 8 26 l 29
 8 28 l 29
 12 32 l 29
 16 32 l 29
 16 30 l 29
 12 26 l 29
EndSplineSet
Refer: 51 75 N 1 0 0 1 0 0 2
EndChar

StartChar: afii10052
Encoding: 1027 1027 721
Width: 20
VWidth: 0
Flags: HW
LayerCount: 2
Fore
SplineSet
12 26 m 29
 8 26 l 29
 8 28 l 29
 12 32 l 29
 16 32 l 29
 16 30 l 29
 12 26 l 29
EndSplineSet
Refer: 678 1043 N 1 0 0 1 0 0 2
EndChar

StartChar: uni040D
Encoding: 1037 1037 722
Width: 20
VWidth: 0
Flags: HW
LayerCount: 2
Fore
SplineSet
12 26 m 29
 8 26 l 29
 4 30 l 29
 4 32 l 29
 8 32 l 29
 12 28 l 29
 12 26 l 29
EndSplineSet
Refer: 658 1048 N 1 0 0 1 0 0 2
EndChar

StartChar: afii10109
Encoding: 1116 1116 723
Width: 20
VWidth: 0
Flags: HW
LayerCount: 2
Fore
SplineSet
12 18 m 29
 8 18 l 29
 8 20 l 29
 12 24 l 29
 16 24 l 29
 16 22 l 29
 12 18 l 29
EndSplineSet
Refer: 663 1082 N 1 0 0 1 0 0 2
EndChar

StartChar: uni045D
Encoding: 1117 1117 724
Width: 20
VWidth: 0
Flags: HW
LayerCount: 2
Fore
SplineSet
12 18 m 29
 8 18 l 29
 4 22 l 29
 4 24 l 29
 8 24 l 29
 12 20 l 29
 12 18 l 29
EndSplineSet
Refer: 660 1080 N 1 0 0 1 0 0 2
EndChar

StartChar: afii10100
Encoding: 1107 1107 725
Width: 20
VWidth: 0
Flags: HW
LayerCount: 2
Fore
SplineSet
12 18 m 29
 8 18 l 29
 8 20 l 29
 12 24 l 29
 16 24 l 29
 16 22 l 29
 12 18 l 29
EndSplineSet
Refer: 679 1075 N 1 0 0 1 0 0 2
EndChar

StartChar: afii10059
Encoding: 1034 1034 726
Width: 20
VWidth: 0
Flags: HW
LayerCount: 2
Fore
SplineSet
14 12 m 25
 12 12 l 25
 12 4 l 25
 14 4 l 25
 14 12 l 25
12 24 m 25
 12 16 l 25
 15 16 l 25
 18 13 l 25
 18 3 l 25
 15 0 l 25
 8 0 l 17
 8 12 l 1
 6 12 l 1
 6 0 l 1
 2 0 l 5
 2 24 l 1
 6 24 l 1
 6 16 l 1
 8 16 l 1
 8 24 l 9
 12 24 l 25
EndSplineSet
EndChar

StartChar: afii10058
Encoding: 1033 1033 727
Width: 20
VWidth: 0
Flags: HW
LayerCount: 2
Fore
SplineSet
14 12 m 25
 12 12 l 25
 12 4 l 25
 14 4 l 25
 14 12 l 25
12 24 m 29
 12 16 l 25
 15 16 l 25
 18 13 l 25
 18 3 l 25
 15 0 l 25
 8 0 l 17
 8 20 l 1
 6 20 l 1
 6 0 l 1
 2 0 l 1
 2 24 l 5
 12 24 l 29
EndSplineSet
EndChar

StartChar: afii10106
Encoding: 1113 1113 728
Width: 20
VWidth: 0
Flags: HW
LayerCount: 2
Fore
SplineSet
14 8 m 25
 12 8 l 25
 12 4 l 25
 14 4 l 25
 14 8 l 25
12 16 m 29
 12 12 l 25
 15 12 l 25
 18 9 l 25
 18 3 l 25
 15 0 l 25
 8 0 l 17
 8 12 l 5
 6 12 l 5
 6 0 l 1
 2 0 l 1
 2 16 l 5
 12 16 l 29
EndSplineSet
EndChar

StartChar: afii10107
Encoding: 1114 1114 729
Width: 20
VWidth: 0
Flags: HW
LayerCount: 2
Fore
SplineSet
14 8 m 29
 12 8 l 29
 12 4 l 25
 14 4 l 25
 14 8 l 29
12 16 m 29
 12 12 l 29
 15 12 l 29
 18 9 l 29
 18 3 l 25
 15 0 l 25
 8 0 l 17
 8 8 l 5
 6 8 l 5
 6 0 l 1
 2 0 l 1
 2 16 l 5
 6 16 l 5
 6 12 l 5
 8 12 l 5
 8 16 l 13
 12 16 l 29
EndSplineSet
EndChar

StartChar: afii10038
Encoding: 1060 1060 730
Width: 20
VWidth: 0
Flags: H
LayerCount: 2
Fore
SplineSet
12 8 m 29
 14 8 l 25
 14 16 l 25
 12 16 l 25
 12 8 l 29
8 8 m 25
 8 16 l 25
 6 16 l 25
 6 8 l 25
 8 8 l 25
8 0 m 25
 8 4 l 25
 5 4 l 25
 2 7 l 25
 2 17 l 25
 5 20 l 25
 8 20 l 25
 8 24 l 25
 12 24 l 25
 12 20 l 25
 15 20 l 25
 18 17 l 25
 18 7 l 25
 15 4 l 25
 12 4 l 25
 12 0 l 25
 8 0 l 25
EndSplineSet
EndChar

StartChar: afii10086
Encoding: 1092 1092 731
Width: 20
VWidth: 0
Flags: HW
LayerCount: 2
Fore
SplineSet
12 4 m 25
 14 4 l 25
 14 8 l 29
 12 8 l 29
 12 4 l 25
8 4 m 25
 8 8 l 29
 6 8 l 29
 6 4 l 25
 8 4 l 25
8 -4 m 25
 8 0 l 25
 5 0 l 25
 2 3 l 25
 2 9 l 29
 5 12 l 29
 8 12 l 29
 8 16 l 29
 12 16 l 29
 12 12 l 29
 15 12 l 29
 18 9 l 29
 18 3 l 25
 15 0 l 25
 12 0 l 25
 12 -4 l 25
 8 -4 l 25
EndSplineSet
EndChar

StartChar: afii10060
Encoding: 1035 1035 732
Width: 20
VWidth: 0
Flags: H
LayerCount: 2
Fore
SplineSet
6 0 m 25
 6 20 l 25
 2 20 l 25
 2 24 l 25
 16 24 l 29
 16 20 l 29
 10 20 l 25
 10 14 l 25
 15 14 l 25
 18 11 l 25
 18 0 l 25
 14 0 l 25
 14 10 l 25
 10 10 l 25
 10 0 l 25
 6 0 l 25
EndSplineSet
EndChar

StartChar: afii10110
Encoding: 1118 1118 734
Width: 20
VWidth: 0
Flags: HW
LayerCount: 2
Fore
SplineSet
4 24.0664 m 29
 8 24.0664 l 29
 8 22 l 29
 12 22 l 29
 12 24.0664 l 29
 16 24.0664 l 29
 16 21 l 29
 13 18 l 29
 7 18 l 29
 4 21 l 29
 4 24.0664 l 29
EndSplineSet
Refer: 49 121 N 1 0 0 1 0 0 2
EndChar

StartChar: afii10021
Encoding: 1044 1044 735
Width: 20
VWidth: 0
Flags: H
LayerCount: 2
Fore
SplineSet
2 6 m 29
 2 8 l 25
 6 12 l 25
 6 24 l 25
 16 24 l 25
 16 6 l 25
 12 6 l 25
 12 20 l 25
 10 20 l 25
 10 10 l 25
 6 6 l 25
 2 6 l 29
2 0 m 25
 2 8 l 25
 18 8 l 25
 18 0 l 25
 14 0 l 25
 14 4 l 25
 6 4 l 25
 6 0 l 25
 2 0 l 25
EndSplineSet
EndChar

StartChar: afii10069
Encoding: 1076 1076 736
Width: 20
VWidth: 0
Flags: HW
LayerCount: 2
Fore
SplineSet
2 2 m 29
 2 4 l 29
 6 8 l 29
 6 16 l 29
 16 16 l 29
 16 2 l 29
 12 2 l 29
 12 12 l 29
 10 12 l 29
 10 6 l 29
 6 2 l 29
 2 2 l 29
2 -4 m 29
 2 4 l 29
 18 4 l 29
 18 -4 l 29
 14 -4 l 29
 14 0 l 29
 6 0 l 29
 6 -4 l 29
 2 -4 l 29
EndSplineSet
EndChar

StartChar: afii10029
Encoding: 1051 1051 737
Width: 20
VWidth: 0
Flags: H
LayerCount: 2
Fore
SplineSet
2 0 m 29
 2 2 l 25
 6 6 l 25
 6 24 l 25
 18 24 l 25
 18 0 l 25
 14 0 l 25
 14 20 l 25
 10 20 l 25
 10 4 l 25
 6 0 l 25
 2 0 l 29
EndSplineSet
EndChar

StartChar: afii10077
Encoding: 1083 1083 738
Width: 20
VWidth: 0
Flags: HW
LayerCount: 2
Fore
SplineSet
2 0 m 25
 2 2 l 25
 6 6 l 25
 6 16 l 29
 18 16 l 29
 18 0 l 25
 14 0 l 25
 14 12 l 29
 10 12 l 29
 10 4 l 25
 6 0 l 25
 2 0 l 25
EndSplineSet
EndChar

StartChar: afii10051
Encoding: 1026 1026 739
Width: 20
VWidth: 0
Flags: HW
LayerCount: 2
Fore
SplineSet
6 2 m 25
 6 20 l 25
 2 20 l 25
 2 24 l 25
 16 24 l 25
 16 20 l 25
 10 20 l 25
 10 14 l 25
 15 14 l 25
 18 11 l 25
 18 -4 l 17
 14 -8 l 1
 6 -8 l 1
 6 -4 l 1
 12 -4 l 1
 14 -2 l 1
 14 10 l 9
 10 10 l 25
 10 2 l 25
 6 2 l 25
EndSplineSet
EndChar

StartChar: afii10108
Encoding: 1115 1115 740
Width: 20
VWidth: 0
Flags: HW
LayerCount: 2
Fore
SplineSet
4 0 m 17
 4 16 l 1
 2 16 l 1
 2 20 l 1
 4 20 l 1
 4 24 l 9
 8 24 l 17
 8 20 l 1
 14 20 l 1
 14 16 l 1
 8 16 l 1
 8 14 l 9
 14 14 l 25
 18 10 l 25
 18 0 l 25
 14 0 l 25
 14 8 l 25
 12 10 l 25
 8 10 l 25
 8 0 l 25
 4 0 l 17
EndSplineSet
EndChar

StartChar: afii10099
Encoding: 1106 1106 741
Width: 20
VWidth: 0
Flags: HW
LayerCount: 2
Fore
SplineSet
4 2 m 21
 4 16 l 1
 2 16 l 1
 2 20 l 1
 4 20 l 1
 4 24 l 9
 8 24 l 17
 8 20 l 1
 14 20 l 1
 14 16 l 1
 8 16 l 1
 8 14 l 9
 14 14 l 25
 18 10 l 25
 18 -4 l 17
 14 -8 l 1
 8 -8 l 1
 8 -4 l 1
 12 -4 l 1
 14 -2 l 1
 14 8 l 9
 12 10 l 25
 8 10 l 25
 8 2 l 29
 4 2 l 21
EndSplineSet
EndChar

StartChar: afii10037
Encoding: 1059 1059 742
Width: 20
VWidth: 0
Flags: H
LayerCount: 2
Fore
SplineSet
2 24 m 25
 6 24 l 25
 6 16 l 25
 12 10 l 29
 12 8 l 29
 8 8 l 29
 2 14 l 25
 2 24 l 25
2 0 m 25
 2 2 l 25
 14 14 l 25
 14 24 l 25
 18 24 l 25
 18 12 l 25
 6 0 l 25
 2 0 l 25
EndSplineSet
EndChar

StartChar: afii10062
Encoding: 1038 1038 743
Width: 20
VWidth: 0
Flags: HW
LayerCount: 2
Fore
SplineSet
4 32.0667 m 29
 8 32.0667 l 29
 8 30 l 29
 12 30 l 29
 12 32.0667 l 29
 16 32.0667 l 29
 16 29 l 29
 13 26 l 29
 7 26 l 29
 4 29 l 29
 4 32.0667 l 29
EndSplineSet
Refer: 742 1059 N 1 0 0 1 0 0 2
EndChar

StartChar: afii10044
Encoding: 1066 1066 744
Width: 20
VWidth: 0
Flags: HW
LayerCount: 2
Fore
SplineSet
10 12 m 25
 10 4 l 25
 12 4 l 25
 14 6 l 25
 14 10 l 25
 12 12 l 25
 10 12 l 25
10 24 m 25
 10 16 l 25
 14 16 l 25
 18 12 l 25
 18 4 l 25
 14 0 l 25
 6 0 l 17
 6 20 l 1
 2 20 l 1
 2 24 l 13
 10 24 l 25
EndSplineSet
EndChar

StartChar: afii10066
Encoding: 1073 1073 745
Width: 20
VWidth: 0
Flags: H
LayerCount: 2
Fore
SplineSet
6 12 m 25
 6 6 l 25
 8 4 l 25
 12 4 l 25
 14 6 l 25
 14 8 l 25
 10 12 l 25
 6 12 l 25
6 16 m 25
 12 16 l 25
 18 10 l 25
 18 4 l 25
 14 0 l 25
 6 0 l 25
 2 4 l 25
 2 18 l 29
 8 24 l 25
 16 24 l 25
 16 20 l 25
 10 20 l 25
 6 16 l 25
EndSplineSet
EndChar

StartChar: Pi
Encoding: 928 928 759
Width: 20
VWidth: 0
Flags: H
LayerCount: 2
Fore
SplineSet
2 0 m 25
 2 24 l 25
 18 24 l 25
 18 0 l 25
 14 0 l 25
 14 20 l 25
 6 20 l 25
 6 0 l 25
 2 0 l 25
EndSplineSet
EndChar

StartChar: Delta
Encoding: 916 916 761
Width: 20
VWidth: 0
Flags: HW
LayerCount: 2
Fore
SplineSet
18 0 m 29
 2 0 l 29
 2 12 l 29
 8 24 l 29
 12 24 l 29
 18 12 l 29
 18 0 l 29
14 4 m 1
 14 11 l 9
 10 19 l 25
 6 11 l 17
 6 4 l 1
 14 4 l 1
EndSplineSet
EndChar

StartChar: Gamma
Encoding: 915 915 762
Width: 20
VWidth: 0
Flags: H
LayerCount: 2
Fore
SplineSet
2 0 m 29
 2 24 l 25
 18 24 l 25
 18 16 l 25
 14 16 l 25
 14 20 l 25
 6 20 l 25
 6 0 l 25
 2 0 l 29
EndSplineSet
EndChar

StartChar: Xi
Encoding: 926 926 763
Width: 20
VWidth: 0
Flags: H
LayerCount: 2
Fore
SplineSet
4 14 m 25
 16 14 l 25
 16 10 l 25
 4 10 l 25
 4 14 l 25
2 18 m 25
 2 24 l 25
 18 24 l 25
 18 18 l 25
 14 18 l 25
 14 20 l 25
 6 20 l 25
 6 18 l 25
 2 18 l 25
2 0 m 25
 2 6 l 25
 6 6 l 25
 6 4 l 25
 14 4 l 25
 14 6 l 25
 18 6 l 25
 18 0 l 25
 2 0 l 25
EndSplineSet
EndChar

StartChar: Sigma
Encoding: 931 931 764
Width: 20
VWidth: 0
Flags: H
LayerCount: 2
Fore
SplineSet
5 3 m 25
 2 3 l 25
 2 5 l 25
 10 13 l 25
 13 13 l 25
 13 11 l 25
 5 3 l 25
2 0 m 25
 2 4 l 25
 18 4 l 25
 18 0 l 25
 2 0 l 25
2 24 m 25
 18 24 l 25
 18 20 l 25
 2 20 l 25
 2 24 l 25
2 19 m 25
 2 21 l 25
 5 21 l 25
 13 13 l 25
 13 11 l 25
 10 11 l 25
 2 19 l 25
EndSplineSet
EndChar

StartChar: pi
Encoding: 960 960 765
Width: 20
VWidth: 0
Flags: H
LayerCount: 2
Fore
SplineSet
2 0 m 29
 2 16 l 25
 18 16 l 25
 18 0 l 25
 14 0 l 25
 14 12 l 25
 6 12 l 25
 6 0 l 25
 2 0 l 29
EndSplineSet
EndChar

StartChar: beta
Encoding: 946 946 769
Width: 20
VWidth: 0
Flags: HW
LayerCount: 2
Fore
SplineSet
2 -8 m 25
 2 20 l 25
 6 24 l 25
 14 24 l 25
 18 20 l 25
 18 14 l 25
 16 12 l 25
 18 10 l 25
 18 4 l 25
 14 0 l 25
 8 0 l 25
 8 4 l 25
 12 4 l 25
 14 6 l 25
 14 8 l 25
 12 10 l 25
 8 10 l 25
 8 14 l 25
 12 14 l 25
 14 16 l 25
 14 18 l 25
 12 20 l 25
 8 20 l 29
 6 18 l 25
 6 -8 l 25
 2 -8 l 25
EndSplineSet
EndChar

StartChar: epsilon
Encoding: 949 949 770
Width: 20
VWidth: 0
Flags: HW
LayerCount: 2
Fore
SplineSet
18 0 m 29
 5 0 l 29
 2 3 l 29
 2 6 l 29
 4 8 l 29
 2 10 l 29
 2 13 l 29
 5 16 l 29
 18 16 l 29
 18 12 l 29
 6 12 l 29
 6 10 l 29
 14 10 l 29
 14 6 l 29
 6 6 l 29
 6 4 l 29
 18 4 l 29
 18 0 l 29
EndSplineSet
EndChar

StartChar: alpha
Encoding: 945 945 771
Width: 20
VWidth: 0
Flags: H
LayerCount: 2
Fore
SplineSet
5 0 m 25
 2 3 l 25
 2 13 l 25
 5 16 l 25
 10 16 l 29
 12 14 l 29
 14 16 l 29
 18 16 l 29
 18 12 l 29
 14 12 l 29
 14 4 l 29
 18 4 l 29
 18 0 l 29
 14 0 l 29
 12 2 l 29
 10 0 l 29
 5 0 l 25
6 4 m 25
 10 4 l 29
 10 12 l 29
 6 12 l 25
 6 4 l 25
EndSplineSet
EndChar

StartChar: gamma
Encoding: 947 947 772
Width: 20
VWidth: 0
Flags: H
LayerCount: 2
Fore
SplineSet
2 16 m 25
 6 16 l 25
 10 12 l 25
 14 16 l 25
 18 16 l 25
 18 12 l 25
 16 12 l 25
 12 8 l 25
 12 -8 l 25
 8 -8 l 25
 8 8 l 25
 4 12 l 25
 2 12 l 25
 2 16 l 25
EndSplineSet
EndChar

StartChar: Phi
Encoding: 934 934 775
Width: 20
VWidth: 0
Flags: HW
LayerCount: 2
Fore
SplineSet
8 24 m 29
 12 24 l 25
 12 0 l 25
 8 0 l 25
 8 24 l 29
8 8 m 9
 12 8 l 17
 14 10 l 1
 14 14 l 1
 12 16 l 9
 8 16 l 17
 6 14 l 1
 6 10 l 1
 8 8 l 9
2 8 m 25
 2 16 l 25
 6 20 l 25
 14 20 l 25
 18 16 l 25
 18 8 l 25
 14 4 l 25
 6 4 l 25
 2 8 l 25
EndSplineSet
EndChar

StartChar: tau
Encoding: 964 964 776
Width: 20
VWidth: 0
Flags: H
LayerCount: 2
Fore
SplineSet
2 16 m 25
 18 16 l 25
 18 12 l 25
 12 12 l 25
 12 4 l 25
 16 4 l 25
 16 0 l 25
 11 0 l 25
 8 3 l 25
 8 12 l 25
 2 12 l 25
 2 16 l 25
EndSplineSet
EndChar

StartChar: rho
Encoding: 961 961 777
Width: 20
VWidth: 0
Flags: HW
LayerCount: 2
Fore
SplineSet
2 -8 m 25
 2 5 l 25
 6 5 l 25
 6 -8 l 25
 2 -8 l 25
EndSplineSet
Refer: 2 111 N 1 0 0 1 0 0 2
EndChar

StartChar: sigma
Encoding: 963 963 778
Width: 20
VWidth: 0
Flags: H
LayerCount: 2
Fore
SplineSet
6 4 m 29
 10 4 l 25
 10 12 l 25
 6 12 l 25
 6 4 l 29
5 0 m 25
 2 3 l 25
 2 13 l 25
 5 16 l 25
 18 16 l 25
 18 12 l 25
 14 12 l 25
 14 3 l 25
 11 0 l 25
 5 0 l 25
EndSplineSet
EndChar

StartChar: theta
Encoding: 952 952 779
Width: 20
VWidth: 0
Flags: HW
LayerCount: 2
Fore
SplineSet
6 14 m 25
 14 14 l 25
 14 10 l 25
 6 10 l 25
 6 14 l 25
12 4 m 1
 12 20 l 1
 8 20 l 1
 8 4 l 1
 12 4 l 1
4 3 m 25
 4 21 l 25
 7 24 l 25
 13 24 l 25
 16 21 l 25
 16 3 l 25
 13 0 l 25
 7 0 l 25
 4 3 l 25
EndSplineSet
EndChar

StartChar: lambda
Encoding: 955 955 780
Width: 20
VWidth: 0
Flags: HW
LayerCount: 2
Fore
SplineSet
6 0 m 29
 2 0 l 25
 2 6 l 25
 8 18 l 25
 12 18 l 25
 12 16 l 25
 6 4 l 25
 6 0 l 29
18 0 m 17
 14 0 l 1
 14 4 l 9
 6 20 l 17
 2 20 l 1
 2 24 l 9
 9 24 l 25
 18 6 l 25
 18 0 l 17
EndSplineSet
EndChar

StartChar: sigma1
Encoding: 962 962 781
Width: 20
VWidth: 0
Flags: H
LayerCount: 2
Fore
SplineSet
6 0 m 25
 2 4 l 25
 2 12 l 25
 6 16 l 25
 18 16 l 25
 18 12 l 25
 8 12 l 25
 6 10 l 25
 6 6 l 25
 8 4 l 25
 15 4 l 25
 18 1 l 25
 18 -5 l 25
 15 -8 l 25
 8 -8 l 29
 8 -4 l 29
 14 -4 l 25
 14 0 l 25
 6 0 l 25
EndSplineSet
EndChar

StartChar: omega
Encoding: 969 969 782
Width: 20
VWidth: 0
Flags: H
LayerCount: 2
Fore
SplineSet
10 2 m 25
 8 0 l 25
 5 0 l 25
 2 3 l 25
 2 13 l 25
 5 16 l 25
 8 16 l 25
 8 12 l 25
 6 12 l 25
 6 4 l 25
 8 4 l 25
 8 10 l 25
 12 10 l 25
 12 4 l 25
 14 4 l 25
 14 12 l 25
 12 12 l 25
 12 16 l 25
 15 16 l 25
 18 13 l 25
 18 3 l 25
 15 0 l 25
 12 0 l 25
 10 2 l 25
EndSplineSet
EndChar

StartChar: Theta
Encoding: 920 920 783
Width: 20
VWidth: 0
Flags: HW
LayerCount: 2
Fore
SplineSet
4 14 m 25
 16 14 l 25
 16 10 l 29
 4 10 l 25
 4 14 l 25
EndSplineSet
Refer: 0 79 N 1 0 0 1 0 0 2
EndChar

StartChar: iota
Encoding: 953 953 784
Width: 20
VWidth: 0
Flags: H
LayerCount: 2
Fore
SplineSet
8 16 m 29
 12 16 l 25
 12 4 l 25
 16 4 l 25
 16 0 l 25
 11 0 l 25
 8 3 l 25
 8 16 l 29
EndSplineSet
EndChar

StartChar: nu
Encoding: 957 957 785
Width: 20
VWidth: 0
Flags: H
LayerCount: 2
Fore
SplineSet
7 0 m 25
 2 10 l 25
 2 16 l 25
 6 16 l 25
 6 12 l 25
 10 4 l 25
 12 4 l 25
 14 6 l 25
 14 16 l 25
 18 16 l 25
 18 4 l 25
 14 0 l 25
 7 0 l 25
EndSplineSet
EndChar

StartChar: delta
Encoding: 948 948 786
Width: 20
VWidth: 0
Flags: H
LayerCount: 2
Fore
SplineSet
8 4 m 25
 12 4 l 25
 14 6 l 25
 14 8 l 25
 12 10 l 25
 8 10 l 25
 6 8 l 25
 6 6 l 25
 8 4 l 25
6 0 m 25
 2 4 l 25
 2 10 l 25
 4 12 l 25
 2 14 l 25
 2 20 l 25
 6 24 l 25
 16 24 l 29
 16 20 l 29
 8 20 l 25
 6 18 l 25
 6 16 l 25
 8 14 l 25
 14 14 l 25
 18 10 l 25
 18 4 l 25
 14 0 l 25
 6 0 l 25
EndSplineSet
EndChar

StartChar: eta
Encoding: 951 951 787
Width: 20
VWidth: 0
Flags: HW
LayerCount: 2
Fore
SplineSet
2 0 m 25
 2 16 l 25
 14 16 l 25
 18 12 l 25
 18 -8 l 29
 14 -8 l 21
 14 10 l 1
 12 12 l 9
 6 12 l 25
 6 0 l 25
 2 0 l 25
EndSplineSet
EndChar

StartChar: zeta
Encoding: 950 950 788
Width: 20
VWidth: 0
Flags: H
LayerCount: 2
Fore
SplineSet
2 20 m 25
 2 24 l 25
 18 24 l 25
 18 20 l 25
 2 20 l 25
15 -8 m 1
 10 -8 l 1
 10 -4 l 1
 14 -4 l 1
 14 0 l 1
 6 0 l 9
 2 4 l 25
 2 10 l 25
 14 22 l 25
 18 22 l 25
 18 20 l 25
 6 8 l 25
 6 6 l 25
 8 4 l 17
 15 4 l 1
 18 1 l 1
 18 -5 l 1
 15 -8 l 1
EndSplineSet
EndChar

